<svg xmlns="http://www.w3.org/2000/svg" version="1.1" width="600px" height="600px" viewBox="0 0 200 200" style="overflow:hidden!important;"><defs id="SvgjsDefs28150"></defs><g id="svga-group-wrapper"><g id="svga-group-backs-single"><path id="SvgjsPath28843" d="M0 0h200v200H0V0z" fill="#88a65e" stroke-width="none" opacity="1" stroke="none"></path><path id="SvgjsPath28844" d="M0 70.8 39.2 200l39.2-86.3L0 9.9v60.9zM200 0h-47.6l23 37.5L200 0zm-28.9 104.9 16.5-40.7-70.5-26.8 54 67.5zM51.3 200h101.1v-33.1l-73.9 19.5L51.3 200zm27.2-86.3 73.9 53.2L78.5 0v113.7z" fill="#759746" stroke-width="none" opacity="1" stroke="none"></path><path id="SvgjsPath28845" d="m134.4 0 2 130.8L176.2 0h-41.8zm18 166.9 47.6-14.5v-21.5L171.1 105l-18.7 61.9zm22.9-129.4 12.3 26.8 12.4 6.9V0l-24.7 37.5zm-58.2 0L96.7 26.6 117.1 0 81 18.3 46.7 0h-28l56.2 21.4L0 59.3v93.1L94.8 29l22.3 8.5zM0 200h94.2l42.2-69.2L0 189.1V200z" fill="#648732" stroke-width="none" opacity="1" stroke="none"></path><path id="SvgjsPath28846" d="M104.4 70.8 91.1 13.5 166.2 0 90 8.6 88 0H68.2l3.5 10.6L0 18.7v11.1l73.7-13.2 19.5 59-65.3 28L0 70.8v5.4l24 29.2-24 10.2 24.5-9.6 57.4 69.8L51.3 200h27.2l11.1-14.9 12.3 14.9h7.9l-16.7-19.6 24.1-32.4 17.2 52.1-29.2-125.6 94.8-37v-7.6l-95.6 40.9zm12.7 77.1-30.9 24.4-57.7-67.9 65.7-25.7 22.9 69.2zm70.5 52.1H200l-47.6-95.1 35.2 95.1z" fill="#ffffff" stroke-width="none" opacity="1"></path></g><g id="svga-group-humanwrap-move" transform="matrix(1,0,0,1,0,0)"><g id="svga-group-humanwrap" transform="matrix(1,0,0,1,0,0)"><g id="svga-group-hair-back-move" transform="matrix(1,0,0,1,0,0)"><g id="svga-group-hair-back" transform="matrix(1,0,0,1,0,0)"></g></g><g id="svga-group-humanbody-back"><path id="SvgjsPath28549" d="M180.8 184.9c-2.3-3.4-38.9-17.8-38.9-17.8l-13.4-5.2-5.6-68.8H76.8L71.3 162l-13.4 5.2S21.4 181.6 19 185c-2.3 3.4-3.3 14.9-3.3 14.9V219h168.5v-19.2c-.1.1-1-11.5-3.4-14.9z" fill="#73512d" stroke-width="none" opacity="1" stroke="none"></path></g><g id="svga-group-chinshadow-single"><path id="SvgjsPath28791" d="M74.72 148.31c2.3 3.7 4.08 7.78 6.37 12.59 1.85 3.82 9.93 3.51 12.23.91 2.4-2.6 2.74-2.22 5.04.38 2.4 2.6 10.28 2.62 12.66-1.12 1.42-2.24 3.83-9.05 6.13-12.75 1.25-1.92 5.5-5.97 9.47-10.04l-3.68-45.18H76.82l-4.19 52.64c.94 1.04 1.68 1.93 2.09 2.57z" fill="#543310" stroke-width="none" opacity="1"></path></g><g id="svga-group-humanbody-front"><path id="SvgjsPath28550" d="M184.5 219c-.1-6.4-.1-12.8-.1-19.2l-.3-.1s.1-.1.2 0c.1 0 .1.1.1.1v-.4l-.1-.5-.1-.9-.2-1.9c-.2-1.3-.4-2.5-.6-3.8-.2-1.3-.5-2.5-.9-3.8-.4-1.2-.8-2.5-1.5-3.6-.8-.9-1.9-1.5-2.9-2.1-1-.6-2.1-1.1-3.2-1.7-2.1-1.1-4.3-2.1-6.5-3.1-4.4-2-8.7-3.9-13.1-5.7-4.4-1.9-8.8-3.7-13.2-5.5l-13-5.2-1.2-16.9c-.4-5.7-.9-11.5-1.3-17.2l-1.3-17.2-1.5-17.3-.1-.8h-.8c-7.7 0-15.4.1-23.1.1l-23.1.2h-.5v.5L75 110.2l-1.3 17.2c-.8 11.4-1.8 22.8-2.8 34.2-5.6 2.1-11.2 4.2-16.7 6.4-5.6 2.2-11.2 4.5-16.8 6.9-2.8 1.2-5.6 2.4-8.3 3.6-2.8 1.3-5.5 2.5-8.2 4.1-.7.4-1.3.8-2 1.4-.2.1-.4.4-.5.6l-.3.6c-.2.4-.4.7-.5 1.1-.6 1.5-1 3-1.3 4.5-.6 3-1.1 6-1.4 9.1l-.1 19.1v.9h.9l42.1.1H100c14 0 28.1-.1 42.1-.2l42.1-.5h.3v-.3zm-84.5-1-42.1-.1-41.2.1-.1-18.1c.3-3 .6-5.9 1.2-8.9.3-1.4.6-2.9 1.1-4.2.1-.3.3-.7.4-.9l.2-.4.3-.3c.5-.4 1.1-.8 1.8-1.2 2.5-1.5 5.3-2.8 8-4.1 2.7-1.3 5.5-2.5 8.2-3.7 5.5-2.4 11.1-4.8 16.7-7.1s11.2-4.5 16.9-6.7l.2-.1v-.2c.9-11.5 1.7-23 2.7-34.4l1.4-17.2 1.5-16.7 22.6.2c7.4.1 14.8.1 22.3.1l1.3 16.4 1.5 17.2c.5 5.7 1 11.5 1.5 17.2l1.6 17.2v.3l.3.1 13.4 5c4.4 1.7 8.9 3.4 13.3 5.2 4.4 1.8 8.8 3.7 13.2 5.6 2.2 1 4.3 2 6.5 3 1.1.5 2.1 1.1 3.2 1.6 1 .6 2.1 1.2 2.9 2 .7 1.1 1.1 2.3 1.4 3.5.3 1.2.6 2.5.8 3.7.2 1.3.4 2.5.6 3.8l.2 1.9.1.9.1.5v.4c0 6.3 0 12.6-.1 18.9l-41.8-.5c-14 .1-28.1 0-42.1 0z" fill="#452706" stroke-width="none" opacity="1" stroke="none"></path><path id="SvgjsPath28551" d="M125.1 142.4s-1.8 23-9.1 32.9c0 0 7.9-25 9.1-32.9zm-34.5 16s5 7.9 11.5 10.1c0 0-9.5 2.2-11.5-10.1zM73.4 140c6.7 25.6 6.7 25.6 8.5 30.7 0 0 .4-12.6-8.5-30.7z" fill="#543310" stroke-width="none" opacity="1" stroke="none"></path></g><g id="svga-group-clothes-single"><path id="SvgjsPath28689" d="M53.2 168.3s-14.6 5.6-17.9 7.1c0 0 6.1 11.9 6.1 43.9h115.3s-.3-24 7.4-43.6c0 0-13.9-6.2-16.9-6.9 0 0-6.3 18.4-10.4 25.3-4.2 6.9-44.7 4.9-60.6 4.1-12.2-.5-18.4-15.7-23-29.9z" fill="#335529" stroke-width="none" opacity="1"></path><path id="SvgjsPath28690" d="M164.5 174.9c-2.8-1.2-5.6-2.5-8.4-3.7l-4.2-1.8c-1.4-.6-2.8-1.1-4.4-1.6l-.9-.2-.3.9c-1.8 5-3.6 10-5.7 14.9-1 2.4-2.1 4.9-3.2 7.3l-.9 1.8c-.3.5-.6 1.2-.9 1.5-.7.7-1.9 1.3-3.1 1.7-2.4.8-5.1 1.2-7.7 1.6-2.7.3-5.3.5-8 .7-5.4.3-10.8.3-16.2.3-5.4 0-10.8-.2-16.2-.3l-8.1-.3c-2.6-.1-5.1-.9-7.3-2.3s-4-3.3-5.6-5.4c-1.6-2.1-2.9-4.4-4.2-6.8-1.2-2.4-2.3-4.8-3.3-7.3s-1.9-5-2.8-7.6c-.3.1-.4.1-.7.2l-.6.2-1.1.4-2.3.8-4.5 1.7-4.5 1.7c-1.5.6-3 1.1-4.5 1.8l-.4.2.2.5c1.4 3.3 2.3 7 3 10.6.7 3.6 1.2 7.3 1.6 11 .4 3.7.6 7.4.8 11.1l.2 5.6V220.5h.8c9.6.1 19.2 0 28.8 0l28.8-.3c4.8-.1 9.6-.1 14.4-.1l14.4-.1c9.6 0 19.2.1 28.8.2h.5v-.5c0-3.7.3-7.4.6-11 .4-3.7.8-7.3 1.5-11 .6-3.6 1.4-7.2 2.3-10.8.9-3.6 2.1-7 3.4-10.5l.3-.8-.4-.7zm-4.5 11.2c-.9 3.6-1.6 7.3-2.1 11s-.9 7.4-1.2 11.1c-.2 3.6-.4 7.1-.4 10.7-9.4.1-18.9.1-28.3.2l-14.4-.1c-4.8 0-9.6-.1-14.4-.1l-28.8-.3c-9.3 0-18.7-.1-28 0l-.1-4.8-.2-5.6c-.2-3.7-.5-7.4-1-11.2-.5-3.7-1.1-7.4-1.9-11.1-.8-3.5-1.7-7-3.2-10.3 2.8-1.3 5.6-2.4 8.4-3.6l4.4-1.8 2.2-.9 1.1-.5.6-.2c.2-.1.4-.1.5-.2.7 2.5 1.5 5 2.4 7.6.9 2.5 1.9 5 3 7.5 1.2 2.4 2.4 4.8 4 7s3.5 4.3 5.8 5.8c2.3 1.6 5.1 2.6 7.9 2.7l8.1.4c5.4.3 10.8.5 16.2.6 5.4.1 10.8.1 16.3-.1 2.7-.1 5.4-.3 8.2-.6 2.7-.4 5.4-.7 8.1-1.6 1.3-.5 2.7-1 3.9-2.2.6-.7.9-1.3 1.2-1.9l.9-1.8c1.2-2.4 2.3-4.9 3.3-7.4 1.9-4.7 3.6-9.4 5.3-14.2l3.3 1.2c1.4.6 2.8 1.1 4.2 1.7 2.6 1.1 5.1 2.2 7.6 3.3-1.1 3.1-2.1 6.4-2.9 9.7z" fill="#18360f" stroke-width="none" opacity="1"></path></g><g id="svga-group-head" transform="matrix(1,0,0,1,0,0)"><g id="svga-group-ears-left-move" transform="matrix(1,0,0,1,0,0)"><g id="svga-group-ears-left" transform="matrix(1,0,0,1,0,0)"><path id="SvgjsPath28699" d="M70.01 81.26s-3.24-4.86-12.55-8.1c0 0-3.1-.67-10.39 10.66 0 0-1.35 5.94 5.13 15.65 0 0 6.34 3.37 16.73-1.21 0 0 4.72-7.69 1.08-17z" fill="#73512d" stroke-width="none" opacity="1" stroke="none"></path><path id="SvgjsPath28700" d="M68.66 90.08s-5.67-8.43-10.93-11.38c0 0-3.51 2.67-6.48 7.73 0 0 2.97 6.89 4.45 8.71 0 0 3.64 1.41 11.2-.56l1.76-4.5z" fill="#64411d" stroke-width="none" opacity="1" stroke="none"></path><path id="SvgjsPath28701" d="M46.91 83.79c-.12.72-.12 1.43-.08 2.13.03.71.12 1.41.22 2.1.23 1.39.63 2.75 1.08 4.08.45 1.34 1.04 2.62 1.65 3.9.32.63.66 1.25 1 1.87l1.1 1.81.05.08.09.04c1.39.67 2.82.98 4.28 1.17 1.46.18 2.94.17 4.4.04 1.46-.13 2.9-.44 4.3-.84.71-.19 1.39-.45 2.08-.68l2.03-.82.13-.05.07-.12c.77-1.34 1.25-2.75 1.64-4.19.39-1.44.58-2.93.62-4.41.04-1.48-.04-2.97-.34-4.41-.21-1.46-.68-2.86-1.19-4.24-.75-1.04-1.67-1.91-2.62-2.75-.96-.83-1.97-1.6-3.03-2.3-1.06-.7-2.17-1.33-3.3-1.9-1.14-.58-2.32-1.04-3.51-1.49l-.03-.01h-.02c-.53-.05-.8.08-1.15.19-.32.12-.62.29-.91.46-.56.36-1.08.76-1.57 1.19-.98.85-1.83 1.83-2.63 2.82-1.61 2-2.97 4.15-4.35 6.28l-.02.03.01.02zm.32.09c.7-1.04 1.4-2.08 2.17-3.07.76-1.01 1.55-1.99 2.39-2.94.84-.93 1.7-1.85 2.64-2.66.47-.4.96-.78 1.48-1.09.26-.16.52-.29.79-.4.24-.1.57-.18.69-.18l1.73.62 1.73.71c1.15.49 2.28 1.03 3.37 1.66 1.08.63 2.15 1.3 3.12 2.09.97.79 1.9 1.66 2.65 2.66.47 1.38.89 2.78 1.07 4.23.2 1.44.19 2.91.05 4.35-.13 1.44-.45 2.86-.87 4.23-.4 1.33-.96 2.63-1.61 3.8l-1.83.73c-.67.21-1.34.46-2.02.64-1.36.38-2.75.65-4.14.82-1.4.15-2.81.18-4.21.04-1.35-.15-2.75-.43-3.95-.95l-1.08-1.65-1.06-1.79c-.66-1.22-1.3-2.46-1.79-3.76-.51-1.29-.92-2.63-1.17-4-.27-1.35-.38-2.76-.15-4.09z" fill="#64411d" stroke-width="none" opacity="1" stroke="none"></path><path id="SvgjsPath28702" d="M52.21 84.06c.46-.6.96-1.16 1.45-1.73 1.01-1.12 2.05-2.19 3.12-3.26l.12-.12.16.12c.9.67 1.74 1.43 2.52 2.24.77.82 1.44 1.71 2.09 2.62 1.27 1.84 2.38 3.77 3.26 5.82l-.08.04c-1.24-1.84-2.49-3.65-3.81-5.4-.66-.87-1.34-1.73-2.03-2.57-.66-.79-1.34-1.57-2.09-2.27-1.1.89-2.11 1.91-3.01 3-.91 1.1-1.7 2.31-2.27 3.59.53 1.19 1.08 2.38 1.66 3.54.53 1.03 1.08 2.07 1.7 3.01.68-.6 1.35-1.23 1.97-1.88.72-.77 1.38-1.61 1.82-2.53-.13-.47-.36-.96-.61-1.42a7.38 7.38 0 0 0-1.01-1.36l.06-.07c.46.35.88.77 1.24 1.23.18.23.35.48.49.74.15.26.28.52.39.83l.02.07-.03.1c-.36 1.14-1.06 2.08-1.76 2.96-.72.89-1.51 1.68-2.37 2.45l-.39.34-.31-.42c-.85-1.16-1.45-2.4-2.02-3.65-.58-1.25-1.09-2.51-1.56-3.8l-.06-.15.07-.12c.38-.72.81-1.35 1.27-1.95z" fill="#452706" stroke-width="none" opacity="1" stroke="none"></path></g></g><g id="svga-group-ears-right-move" transform="matrix(1,0,0,1,0,0)"><g id="svga-group-ears-right" transform="matrix(1,0,0,1,0,0)"><path id="SvgjsPath28703" d="M129.99 81.26s3.24-4.86 12.55-8.1c0 0 3.1-.67 10.39 10.66 0 0 1.35 5.94-5.13 15.65 0 0-6.34 3.37-16.73-1.21 0 0-4.72-7.69-1.08-17z" fill="#73512d" stroke-width="none" opacity="1" stroke="none"></path><path id="SvgjsPath28704" d="M131.34 90.08s5.67-8.43 10.93-11.38c0 0 3.51 2.67 6.48 7.73 0 0-2.97 6.89-4.45 8.71 0 0-3.64 1.41-11.2-.56l-1.76-4.5z" fill="#64411d" stroke-width="none" opacity="1" stroke="none"></path><path id="SvgjsPath28705" d="m153.08 83.76-.02-.03c-1.38-2.13-2.74-4.29-4.35-6.28-.8-1-1.65-1.97-2.63-2.82-.49-.43-1-.84-1.57-1.19-.28-.18-.58-.34-.91-.46-.35-.11-.63-.24-1.15-.19h-.02l-.03.01c-1.19.45-2.38.92-3.51 1.49-1.14.58-2.24 1.2-3.3 1.9-1.06.7-2.07 1.47-3.03 2.3-.95.84-1.86 1.71-2.62 2.75-.51 1.38-.98 2.78-1.19 4.24-.29 1.45-.38 2.93-.34 4.41.04 1.48.23 2.97.62 4.41.39 1.45.87 2.85 1.64 4.19l.07.12.13.05 2.03.82c.69.22 1.38.49 2.08.68 1.41.4 2.84.7 4.3.84 1.46.13 2.94.14 4.4-.04 1.47-.19 2.9-.49 4.28-1.17l.09-.04.05-.08 1.1-1.81c.33-.62.68-1.24 1-1.87.61-1.27 1.2-2.56 1.65-3.9.45-1.33.85-2.69 1.08-4.08.11-.7.19-1.4.22-2.1.04-.71.04-1.41-.08-2.13l.01-.02zm-.43 4.21c-.25 1.37-.65 2.71-1.17 4-.49 1.3-1.13 2.54-1.79 3.76l-1.06 1.79-1.08 1.65c-1.21.52-2.6.81-3.95.95-1.4.14-2.81.11-4.21-.04-1.4-.17-2.78-.44-4.14-.82-.68-.18-1.35-.43-2.02-.64l-1.83-.73c-.65-1.18-1.21-2.48-1.61-3.8-.42-1.38-.74-2.79-.87-4.23-.14-1.44-.15-2.9.05-4.35.17-1.45.6-2.85 1.07-4.23.74-1 1.67-1.88 2.65-2.66.98-.79 2.04-1.46 3.12-2.09 1.09-.62 2.22-1.16 3.37-1.66l1.73-.71 1.73-.62c.11 0 .45.08.69.18.26.12.53.25.79.4.51.31 1.01.68 1.48 1.09.94.81 1.8 1.73 2.64 2.66.83.94 1.63 1.93 2.39 2.94.77.99 1.47 2.03 2.17 3.07.2 1.33.09 2.74-.15 4.09z" fill="#64411d" stroke-width="none" opacity="1" stroke="none"></path><path id="SvgjsPath28706" d="M147.79 84.06c-.46-.6-.96-1.16-1.45-1.73a87.123 87.123 0 0 0-3.12-3.26l-.12-.12-.16.12c-.9.67-1.74 1.43-2.52 2.24-.77.82-1.44 1.71-2.09 2.62-1.27 1.84-2.38 3.77-3.26 5.82l.08.04c1.24-1.84 2.49-3.65 3.81-5.4.66-.87 1.34-1.73 2.03-2.57.66-.79 1.34-1.57 2.09-2.27 1.1.89 2.11 1.91 3.01 3 .91 1.1 1.7 2.31 2.27 3.59-.53 1.19-1.08 2.38-1.66 3.54-.53 1.03-1.08 2.07-1.7 3.01-.68-.6-1.35-1.23-1.97-1.88-.72-.77-1.38-1.61-1.82-2.53.13-.47.36-.96.61-1.42.28-.49.62-.94 1.01-1.36l-.06-.07c-.46.35-.88.77-1.24 1.23-.18.23-.35.48-.49.74-.15.26-.28.52-.39.83l-.02.07.03.1c.36 1.14 1.06 2.08 1.76 2.96.72.89 1.51 1.68 2.37 2.45l.39.34.31-.42c.85-1.16 1.45-2.4 2.02-3.65.58-1.25 1.09-2.51 1.56-3.8l.06-.15-.07-.12c-.38-.72-.81-1.35-1.27-1.95z" fill="#452706" stroke-width="none" opacity="1" stroke="none"></path></g></g><g id="svga-group-faceshape-wrap" transform="matrix(1,0,0,1,0,0)"><g id="svga-group-faceshape-single"><path id="SvgjsPath28779" d="M140.2 95.5c0-10.4.1-27 .1-27s.67-9.34-.23-13.44c-2.2-10-6.31-15.62-15.21-20.42-9.3-5-24.98-4.91-24.98-4.91S84 29.39 74.7 34.39c-8.7 4.8-12.71 10.55-14.91 20.55-.9 4 .02 13.59.02 13.59s.48 16.68.27 27.04c-.21 10.4.56 18.42 1.86 22.82s14.38 16.22 16.78 19.92c2.3 3.7 4.08 7.78 6.37 12.59 1.85 3.82 9.93 3.51 12.23.91 2.4-2.6 2.74-2.22 5.04.38 2.4 2.6 10.28 2.62 12.66-1.12 1.42-2.24 3.83-9.05 6.13-12.75 2.4-3.7 15.9-15.24 17.2-19.74 1.5-4.38 1.85-12.68 1.85-23.08z" fill="#73512d" stroke-width="none" opacity="1"></path><path id="SvgjsPath28780" d="M100 148.3s1.4-6.2 3.6-9.2c0 0-3.3 1.4-4.6 4s1 5.2 1 5.2z" fill="#543310" stroke-width="none" opacity="1"></path><path id="SvgjsPath28781" d="M140.07 55.06c-2.2-10-6.31-15.62-15.21-20.42-9.3-5-24.98-4.91-24.98-4.91S84 29.39 74.7 34.39c-8.7 4.8-12.71 10.55-14.91 20.55-.9 4 .02 13.59.02 13.59s.48 16.68.27 27.04c-.21 10.4.56 18.42 1.86 22.82s14.38 16.22 16.78 19.92c2.3 3.7 4.08 7.78 6.37 12.59 1.85 3.82 9.93 3.51 12.23.91 2.4-2.6 2.74-2.22 5.04.38 2.4 2.6 10.28 2.62 12.66-1.12 1.42-2.24 3.83-9.05 6.13-12.75 2.4-3.7 15.9-15.24 17.2-19.74 1.5-4.38 1.85-12.68 1.85-23.08s.1-27 .1-27 .67-9.34-.23-13.44zm-.25 51.26c-.24 3.59-.47 7.22-1.38 10.67-.21.87-.52 1.71-.9 2.45-.44.75-.96 1.46-1.51 2.16-1.12 1.38-2.36 2.68-3.6 3.98-2.51 2.57-5.15 5.03-7.74 7.55-1.3 1.28-2.6 2.51-3.82 3.99-1.24 1.59-1.97 3.23-2.8 4.87-.79 1.64-1.53 3.3-2.28 4.93-.37.82-.74 1.63-1.13 2.4-.19.39-.4.75-.6 1.08-.22.27-.39.54-.68.76-.52.46-1.19.84-1.94 1.07-.73.26-1.53.42-2.34.48-1.6.15-3.32-.05-4.66-.65-.34-.14-.63-.33-.86-.52l-.8-.85c-.31-.35-.63-.7-1.05-1.08a3.59 3.59 0 0 0-.8-.57c-.33-.18-.83-.34-1.34-.31-1.03.11-1.52.59-1.95.92-.4.35-.75.69-1.08 1.05-.08.08-1.55 1.09-1.74 1.14-1.42.53-3.12.69-4.69.5-1.55-.19-3.09-.8-3.68-1.8-.14-.16-.36-.69-.55-1.06l-.58-1.22-1.16-2.45c-.78-1.64-1.58-3.27-2.45-4.89-.44-.81-.89-1.61-1.36-2.41-.25-.4-.46-.79-.78-1.21-.3-.43-.6-.8-.91-1.15-1.22-1.43-2.47-2.73-3.72-4.05-2.5-2.61-5.04-5.18-7.41-7.84-1.19-1.33-2.35-2.68-3.33-4.09-.5-.69-.91-1.42-1.16-2.06-.25-.8-.46-1.65-.64-2.51-.7-3.44-1.03-7.02-1.24-10.59-.2-3.58-.23-7.15-.22-10.77 0-3.62-.08-7.24-.17-10.85l-.33-10.83-.1-2.71-.19-2.72c-.14-1.79-.26-3.59-.3-5.38s-.06-3.59.12-5.35c.07-.88.29-1.72.49-2.61.2-.87.45-1.73.7-2.59 1.02-3.42 2.62-6.68 4.87-9.42 2.29-2.72 5.19-4.88 8.31-6.59.77-.46 1.59-.77 2.38-1.16.84-.29 1.64-.65 2.5-.89 1.69-.55 3.43-.94 5.18-1.28a78.219 78.219 0 0 1 21.33-.82c3.55.32 7.08.87 10.52 1.68 3.47.81 6.7 2.03 9.73 3.82 3.01 1.8 5.82 3.92 7.96 6.65 2.13 2.72 3.66 5.92 4.67 9.32.27.84.48 1.71.71 2.57.2.83.33 1.69.41 2.57.18 1.76.22 3.56.23 5.35.01 1.8-.03 3.59-.11 5.39l.09 5.43c.13 7.23.13 14.45.12 21.67-.01 3.62-.05 7.23-.24 10.83z" fill="#452706" stroke-width="none" opacity="1"></path></g></g><g id="svga-group-mouth-single-move" transform="matrix(1,0,0,1,0,0)"><g id="svga-group-mouth-single" transform="matrix(1,0,0,1,0,0)"><path id="SvgjsPath28884" d="M88.47 130.85s.96 3.04 5.26 4.47c4.3 1.43 9.08 1.74 13.33-.43 4.26-2.17 5.56-5.08 5.99-7.69s-4.34-6.07-11.16-6.69c-3.22-.29-7.22.33-9.68 1.31-1.73.7-5.55 3.46-3.74 9.03z" fill="#ff5027" stroke-width="none" opacity="1"></path><path id="SvgjsPath28885" d="M115.6 121.1c-.2 2.1-.4 5-3.1 4.9-1.1 0-2.3-.5-3.4-.6-2.8-.3-5.6-.3-8.3.1-2.6.4-5.2 1.1-7.7 2.1-6.46 3.33-6.2 2.82-8.09 2.86-.4.1-.4.7 0 .8 1.3.3 2.89.54 3.99-.06 1.7-.9 3.3-1.7 5.1-2.3 3.4-1.2 6.9-1.9 10.5-2 1.9 0 3.7.1 5.5.4 1.1.2 2.44.47 3.54.27 1.1-.3 1.43-.81 1.91-1.94.51-1.86.65-2.93.65-4.53 0-.5-.5-.4-.6 0z" fill="#f0380d" stroke-width="none" opacity="1"></path></g></g><g id="svga-group-eyes-left-move" transform="matrix(1,0,0,1,0,0)"><g id="svga-group-eyes-left" transform="matrix(1,0,0,1,0,0)"><g id="svga-group-eyesback-left"><path id="SvgjsPath28733" d="M80.2 74.2c7.5 0 13.5 5.8 13.5 13s-6 13-13.5 13-13.5-5.8-13.5-13 6-13 13.5-13z" fill="#ffffff" stroke-width="none" opacity="1"></path></g><g id="svga-group-eyesiriswrapper-left" transform="matrix(1,0,0,1,0,0)"><g id="svga-group-eyesiriscontrol-left" transform="matrix(1,0,0,1,0,0)"><g id="svga-group-eyesiris-left" transform="matrix(1,0,0,1,0,0)"><path id="SvgjsPath28795" d="M80.2 81.6c3.1 0 5.6 2.5 5.6 5.6s-2.5 5.6-5.6 5.6-5.6-2.5-5.6-5.6 2.5-5.6 5.6-5.6z" fill="#8ab42d" stroke-width="none" opacity="1"></path><path id="SvgjsPath28796" d="M80.2 82.7c2.5 0 4.5 2 4.5 4.5s-2 4.5-4.5 4.5-4.5-2-4.5-4.5 2-4.5 4.5-4.5z" fill="#000000" stroke-width="none" opacity="1"></path><path id="SvgjsPath28797" d="M74.6 87.2c0 .9.2 1.8.6 2.6.8.5 1.8.8 2.8.8 2.9 0 5.3-2.4 5.3-5.3 0-1.2-.4-2.4-1.1-3.3-.6-.2-1.3-.4-2-.4-3.1 0-5.6 2.5-5.6 5.6z" fill="#9cc344" stroke-width="none" opacity="1"></path><path id="SvgjsPath28798" d="M75.7 87.2c0 1.3.5 2.4 1.4 3.3.3.1.6.1 1 .1 2.9 0 5.3-2.4 5.3-5.3 0-.5-.1-1.1-.2-1.6-.8-.7-1.8-1.1-2.9-1.1-2.6.1-4.6 2.1-4.6 4.6z" fill="#1e1e1e" stroke-width="none" opacity="1"></path><path id="SvgjsPath28799" d="M77.7 84.8c.6-.7 1.6-.9 2-.4.5.5.4 1.4-.3 2.1s-1.6.9-2 .4c-.4-.5-.3-1.4.3-2.1z" fill="#2b2b2b" stroke-width="none" opacity="1"></path></g></g></g><g id="svga-group-eyesfront-left"><path id="SvgjsPath28741" d="M80.2 73.7c-7.8 0-14.1 6.1-14.1 13.6s6.3 13.6 14.1 13.6 14.1-6.1 14.1-13.6S88 73.7 80.2 73.7zM68.6 92.6s3.5-5.5 5.1-7.2 3.1-1.8 6.1-1.9 6.3.1 7.9 2.4c1.6 2.3 2.7 6.3 2.7 6.3-7.3-3.2-21.8.4-21.8.4z" fill="#73512d" stroke-width="none" opacity="1" stroke="none"></path><path id="SvgjsPath28742" d="M89.9 90.3c-.2-.6-.4-1.2-.7-1.8s-.5-1.2-.8-1.8c-.3-.6-.7-1.2-1.2-1.6-1-.9-2.3-1.4-3.5-1.6-1.3-.2-2.6-.2-3.8-.1-1.3.1-2.5.1-3.8.5-1.2.4-2.3 1.3-3.1 2.3-.8 1-1.6 2.1-2.3 3.1-.8 1.1-1.5 2.1-2.2 3.2l-.3.4.5-.1c1.8-.4 3.6-.7 5.4-1 1.8-.3 3.6-.5 5.5-.6 1.8-.1 3.7-.2 5.5 0l2.7.3c.9.2 1.8.4 2.7.7-.2-.7-.4-1.3-.6-1.9zm-4.8.5c-1.8-.2-3.7-.2-5.5-.1-1.8.1-3.7.3-5.5.6-1.7.3-3.3.6-4.9 1 1.3-2.1 2.6-4.1 4-6 .4-.5.8-1 1.3-1.4s1.1-.7 1.7-.8c.6-.2 1.2-.2 1.8-.3.6 0 1.3-.1 1.9-.1 1.3 0 2.5 0 3.7.2 1.2.2 2.4.6 3.3 1.5.5.4.8.9 1.1 1.5.3.6.6 1.1.9 1.7.5 1.2 1 2.4 1.4 3.6-.8-.4-1.7-.7-2.6-.9-.8-.2-1.7-.4-2.6-.5z" fill="#0f190c" stroke-width="none" opacity="1" stroke="none"></path><path id="SvgjsPath28743" d="M74.2 82.9c1.4-.3 12.4-1 13.3-.5.8.5 2.4 4.3 2.4 4.3-.4-1.1-.3-6.4-.9-6.5s-14.7 1.6-15.4 2.2c-.6.4-2 3.4-2.5 4.4.6-1 2.1-3.7 3.1-3.9zm2.2 13.2c-3.4-.3-7.7-1.9-7.7-1.9 4.5 3 7.7 1.9 7.7 1.9z" fill="#543310" stroke-width="none" opacity="1" stroke="none"></path></g></g></g><g id="svga-group-eyes-right-move" transform="matrix(1,0,0,1,0,0)"><g id="svga-group-eyes-right" transform="matrix(1,0,0,1,0,0)"><g id="svga-group-eyesback-right"><path id="SvgjsPath28734" d="M119.8 74.2c7.5 0 13.5 5.8 13.5 13s-6 13-13.5 13-13.5-5.8-13.5-13 6-13 13.5-13z" fill="#ffffff" stroke-width="none" opacity="1"></path></g><g id="svga-group-eyesiriswrapper-right" transform="matrix(1,0,0,1,0,0)"><g id="svga-group-eyesiriscontrol-right" transform="matrix(1,0,0,1,0,0)"><g id="svga-group-eyesiris-right" transform="matrix(1,0,0,1,0,0)"><path id="SvgjsPath28800" d="M119.8 82.3c2.7 0 4.9 2.2 4.9 4.9s-2.2 4.9-4.9 4.9-4.9-2.2-4.9-4.9 2.2-4.9 4.9-4.9z" fill="#8ab42d" stroke-width="none" opacity="1"></path><path id="SvgjsPath28801" d="M119.8 83.2c2.2 0 4 1.8 4 4s-1.8 4-4 4-4-1.8-4-4 1.8-4 4-4z" fill="#000000" stroke-width="none" opacity="1"></path><path id="SvgjsPath28802" d="M114.9 87.2c0 .8.2 1.6.6 2.3.7.4 1.5.7 2.4.7 2.6 0 4.6-2.1 4.6-4.6 0-1.1-.4-2.1-1-2.9-.5-.2-1.1-.3-1.7-.3-2.7-.1-4.9 2.1-4.9 4.8z" fill="#9cc344" stroke-width="none" opacity="1"></path><path id="SvgjsPath28803" d="M115.8 87.2c0 1.1.5 2.2 1.2 2.9.3.1.6.1.8.1 2.6 0 4.6-2.1 4.6-4.6 0-.5-.1-.9-.2-1.4-.7-.6-1.6-.9-2.5-.9-2.1-.1-3.9 1.7-3.9 3.9z" fill="#1e1e1e" stroke-width="none" opacity="1"></path><path id="SvgjsPath28804" d="M117.6 86.1c.6-.6 1.4-.8 1.8-.4.4.4.3 1.2-.2 1.8s-1.4.8-1.8.4c-.4-.4-.3-1.2.2-1.8z" fill="#2b2b2b" stroke-width="none" opacity="1"></path></g></g></g><g id="svga-group-eyesfront-right"><path id="SvgjsPath28744" d="M119.8 73.7c-7.8 0-14.1 6.1-14.1 13.6s6.3 13.6 14.1 13.6 14.1-6.1 14.1-13.6-6.3-13.6-14.1-13.6zm-10.4 17.4s.6-2.4 2.2-4.5 5.1-2.3 8.1-2.2c3 .1 4.6.2 6.2 1.7 1.5 1.3 4.6 5.6 5.1 6.2l.1.1-.1-.1c-1.1-.7-13.8-5.6-21.6-1.2z" fill="#73512d" stroke-width="none" opacity="1" stroke="none"></path><path id="SvgjsPath28747" d="M129 89.6c-.8-.9-1.5-1.8-2.3-2.7-.8-.9-1.8-1.7-2.9-2-1.2-.4-2.3-.4-3.5-.5-1.2-.1-2.4-.1-3.6 0-1.2.1-2.4.3-3.5.8-.6.3-1.1.6-1.5 1.1-.4.5-.8 1-1.1 1.5-.6 1.1-1 2.2-1.3 3.4 1.7-.9 3.5-1.3 5.4-1.5 1.8-.2 3.7-.1 5.6.1 1.8.2 3.7.6 5.5 1.1.9.2 1.8.5 2.7.8.4.2.9.3 1.3.5.2.1 1.4.6 1.4.6.1-.2-1.5-2.3-2.2-3.2zm-.4 1.5-2.7-.9c-1.8-.5-3.7-.9-5.6-1.1-1.9-.2-3.8-.2-5.7.1-.9.1-1.9.3-2.8.6-.9.3-1.8.7-2.5 1.2.4-1.1.9-2.2 1.5-3.2.3-.5.7-1 1.1-1.4.4-.4.9-.7 1.4-1 1-.5 2.2-.7 3.4-.8 1.2-.1 2.3-.1 3.5-.1 1.2 0 2.4 0 3.5.4.6.2 1.1.4 1.6.8s.9.8 1.3 1.2c1.3 1.5 2.5 3.2 3.7 4.8-.1-.1-.2-.1-.4-.2-.4 0-.8-.2-1.3-.4z" fill="#0f190c" stroke-width="none" opacity="1" stroke="none"></path><path id="SvgjsPath28748" d="M112.9 82.6c.9-.6 11.3 1.4 12.7 1.8s3.9 4.5 3.9 4.5-1.8-5.1-2.4-5.8c-.7-.7-13.7-1.8-14.3-1.7-.6.1-2.1 4.9-2.6 6.1-.1 0 1.7-4.4 2.7-4.9zm12.9 11.6-14.7-.7c6.5 1.9 14.7.7 14.7.7z" fill="#543310" stroke-width="none" opacity="1" stroke="none"></path></g></g></g><g id="svga-group-facehighlight-single"></g><g id="svga-group-eyebrows-left-move" transform="matrix(1,0,0,1,0,0)"><g id="svga-group-eyebrows-left-rotate" transform="matrix(1,0,0,1,0,0)"><g id="svga-group-eyebrows-left" transform="matrix(1,0,0,1,0,0)"><path id="SvgjsPath28667" d="M93.2 68.2s-1.8 4.7-3.3 5.6-18.1.7-18.1.7-4.2 2.2-5.5 3.9l3.3-8.3.4.4 10.4-1.7-1.2.8 13-1.7-1.3 2.2 2.3-1.9z" fill="#3b3128" stroke-width="none" opacity="1"></path><path id="SvgjsPath28668" d="m66 79.1.4-.6c.3-.4.7-.8 1.1-1.2.2-.2.4-.3.7-.5.2-.2.5-.3.7-.5.5-.3 1-.6 1.4-.9s1-.6 1.5-.8c2.2.1 4.3.1 6.4.1 2.2 0 4.3 0 6.5-.1 1.1-.1 2.2-.1 3.2-.2.5-.1 1.1-.1 1.6-.3l.2-.1c.1 0 .1-.1.2-.1.1-.1.2-.2.3-.2l.3-.3.2-.3c.3-.4.5-.8.8-1.2l.6-1.2c.2-.4.4-.8.5-1.2.1-.2.2-.4.2-.6l.1-.3.1-.2v-.2l-1.2.9c-.3.2-.5.4-.8.6l1.1-1.8.1-.2h-.3l-3.3.4-3.3.4c-1.1.1-2.2.3-3.3.4l-2.2.3.4-.2.9-.6-1.1.2-2.6.4-2.6.4-5.1.8-.4-.3-.2-.2-.1.3-1.6 4.2-.4 2.2c-.3.7-.5 1.4-.8 2.1l-.2.6zm.6-1.1c.2-.5.4-1.1.7-1.6l.8-2.1 1.6-3.8.2.2.1.1h.1l5.2-.8 2.6-.4 1.5-.2-.4.1-.8.5 1.1-.1 3.3-.4c1.1-.1 2.2-.3 3.2-.5l3.2-.5 3-.4-1.1 2-.3.5.4-.4 1.1-.9c.4-.3.7-.6 1.1-1l-.1.1v.1l-.1.1-.1.3-.3.6-.6 1.2c-.4.8-.9 1.6-1.4 2.3l-.2.3-.2.2c-.1.1-.2.1-.3.2l-.1.1-.2.1c-.5.1-1 .2-1.6.2-1.1.1-2.1.2-3.2.2-2.2.1-4.3.1-6.5.2-2.2 0-4.3.1-6.5.1-1 .6-2 1.1-3 1.8-.5.3-.9.7-1.4 1-.3.1-.6.4-.8.6zm23.1-9c-.6.3-1.1.7-1.6 1-.5.3-1.1.7-1.6 1.1-.5.4-1 .7-1.6 1.1s-1 .8-1.5 1.1l.4.2c.2-.7.3-1.3.4-2l.1-.4-.4.3c-.6.5-1.2 1-1.7 1.5.7-.4 1.3-.8 1.9-1.3l-.3-.1c-.2.7-.4 1.3-.6 1.9l-.2.6.6-.4c.5-.4 1-.7 1.5-1.1l1.5-1.2 1.5-1.2c.6-.3 1.1-.7 1.6-1.1zm-10.9 1.6c-.7.4-1.4.9-2.2 1.4-.7.5-1.4.9-2.1 1.4l.4.2c.1-.3.2-.6.4-1 .1-.3.2-.6.4-1l.2-.5-.5.2c-.5.2-1.1.5-1.6.7s-1 .5-1.5.8c-.5.3-1 .6-1.4.9-.4.3-.9.7-1.2 1.1.4-.3.9-.6 1.4-.9.5-.3 1-.6 1.5-.8.5-.2 1-.5 1.5-.7.5-.2 1-.5 1.6-.7l-.3-.2c-.1.3-.2.6-.4 1-.1.3-.2.6-.3 1l-.2.6.6-.4c.7-.5 1.3-1 2-1.5.4-.5 1.1-1 1.7-1.6z" fill="#2c2219" stroke-width="none" opacity="1"></path></g></g></g><g id="svga-group-eyebrows-right-move" transform="matrix(1,0,0,1,0,0)"><g id="svga-group-eyebrows-right-rotate" transform="matrix(1,0,0,1,0,0)"><g id="svga-group-eyebrows-right" transform="matrix(1,0,0,1,0,0)"><path id="SvgjsPath28669" d="M108.2 71.1s2.3 4.4 3.6 5.2c1.4.7 15.7-1.3 15.7-1.3s4 1.7 5.3 3.2l-4-7.8-.3.4-9.2-.5 1.2.6-11.5-.2 1.4 2-2.2-1.6z" fill="#3b3128" stroke-width="none" opacity="1"></path><path id="SvgjsPath28670" d="M132.9 78.2c-.3-.7-.7-1.3-1-2l-1-2-2-3.9-.1-.3-.2.2-.3.3-4.5-.3-2.3-.1-2.3-.1-1-.1.9.5.4.2H108.7l.1.2 1.2 1.6c-.2-.2-.5-.3-.8-.5-.4-.2-.8-.5-1.1-.8v.2l.1.2.2.3.3.6c.2.4.4.8.7 1.2.2.4.5.8.7 1.1s.5.7.8 1.1l.2.3.3.2c.1.1.2.1.3.2.1 0 .1.1.2.1h.2c.5.1 1 .1 1.4.1.9 0 1.9-.1 2.8-.2 1.9-.1 3.7-.4 5.6-.6 1.8-.2 3.7-.5 5.5-.8.5.2.9.4 1.4.6.5.2.9.5 1.4.7.2.1.4.3.7.4.2.1.4.3.6.4.4.3.8.6 1.1 1l.4.5-.1-.5zm-1.2-1.1c-.4-.3-.9-.6-1.3-.8-.9-.5-1.8-1-2.8-1.4-1.8.2-3.7.5-5.6.7-1.9.2-3.7.4-5.6.6-.9.1-1.9.2-2.8.2-.5 0-.9 0-1.4-.1H111.9c-.1-.1-.2-.1-.3-.2l-.2-.2-.2-.2c-.6-.7-1.1-1.4-1.6-2.2-.2-.4-.5-.8-.7-1.1l-.3-.6-.2-.3-.1-.2v-.1l-.1-.1c.4.3.7.6 1.1.8l1.1.8.4.3-.3-.4-1.3-1.8 2.6.1 2.9.1c.9 0 1.9.1 2.9.1l2.9.1h.9l-.8-.4-.3-.2 1.3.1 2.3.1 4.6.2h.1l.1-.1.1-.2 1.9 3.6 1 1.9c.3.5.5 1 .8 1.5-.2-.2-.5-.4-.8-.6zm-20.4-5.6c.5.3 1 .6 1.6.8s1 .6 1.5.9l1.5.9 1.5.9-.3.2c-.2-.6-.4-1.3-.7-1.9l-.1-.4.3.3c.6.4 1.1.8 1.7 1.3-.6-.3-1.2-.7-1.8-1.1l.2-.2c.3.6.5 1.2.8 1.9l.2.6-.5-.3-1.5-.9c-.5-.3-1-.6-1.5-1s-1-.7-1.4-1c-.5-.3-1-.7-1.5-1zm9.6.3c.7.3 1.4.7 2.1 1.1s1.3.8 2 1.2l-.3.2c-.2-.3-.3-.6-.5-.9-.2-.3-.3-.6-.5-.9l-.2-.4.5.2c.5.2 1 .3 1.5.5s.9.4 1.4.6c.5.2.9.5 1.4.8.4.3.9.6 1.2.9-.4-.3-.9-.5-1.3-.8-.5-.2-.9-.4-1.4-.6-.5-.2-.9-.4-1.4-.6-.5-.2-1-.3-1.4-.5l.3-.3c.2.3.3.6.4.9.2.3.3.6.4.9l.3.6-.6-.4c-.7-.4-1.3-.8-1.9-1.3-.7-.3-1.4-.7-2-1.2z" fill="#2c2219" stroke-width="none" opacity="1"></path></g></g></g><g id="svga-group-beardwrap" transform="matrix(1,0,0,1,0,0)"><g id="svga-group-beard-single-move" transform="matrix(1,0,0,1,0,0)"><g id="svga-group-beard-single" transform="matrix(1,0,0,1,0,0)"><path id="SvgjsPath28657" d="M120.08 112.38c-5.17-.93-10.77 1.26-19.09 1.45-4.39.1-10.77-1.19-10.77-1.19-3.18-.8-12.6-3.87-14.22.89-1.69 4.96 1.23 17.32 11.58 25.01 10.34 7.69 21.46 2.98 25.17-.07 3.71-3.05 11.49-14.07 12.16-18.83.51-3.71.34-6.33-4.83-7.26zm-9.71 22.46c-2.27 1.4-7.35 2.69-12.97 1.93-5.62-.76-7.09-1.7-11.74-5.7s-5.95-10.06-5.62-12.22c.32-2.16 1.18-3.64 4.64-3.42s10.26 1.01 14.52 1.17c14.2.55 18.4-1.56 20.34.17 4.9 4.92-6.9 16.67-9.17 18.07z" fill="#433931" stroke-width="none" opacity="0.39"></path><path id="SvgjsPath28658" d="M76.88 124.2s-1.65-3.44-1.78-8.52c-.13-5.09 4.49-6.21 8.72-5.42s11.89 1.45 12.82 1.65c.92.2 3.77.99 3.77.99s1.92-.86 3.37-1.12c1.45-.26 7-.33 9.18-.53 2.18-.2 6.74-.46 8.72-.13s3.96 1.92 3.7 5.42-1.27 5.93-2.46 8.11c0 0 .27-2.14-.25-4.48-.53-2.38-1.47-3.15-2.39-3.33-1.01-.19-5.67 1.28-10.69 1.61-5.02.33-8.79-1.19-8.79-1.19s-2.11.79-4.82.99c-2.71.2-9.84-1.06-11.3-1.39-1.45-.33-4.1-.4-5.62.53-1.52.93-2.18 6.81-2.18 6.81z" fill="#3b3128" stroke-width="none" opacity="1"></path></g></g></g><g id="svga-group-mustache-single-move" transform="matrix(1,0,0,1,0,0)"><g id="svga-group-mustache-single" transform="matrix(1,0,0,1,0,0)"></g></g><g id="svga-group-nose-single-move" transform="matrix(1,0,0,1,0,0)"><g id="svga-group-nose-single" transform="matrix(1,0,0,1,0,0)"><path id="SvgjsPath28863" d="M106.99 100.12c.27 1.2 2.7 10.85 2.14 12.07-.57 1.22-3.14-.83-3.88-1.09-.74-.26-1.74.78-2.4 2.09-.65 1.31-1.49 2.36-2.7 2.35-1.21-.01-2.17-1.13-2.61-1.76-.44-.63-1.47-2.04-2.51-2.32s-1.91.66-2.45.85c-.53.19-1.44.34-1.69-.94s.72-4.55 1.13-5.96 1.47-5.27 1.69-5.77c.22-.5 2.2-2.26 6.27-2.2 4.08.08 6.64 1.05 7.01 2.68z" fill="#73512d" stroke-width="none" opacity="1"></path><path id="SvgjsPath28864" d="M95.35 94.29c-1.16 4.59-2.52 9.11-3.71 13.65-.15.57-.3 1.13-.42 1.7-.06.28-.11.57-.14.84-.01.13-.02.28-.01.38 0 .11.05.27.08.4.14.53.38 1.06.89.99.51-.06 1.03-.38 1.54-.68.27-.16.58-.27.9-.3.32-.03.64.05.93.18.58.26 1.01.7 1.43 1.13.41.44.77.91 1.13 1.39.35.46.74.87 1.22 1.12.48.23 1.02.28 1.49.07.47-.18.88-.55 1.19-.99.3-.42.55-.99.86-1.51.31-.52.63-1.05 1.15-1.52.26-.22.61-.45 1.05-.47.44-.03.82.15 1.11.35l.21.15.16.13c.11.09.22.16.33.24.23.15.46.28.71.39.24.1.49.18.71.21.23.04.4-.01.46-.07.07-.05.13-.2.14-.44.01-.23-.03-.53-.05-.81-.26-2.3-.72-4.63-1.15-6.94-.44-2.32-.92-4.62-1.46-6.93l.09-.03c.84 2.22 1.49 4.5 2.08 6.79.58 2.3 1.1 4.6 1.42 6.99.03.31.06.6.06.96-.01.34-.1.82-.5 1.15-.4.33-.87.34-1.22.29-.36-.05-.68-.17-.98-.31-.3-.14-.57-.31-.83-.48-.13-.09-.26-.18-.38-.29l-.18-.15-.15-.11c-.39-.29-.67-.29-1.07.04-.38.31-.7.79-1.01 1.27-.32.48-.57 1-.97 1.53-.39.51-.92.95-1.57 1.15-.64.22-1.38.1-1.94-.23s-.97-.83-1.3-1.33c-.32-.49-.66-.97-1.04-1.41-.38-.43-.8-.85-1.31-1.08-.5-.26-1.09-.18-1.55.12-.5.3-.99.68-1.65.8-.17.03-.35.01-.53-.04-.17-.07-.34-.18-.44-.32-.23-.27-.35-.57-.45-.86-.04-.16-.1-.28-.12-.46-.04-.19-.03-.34-.03-.5.01-.31.04-.62.08-.91.08-.6.18-1.19.31-1.77.5-2.33 1.2-4.59 1.93-6.84.74-2.25 1.55-4.47 2.45-6.66l.05.03z" fill="#452706" stroke-width="none" opacity="1"></path><path id="SvgjsPath28865" d="M97.23 101.89c.61-.35 1.32-.52 2.03-.57.71-.05 1.43.05 2.12.24.68.23 1.33.52 1.91.93.3.19.56.44.83.66.25.25.49.5.72.77-.3-.19-.57-.4-.86-.59-.3-.17-.58-.37-.88-.53-.3-.16-.59-.33-.91-.44-.3-.15-.63-.24-.94-.35-.64-.19-1.31-.3-1.98-.33-.68-.02-1.36.03-2.04.21z" fill="#452706" stroke-width="none" opacity="1"></path><path id="SvgjsPath28866" d="M105.5 105.35c-1.37-2.06-5.16-2.91-7.48-2.63-.76.09-1.37 1.27-.45 1.67 1.16.51 2.34.85 3.54 1.26 1.18.4 2.29 1.13 3.56 1.14.7.01 1.24-.83.83-1.44z" fill="#7b5936" stroke-width="none" opacity="1"></path></g></g><g id="svga-group-hair-front" transform="matrix(1,0,0,1,0,0)"><path id="SvgjsPath28907" d="M170.2 77.8c1.8-1.6 2.9-4.1 3-6.4 0-1.4-.3-2.8-.9-4 .7-1.7.6-3.8-.1-5.6-.6-1.4-1.7-2.5-3.1-2.9.2-1.3.2-2.6-.4-3.8-.1-.3-.3-.6-.5-.9.7-1.6.9-3.4.4-5.2-.3-1-.9-2-1.7-2.7 0-.2 0-.5-.1-.7a5.3 5.3 0 0 0-2.3-3.3c.5-1.8.4-3.8-.5-5.4-.6-1.1-1.5-1.9-2.5-2.5 1.2-2.2 1.3-5.1-.6-7-1.2-1.2-3.1-1.7-4.7-1.4-.1-1.2-.4-2.4-1.2-3.3-1.4-1.8-3.8-2.4-5.9-1.6 0-.1 0-.2-.1-.3-.6-1.9-2.2-3.2-4-3.4.1-1.9-.6-3.8-2.3-4.8-1.3-.8-3.2-.7-4.4.2-.8-.7-1.9-1-2.9-1.1-.2-.9-.5-1.7-1-2.4-1.2-1.7-3.3-2.9-5.4-2.3-1.1.3-1.9 1.1-2.4 2-.6-.2-1.3-.3-1.9-.1-.1 0-.1 0-.2.1-.2-.9-.6-1.7-1.1-2.4-1.4-1.9-4.3-2.9-6.4-1.4-.6.4-1 1-1.3 1.7-.1-.2-.3-.3-.4-.5-1.4-1.3-3.5-1.9-5.4-1.5-.7.1-1.3.5-1.8.9-.2-.1-.5-.2-.8-.2-.8-.2-1.6-.1-2.3.2-.1-.3-.3-.6-.5-.8-1-1.5-2.5-2.5-4.4-2.4-1.8.1-3.4 1.3-3.9 3-.1-.1-.2-.2-.3-.2-1.3-.9-2.9-1-4.3-.3-.4.2-.8.5-1.2.9-.1-.3-.3-.6-.5-.9-.3-.4-.7-.8-1.1-1-.2-.1-.5-.2-.7-.3.7.3.5.2-.4-.2-2.3-.6-4.4.6-5.6 2.6l-.3.6c-.2-.1-.4-.2-.6-.2-1.1-.2-2.2-.1-3.1.3l-.6-.6c-.8-.7-1.7-1.2-2.7-1.5-1.1-.3-2.4.2-3 1.2-.1.3-.2.5-.3.8-.3.3-.5.6-.7.9-.1-.1-.2-.1-.2-.2l.1.1c-.2-.2-.5-.4-.7-.6-1.6-1.3-4-.7-5.1 1l-.1.1c-.3.3-.5.7-.6 1.2-.1.3-.2.8-.2 1.2-1-.6-2.3-.7-3.5-.4-2 .6-3.5 2.1-4.2 4.1 0-.1-.1-.1-.1-.2-.6-.8-1.7-1.2-2.6-.9-.4.1-.8.3-1.1.5-.2.1-.4.3-.5.4l.2-.2c-.2.2-.4.3-.6.5-.1.1-.2.2-.2.3l-.1.1c0 .1-.1.1-.1.2l-.1.1c0 .1 0 .1 0 0-.3.4-.5.7-.6 1.1-.2.5-.2 1-.1 1.5 0 .2 0 .3.1.5-.7.1-1.3.5-1.8 1.1-.1.1-.2.3-.3.4-.1.2-.1.2 0 0 .3-.3.2-.2-.3.4-.1.2-.5.6.1-.1 0 .1-.1.1-.1.2-.2.2-.4.5-.5.7-.1.3-.2.5-.3.8-.1.5-.2.9-.1 1.4 0 .4.2.7.3 1-.3 0-.5.1-.8.1-.1 0-.2.1-.3.1-.5-.5-1.3-.8-2.2-.6-2.5.5-4.4 2.4-4.3 5.1 0 .6.1 1.1.3 1.6-1.6.6-2.8 2.1-2.8 3.8-.1 0-.3 0-.4.1-1.8.6-3.2 2.2-3.7 4-.2.9-.1 1.9.2 3-.2.3-.4.7-.5 1-.3.9-.3 2-.2 3-.3-.1-.7 0-1.1 0-3.4.5-3.1 4.9-1.9 7.2.2.3.4.7.6 1-1.7.6-3.2 2.8-3.1 4.6 0 1.7.8 3 1.8 4.2-1.4.7-2.4 2.1-2.4 3.8 0 .7.2 1.4.5 2.1-.6.9-.9 2-.9 3 0 1.1.6 2.4 1.5 3.3l-.6.3c-1.9 1.2-1.8 3.8-.6 5.5.8 1.1 2 2.2 3.3 2.9-.7.5-1 1.4-1.1 2.3-.9 1-1.1 2.6-.6 3.9.8 2.3 3.5 3.6 5.9 3.4-.5 1.1-.7 2.2-.3 3.4.7 1.9 2.6 2.8 4.5 2.4v.2c-.5-.1-1-.1-1.5.1-1.7.5-2.5 2.5-2.1 4.2.2.7.6 1.4 1.1 1.9.5 1.7 2.4 2.8 4.1 2.8 1.3 0 2.7-.6 3.6-1.6.9.8 2 1.1 3.1.9v.5c0 1.8 1 3.5 2.5 4.4.9.5 2 .7 3 .7.2.3.3.5.5.8.2.2.5.4.8.6.2.1.3.1.5.2.5.4 1.1.7 1.8.7 1.6-.1 2.7-1.4 2.9-2.8 1.4 0 2.7-.5 3.8-1.6.7-.7 1.2-1.5 1.4-2.5.3-1 .3-2 0-3 0-.2-.1-.4-.1-.6-.1-.4-.2-.7-.4-1.1.7-.7 1.1-1.6 1.1-2.6 0-1.7-1.6-3.4-3.2-3.2-.2-.2-.3-.5-.6-.7 1.1-.7 1.9-1.8 2.2-3.3.4-2.2-.4-4.5-1.8-6.2.4-.3.8-.7 1.1-1.2.4-.6.6-1.2.7-1.9 1.7-1.1 2.3-3.8 2.3-5.7-.1-1.5-.6-2.8-1.5-3.9.2-.1.3-.2.5-.4 2-1.8 2.2-4.9.8-7.1l-.3-.3c.4-.3.8-.7 1.1-1.1.8-1.4.5-3.1-.4-4.3-.1-.3-.3-.6-.4-.9.2-.1.3-.2.5-.4 1.3-1.3 1.6-3 1.3-4.7.5 1 1.4 1.7 2.5 2.1 1.9.6 3.8-.1 5.1-1.5.9-1 1.6-2.2 1.9-3.5 1.2 1.4 3.5 1.9 5.1.8 1.4-1 2.2-2.7 2.2-4.4.4 1.1 1.2 2.1 2.6 2 2.2-.2 4.1-1.6 5.1-3.5.2 0 .5 0 .7-.1.3-.1.7-.2.9-.4.7.5 1.5.7 2.3.8.9 0 1.7-.2 2.3-.9h.1c1-.2 1.7-1.1 2-2 0 0 0-.1.1-.2.1.5.2 1 .2 1.4.5 2.4 3.7 2 4.5.1.5 1.2 2 2.1 3.3 1.2.5-.4 1-.8 1.4-1.4.5.7 1.4 1 2.3.8.3.9 1 1.7 1.8 2.2 1.2.7 2.7.5 3.9-.1.5-.2.8-.6 1.1-1 0 .3 0 .7.1 1 .3.7.6 1.2 1 1.8 1.2 1.4 3.2 1 4.5 0 .4-.3.7-.7 1-1.1 1.2.9 2.8 1.3 4.4.9-.2.2-.3.4-.4.7-.7 1.3-.7 2.7 0 4 .8 1.5 2.4 2.3 4 2.4v.1c-.3 1.9.7 3.7 2.4 4.6.1 0 .1 0 .2.1-.5.6-.9 1.3-1.1 2.1-.6 2.4.8 4.8 2.9 6 .1 0 .1.1.2.1-.2.1-.3.2-.4.3-.7.6-1.3 1.6-1.5 2.5-.6 2.2.2 4.7 2.2 5.9.4.3.9.4 1.3.6.1.6.2 1.3.4 1.8.9 2.3 3 3.8 5.3 4-.2 0-.3-.1-.5-.1-1.7-.1-3.3 1.1-4.1 2.6-.8 1.5-.9 3.5 0 5 .4.7.9 1.2 1.6 1.7-.2.5-.2 1-.2 1.5 0 .2.1.4.1.6-.4.3-.8.6-1.1 1.1-.4.5-.8 1.2-.9 1.8-.1.9.1 1.7.4 2.5-1.3.5-2.2 1.6-2.3 3.1-.1.9.3 1.7.8 2.3-.3.4-.5.8-.5 1.4-.1 1.3.8 2.5 2.1 2.8.9.2 1.8.1 2.6-.3 1.4 1.6 3.6 2.1 5.7 1.2 1-.5 2-1.2 2.8-2.2 1 .7 2.6.7 3.5-.5.6-.7.8-1.7.6-2.6.1 0 .1-.1.1-.1.3-.2.5-.5.7-.8.5.2 1 .3 1.5.3 1.9 0 3.6-1.2 4-3.1.1-.8.1-1.5-.1-2.2.2-.1.5-.2.7-.4 2-1.2 3.2-3.3 3.2-5.7.4-.1.8-.2 1.3-.5 1.8-1 2.7-2.9 2.8-4.9 0-.8-.1-1.7-.4-2.6 1.2-.4 2.3-1.1 3-2.2 1.2-1.8 1.3-4.2.2-6-1.1-.6-1.5-1.1-2-1.5z" fill="#3b3128" stroke-width="none" opacity="1"></path><path id="SvgjsPath28908" d="m82.1 45.5-.5-.6-.5.9c-.2.4-.5.9-.7 1.2-.3.3-.5.6-.8.8-.3.2-.7.3-1 .3h-.1l-1.9.3v.1c.1.4 0 1-.3 1.4-.3.5-.8.8-1.3.9-1 .2-2.6-.6-3-2.1-.3.8 0 1.7.6 2.5.6.7 1.5 1.3 2.5 1.2 1.1 0 2-.6 2.7-1.4.2-.3.4-.6.6-1h.4c.8-.1 1.3-.3 1.9-.7.6-.4.9-1 1.2-1.5l.3-.9c1.1.3 2.2-.1 2.7-.9-1.1.4-2.3.1-2.8-.5zm-3.6 2.7zm-10 3.4c.1-1.6-.9-3.1-2.3-3.6 1 .9 1.4 2.3 1.1 3.4-.3 1.1-1.3 1.9-2.2 2l-1.5.2 1 1.2c.5.7.7 1.6.6 2.5-.1.9-.6 1.8-1.3 2.3l-1.2.8 1.2.7c1 .6 1.5 2 1.2 3.2-.3 1.2-1.6 2.4-3.2 2.6 1.6.5 3.6-.3 4.4-2.1.7-1.4.4-3.1-.5-4.4.8-.8 1.2-1.8 1.3-2.9.1-1-.1-2.1-.6-3 1.2-.5 1.9-1.7 2-2.9zm-8.8 19.7c.2-1.3-.1-2.6-.6-3.6-.5-1.1-1.3-1.9-2.3-2.6.6 1 1 1.9 1.3 2.9.2 1 .3 2 0 2.9-.2.8-.9 1.6-1.6 2-.7.5-1.6.7-2.3.4l-.6 1.9c.5.2 1.1.6 1.4 1.1.3.6.5 1.2.4 1.9-.2 1.3-1.6 2.6-3.3 2.6.8.4 1.8.3 2.7 0 .9-.4 1.7-1.1 2-2.1.4-1 .3-2.2-.2-3.1-.1-.1-.1-.2-.2-.3.4-.2.9-.4 1.2-.6 1.1-.9 1.8-2.1 2.1-3.4zM36.5 91.2c-1.1-.2-2.1-.5-3.1-.9-1-.5-1.9-1.1-2.5-1.8-.6-.7-1-1.7-.8-2.3.1-.3.4-.7.6-.9.3-.2.5-.2.8-.2l.6-1.7c-1.2-.6-2.3-1.1-3.3-1.8s-1.8-1.5-2.2-2.5c-.5-1-.6-2-.1-2.9.4-.9 1.4-1.5 2.2-1.4l.4-1.6c-1.4-.4-2.5-1.9-2.5-3.4 0-1.6 1.1-3.2 2.8-3.8-1.8.1-3.5 1.7-3.8 3.8-.2 1.3.3 2.7 1.2 3.8-.1 0-.2.1-.3.1-.7.4-1.3 1-1.7 1.7-.4.7-.6 1.6-.6 2.4 0 .8.2 1.6.5 2.3.6 1.4 1.8 2.5 2.9 3.2.5.4 1.1.7 1.6.9-.4.4-.7 1-.8 1.6-.3 1.6.6 2.8 1.5 3.6.9.8 2 1.3 3.1 1.6 1.2.3 2.4.4 3.5.2zm.8-27c.1.6.3 1.1.7 1.5.3.3.6.6 1 .9-.4.5-.7 1.1-.8 1.7-.3 1.2-.1 2.5.7 3.5.8 1 2 1.5 3.1 1.5s2.2-.4 2.9-1.2c-.9.6-1.9.6-2.8.4-.9-.2-1.7-.8-2.1-1.5-.8-1.4-.1-3.5 1.2-4l4-1.6-4.4-.2c-.5 0-1-.3-1.3-.7-.3-.4-.4-.9-.2-1.4.1-.5.5-.9 1-1.1.1 0 .2-.1.5-.2s.7-.3.9-.7c.2-.4.3-.8.2-1.2 0-.3-.1-.6-.2-.8l-.3-.6c-.1-.2-.2-.3-.2-.5-.1-.3-.3-.7-.3-1-.1-.7-.2-1.4 0-2 .2-.6.7-1.2 1.3-1.5.6-.3 1.5-.4 2.2 0-.5-.6-1.5-.8-2.4-.6-.8.2-1.7.8-2.1 1.7-.5.8-.6 1.8-.5 2.7 0 .5.1.9.3 1.3.1.2.1.4.2.6.1.2.1.3.2.5 0 .1.1.2.1.3-.1 0-.3.1-.6.2-1 .4-1.8 1.3-2.2 2.3-.1.5-.2 1.1-.1 1.7zM107.5 46c-.3.7-.9 1.1-1.5 1.2-.3 0-.7 0-.9-.1-.2-.1-.3-.1-.4-.2-.1 0-.1-.1-.2-.1 0 0-.1 0-.1-.1l-.1-.1c-.3-.3-.8-.4-1.3-.2-.2.1-.3.1-.4.2-.3.1-.6.1-.9 0-.6-.1-1.2-.5-1.5-.9l-.4-.4c-.2-.2-.4-.2-.7-.3-.3 0-.6 0-.8.1-.2-.1-.3-.1-.4 0l-.1.1c-.2.1-.4.2-.7.3s-.5 0-.7-.1c-.2-.1-.5-.2-.7-.5-.2-.2-.4-.4-.7-.8-.4-.4-1-.6-1.5-.5-.3 0-.5.2-.8.4l-.3.3c0 .1-.1.1-.1.2v.1c-.2.5-.6 1-1.2 1.2-.5.2-1 .2-1.4 0s-.8-.8-.9-1.4c-.1-.3-.1-.6 0-.9 0-.1.1-.3.1-.4 0 0 .1-.1.1-.2s.1-.2.1-.3c0-.2 0-.5-.1-.7-.1-.2-.3-.4-.5-.5-.1 0-.1-.1-.1-.1h-.1l-.1-.1c-.2-.1-.3-.2-.5-.2l-.9-.6c-.6-.4-1-1-1.2-1.7-.2-.7-.2-1.4.2-2 .4-.6 1.1-1.1 1.9-1-.8-.3-1.8 0-2.4.6-.7.7-.8 1.7-.7 2.6.2.9.7 1.8 1.3 2.4.3.3.7.6 1 .8l.6.3c-.1.2-.2.4-.3.7-.1.5-.2 1-.1 1.5.2 1 .7 2 1.6 2.7.9.7 2.3.7 3.2.3.8-.3 1.5-.9 1.9-1.7.2.2.3.4.5.5.4.3.8.6 1.4.8.6.2 1.1.2 1.7.1.5-.1 1-.3 1.4-.7.7.7 1.6 1.2 2.5 1.2.5 0 1 0 1.5-.2l.6-.3c.1 0 .1.1.2.1.1.1.2.2.3.2.2.1.5.2.7.3.5.1 1 .1 1.5 0 1-.2 1.7-1.1 1.9-2 .2-.9-.1-1.8-.7-2.4.5.9.5 1.8.2 2.5zm-19.9-3.5c0 .1 0 0 0 0zm11.1 4c-.1-.1-.1-.1 0 0zm4.7.9zm15.7-.6c.9-.1 1.8-.7 1.9-1.5-.6.6-1.3.7-1.9.6-.7-.1-1.2-.5-1.5-.9-.7-1-.8-2.3-.6-3.7l.4-2-1.8 1c-.5.3-1.1.4-1.7.3-.6 0-1.2-.3-1.7-.7-.5-.4-.8-1-1-1.8-.2-.7-.1-1.5.2-2.3-.7.5-1.1 1.4-1.2 2.3-.1.9.2 1.9.8 2.8.6.8 1.6 1.3 2.6 1.6.5.1 1 .1 1.5 0 0 .4.1.7.2 1.1.2.9.6 1.8 1.4 2.4.5.8 1.5 1 2.4.8zm14.2 5.7c.6.1 1.3.1 1.9 0 .6-.2 1.2-.5 1.6-1-1.1.5-2.2.4-3.2 0s-1.7-1.2-1.9-2l-.4-1.5-1.1 1.2c-.8.9-2.1 1.2-3.1 1.1-1.1-.2-2.1-1-2.6-2l-1.3-3-.4 3.2c-.1.5-.4.9-.8 1.3-.4.3-1 .5-1.5.5-1.1 0-2.3-1-2.5-2.5-.4 1.4.5 3.3 2.3 3.8.9.2 1.8 0 2.6-.4.3-.2.5-.4.7-.6.8 1 1.9 1.7 3.2 1.9 1.5.2 2.9-.2 4-1.2.7.5 1.6 1 2.5 1.2zm6.8 25.1c-1.1.6-2.4.6-3.2 0-.9-.6-1.3-1.6-1.2-2.5.1-1 .7-1.9 1.3-3.1.3-.6.5-1.3.5-2.1 0-.7-.1-1.6-.7-2.3l-.2-.3-.4-.1c-.9-.2-1.8-1.1-1.7-2 0-.2.1-.5.1-.7.1-.1.1-.2.2-.3.2-.2.3-.5.3-.8.1-.6 0-1.3-.5-1.8-.1-.1-.2-.2-.4-.3l-.2-.1c-.1-.1-.2-.2-.4-.2-.9-.7-1.6-1.9-1.4-3.1.1-1.2.9-2.5 2.2-3.2-1.5.2-2.8 1.4-3.2 3-.2.8-.2 1.7 0 2.5s.7 1.5 1.4 2.1c.2.2.3.3.5.4.1 0 .2.2.2.2v.2c0 .1 0 .1-.1.2-.1.2-.2.4-.4.6-.2.4-.3.9-.4 1.4-.1 1.8 1.1 3.4 2.8 3.9.3.5.2 1.4-.1 2.3-.4 1-1 2.2-1 3.7s1 2.9 2.3 3.4c1.4.3 2.9-.1 3.7-1zm6.2 7c.1.2.3.4.4.6.6.7 1.4 1.2 2.3 1.6.6.2 1.2.3 1.8.2.3 1.2 1 2.2 2 2.8 1.3.7 2.9.7 3.9-.1-1.3.3-2.5-.1-3.3-.8-.8-.7-1.2-1.8-1-2.8l.2-1.1-1.2.2c-1.1.2-2.4-.4-3.1-1.3-.1-.1-.2-.2-.2-.4 0-.1-.1-.1-.1-.2l-.2-.3c-.2-.4-.7-.7-1.2-.8-.5-.1-.9.1-1.3.3l-.2.2c0 .1-.1.1-.2.1-.1.1-.2.2-.4.2-.2.1-.5.2-.8.3-1.1.2-2.3-.3-2.6-1.5-.4-1.2 0-2.8 1.3-3.7-.8.1-1.5.7-1.9 1.4-.4.7-.7 1.6-.6 2.5.1.9.6 1.8 1.4 2.4.8.6 1.8.8 2.8.7.5-.1.9-.2 1.4-.4.2-.1.4-.2.6-.4l.2-.2c-.1.4 0 .5 0 .5zm.2-.4zm-.5-.1zm15.5 13.7c-.3.6-.8 1-1.4 1.4-1.1.7-2.6 1-4 2-.6.5-1.1 1-1.7 1.3-.5.3-1 .5-1.3.4-.4 0-.9-.4-1.1-.7-.3-.4-.4-.8-.3-1.2l.2-1-1-.2c-1.5-.2-2.9-1.6-3.2-3.2-.3-1.6.5-3.6 2.1-4.7-2 .4-3.6 2.5-3.5 4.8.1 1.2.5 2.3 1.3 3.2.6.7 1.3 1.2 2.1 1.6 0 .7.3 1.4.7 2 .6.8 1.4 1.4 2.5 1.5 1.1.1 2.1-.3 2.7-.9.7-.5 1.1-1.1 1.6-1.5.9-.9 2.3-1.4 3.5-2.5.6-.5 1.1-1.2 1.3-2 .2-.8.2-1.7-.4-2.2.4.6.3 1.3-.1 1.9zM28.6 60.1c.9.7 1.9 1.2 2.9 1.5-.9-.6-1.7-1.3-2.4-2.1s-1.1-1.7-1.2-2.6c-.1-.9.1-1.8.7-2.4.5-.6 1.4-.9 2-.6l3.7 1.4-2.7-3c-.6-.6-1-1.3-1.3-2-.3-.7-.3-1.4-.2-2.1.2-.7.6-1.2 1.1-1.4.5-.2 1.2-.2 1.6.1l2 1.9-.6-2.7c-.2-.8-.4-1.6-.5-2.4 0-.8 0-1.5.3-2.2.3-.7.8-1.3 1.6-1.4.7-.2 1.7 0 2.2.7-.3-.9-1.3-1.4-2.2-1.4-1 0-2 .7-2.5 1.5-.6.8-.8 1.8-.8 2.8v1.1c-.6-.1-1.3 0-1.9.2-1.2.4-2 1.6-2.3 2.7-.3 1.1-.2 2.3.3 3.3.2.4.4.8.6 1.1-.7.3-1.3.7-1.7 1.2-.9 1.1-1 2.6-.7 3.7.3 1.4 1.1 2.4 2 3.1zm19-20.8c.8.8 1.6 1.3 2.5 1.9-.7-.8-1.4-1.5-1.9-2.4-.5-.8-.9-1.7-.9-2.6 0-.9.2-1.7.8-2.1.6-.5 1.4-.5 1.8-.2l4.4 3.5-3-4.8c-.8-1.2-1.2-2.6-.8-3.7.1-.5.6-.9 1-1.1.5-.2 1-.2 1.3 0l1.7 1.3-.2-2c-.1-.5.1-1.1.4-1.6.3-.5.8-.9 1.4-1.1 1.2-.4 2.8.1 3.6 1.4-.2-.8-.7-1.4-1.3-1.9-.7-.5-1.5-.7-2.5-.6-.9.1-1.7.6-2.3 1.3-.3.4-.6.8-.7 1.3-.1 0-.3-.1-.4-.1-.6 0-1.1 0-1.6.2-1 .4-1.8 1.2-2.2 2.2-.3 1-.3 2 0 2.9.1.3.2.5.3.8-.7.2-1.2.5-1.7.9s-.8 1.1-1 1.7c-.2.6-.2 1.2 0 1.8-.1 1.2.5 2.2 1.3 3zm-6.3-4.4c-.4-.8-.5-1.6-.5-2.3 0-.7.2-1.3.5-1.8s.8-.9 1.4-1.2c.6-.3 1.4-.5 2.3-.5-.5-.8-1.6-1.2-2.7-1.1-1 .1-2.1.6-2.7 1.6-.6 1-.8 2.1-.4 3.1.4 1.1 1.2 2 2.1 2.2zm23.5-15.6c-.1-1-.2-2-.1-3 .1-.9.4-1.8.9-2.4.5-.6 1.2-.9 1.8-.7.6.2 1.1.7 1 1.1l1.9.4c.4-1 .9-2 1.5-2.8.7-.8 1.4-1.4 2.4-1.8.9-.3 2-.4 2.9.1.9.5 1.7 1.4 1.8 2.6.4-1.2-.2-2.6-1.2-3.5-.5-.4-1.2-.8-1.9-.9s-1.4-.1-2.1 0c-1.3.3-2.6 1.1-3.4 2.1-.4.5-.8 1-1.1 1.5-.5-.4-1-.6-1.6-.7-.7-.1-1.4 0-2 .4-.6.3-1 .8-1.3 1.3-.6 1-.8 2.2-.6 3.3.3 1.1.7 2.1 1.1 3zM90 18.2c.2-.7.5-1.3 1-1.7.5-.4 1.1-.4 1.3-.2.2.1.3.3.3.5-.1.2-.1.4-.2.6l-1.1 4.5 2.8-3.7c.2-.2.3-.5.3-.8.7-1.8 2.2-3.2 4-3.1 1 0 2 .4 2.6 1.2.6.8 1 2 .5 3.2.9-.9 1-2.5.4-3.7-.6-1.3-2-2.2-3.4-2.3-.7-.1-1.4 0-2.2.2-.7.2-1.3.6-1.9 1.1-.4.4-.8.8-1.1 1.2-.1-.1-.2-.1-.3-.2-.5-.3-1.3-.4-1.8-.2-.6.2-1 .5-1.3.8-.7.7-1 1.7-.9 2.6 0 .9.3 1.7.6 2.5.2-.9.2-1.7.4-2.5zM71 32.8c-.4-.7-.5-1.3-.4-1.9.1-.6.4-1 .8-1.2.3-.1.6-.1 1 0 .3.1.7.3.9.8.2-.5.1-1.1-.3-1.6-.4-.4-1-.7-1.6-.8-.7-.1-1.4.3-1.9.7-.5.5-.8 1.1-.8 1.7-.2 1.2.3 2.5 1.2 3.2.8.7 1.9 1.1 2.9 1-.8-.5-1.4-1.2-1.8-1.9zM59.1 98.3c.5-.2 1-.4 1.4-.7.8-.6 1.4-1.4 1.8-2.3.7-1.8.2-3.9-1.1-5.1.9 1.5.9 3.3.1 4.6-.4.7-.9 1.2-1.6 1.5-.6.4-1.4.5-2 .5h-1.8l1.1 1.4c.8 1 .8 2.5.2 3.5-.6 1-2 1.7-3.2 1.5l-.8-.1-.2.8c-.2.8-.8 1.6-1.7 2.1-.8.5-1.8.7-2.7.5-1.7-.3-3.3-2.1-3.3-4.2.3-.3.6-.7.8-1.1 1.7-.1 3.2-1.2 3.7-2.8.5-1.5 0-3.1-1-4 .5-.4 1-.9 1.3-1.5.4-.6.6-1.4.7-2.1.2 0 .4.1.6.1 1 0 2-.4 2.6-1.2.6-.8.7-1.8.4-2.7-.2-.8-.9-1.5-1.7-1.7.6.5.9 1.2.9 1.9s-.2 1.3-.6 1.6c-.4.3-1 .5-1.5.4-.5-.1-1-.4-1.2-.7l-1.7.9c.3.8.2 1.8-.2 2.6-.5.8-1.2 1.5-2.1 1.6-.9.2-1.9-.2-2.7-.9-.8-.7-1.4-1.7-1.4-3-.5 1.1-.3 2.6.5 3.7s2.1 1.9 3.7 1.9c.8-.1 1.5-.3 2.1-.8.7 1.1.8 2.5.2 3.4-.6 1.2-2 1.8-3.2 1.5l-.6-.1-.3.7c-.3.7-.9 1.2-1.6 1.4-.7.2-1.5.2-2.1-.1-.3-.2-.4-.3-.5-.6s-.2-.6-.2-1.1c0-.8.2-1.7.4-2.8l.4-2.5-1.6 1.7c-.7.6-1.5 1.2-2.2 1.5-.8.4-1.4.4-2-.1-1.2-1-1.3-3.5.3-4.7-1 .3-1.7 1.3-1.9 2.3-.3 1.1-.1 2.3.7 3.2.4.5 1 .8 1.7.9.7.1 1.3 0 1.8-.2.3-.1.6-.2.8-.3 0 .3-.1.6-.1.9 0 .6 0 1.2.3 1.9s.8 1.2 1.4 1.6c1.2.6 2.5.6 3.7.2.5-.2.9-.4 1.3-.8-.2.9-.1 2 .4 2.9.5 1.1 1.5 2.1 2.8 2.5 1.3.4 2.7.3 3.9-.3 1-.5 1.8-1.3 2.4-2.3 1.8 0 3.5-.9 4.4-2.5.6-1.4.7-3 0-4.4zm4.1-24.8c-.6-.3-1.3-.3-1.8 0 .6.1.9.4 1.2.8.3.3.4.8.5 1.1.2.8 0 1.7-.2 2.6-.2 1-.3 2-.6 2.8-.1.4-.3.8-.6 1.1-.3.3-.7.6-1.2.7.5.3 1.2.3 1.8.1.6-.2 1.1-.7 1.5-1.2.4-.5.6-1.1.8-1.6.2-.6.3-1 .4-1.6.2-1.1.3-2.4-.3-3.6-.4-.4-.9-.9-1.5-1.2zm78.4 25.7c1.2 1.6 3.5 2 4.9 1-1.6.1-3.1-.8-3.6-1.8-.2-.6-.4-1.2-.3-1.8.1-.6.3-1.2.7-1.6l1.6-1.7h-2.3c-.5 0-1.1-.2-1.5-.6-.5-.4-.8-.9-1-1.4-.3-1.2.3-2.7 1.7-3.5-.8 0-1.7.4-2.3 1.1-.6.7-1 1.6-1 2.6s.5 2 1.2 2.7c.4.3.8.6 1.2.8-.2.5-.3 1-.3 1.4.1.9.4 2 1 2.8zM167 73c1.8 1.1 2.5 3.2 2.2 4.8-.2.8-.6 1.6-1.3 2.1-.6.6-1.4.9-2.2 1l-1.7.2 1.1 1.4c.5.7.8 1.4.9 2.3.1.8 0 1.7-.2 2.5-.6 1.6-2.1 3-4.1 3.6 2.1.3 4.4-.9 5.5-2.9.6-1 .8-2.2.7-3.4-.1-.7-.2-1.4-.5-2.1.7-.3 1.4-.7 1.9-1.3.8-.9 1.4-2 1.5-3.3.1-1.2-.3-2.4-1-3.3-.8-.8-1.8-1.4-2.8-1.6zm-9.3-8.3-1.5.2.7 1.3c.3.6.5 1.2.4 1.9 0 .7-.2 1.3-.6 1.9-.4.6-1 1.1-1.7 1.4-.7.3-1.5.5-2.4.4.7.5 1.7.7 2.7.5.9-.1 1.9-.6 2.6-1.3.7-.8 1.1-1.8 1.3-2.8.1-.6 0-1.3-.2-1.9.6-.2 1.1-.6 1.5-1 .7-.7 1.2-1.6 1.4-2.6.3-2-.8-3.9-2.4-4.5 1.1 1.3 1.4 2.9.9 4.1-.3 1.3-1.5 2.2-2.7 2.4zM81.5 14.6c.4-.7.9-1.3 1.6-1.6.6-.3 1.4-.4 2.2-.4.8.1 1.7.4 2.5 1.1-.1-1.1-1-2.1-2.1-2.6s-2.4-.5-3.6.1c-1.1.6-1.9 1.8-2.1 2.9s.1 2.5.9 3.2c-.1-1.1.2-1.9.6-2.7zm38.5-4.4c.6 0 1.1.3 1.5.6l.3.3.2.4c.1.2.2.4.5.6.2.2.8.4 1.2.3.5-.1.7-.3.9-.5.2-.2.3-.3.4-.3.2-.1.4-.2.7-.3.5-.1 1-.1 1.4.1.4.2.8.5 1 1 .2.5.2 1 .1 1.4l-1 3.5 2.4-2.4c.3-.3.8-.3 1.3-.2.5.2 1.1.6 1.4 1.1.6 1.1.5 2.7.2 4.2.4-.6.8-1.4 1-2.2.2-.8.2-1.7-.1-2.5-.3-.9-1-1.6-1.9-2-.4-.2-.9-.3-1.4-.3-.1-1.4-.9-2.7-2.2-3.3-.9-.4-1.9-.4-2.8-.1-.4.1-.9.4-1.3.7l-.4.4-.1-.1c-.1-.1-.2-.3-.4-.5s-.3-.3-.5-.4c-.8-.5-1.7-.7-2.5-.6-1.8.2-2.9 2.1-2.6 3.5.3-1.5 1.6-2.4 2.7-2.4zm3.7.6s-.1 0 0 0zm12 18.4c.5-.8 1.2-1.3 2-1.5.8-.2 1.5 0 1.9.5.4.5.5 1.2.2 1.5l-2.9 3.2 4.1-1.6c.7-.3 1.6-.3 2.4-.1.8.2 1.6.7 2.1 1.3.5.6.9 1.5.9 2.5.1.9-.1 1.9-.6 2.9.9-.6 1.4-1.7 1.6-2.8.2-1.1 0-2.4-.7-3.4-.6-1.1-1.7-1.8-2.9-2.2-.6-.2-1.3-.3-2-.2V29c-.1-.7-.4-1.3-.9-1.8s-1.2-.8-1.8-.9c-.7-.1-1.3 0-1.9.2-1.1.4-2 1.4-2.4 2.5-.4 1-.4 2.1-.2 3.1.2-1.2.5-2.2 1.1-2.9zm15.8 11.3c1 0 1.7.3 2.3.6.6.3 1.1.8 1.5 1.3s.6 1.1.7 1.8c.1.7.1 1.5-.2 2.4.9-.3 1.6-1.3 1.8-2.3.2-1 .1-2.2-.6-3.1-.6-.9-1.7-1.5-2.7-1.7-1.1-.1-2.2.2-2.8 1zm-4.7 17.2c-.5.4-1.1.6-1.8.4-.6-.2-1.3-.8-1.4-1.7-.4.8 0 2 .9 2.6.4.3 1 .5 1.6.5.6 0 1.1-.2 1.6-.4 1-.5 1.7-1.5 2-2.5.2-.7.2-1.3.2-2 .5-.1 1-.4 1.4-.7.7-.6 1.2-1.4 1.4-2.3.1-.9-.2-1.8-.6-2.5-.5-.7-1.2-1.1-2-1.2.6.4 1 1 1.2 1.6.2.6.2 1.2 0 1.7s-.6.9-1 1.2c-.4.3-.9.4-1.4.3l-1.4-.2.3 1.4c.1.7.2 1.5 0 2.1-.2.8-.5 1.3-1 1.7zm15.1-9c.5 0 1 .3 1.3.7.3.4.5.9.5 1.5s0 1.2-.1 1.9l-.2 1.3 1.4-.3c1.3-.2 2.9.5 3.6 1.7.4.6.5 1.4.4 2.2-.1.8-.5 1.7-1.1 2.4.9-.3 1.7-1.1 2.1-2 .4-1 .5-2.1.2-3.2-.6-1.8-2.4-3-4.4-3.1 0-.4-.1-.8-.1-1.2-.1-.8-.6-1.7-1.3-2.3-.6-.6-1.7-.9-2.6-.5-.8.3-1.4 1.2-1.1 1.9.1-.7.8-1 1.4-1zm-12.7-26.6c1.1.9 1.4 2.9.6 4l-.9 1.3 1.6.2c1.3.2 2.6 1 3.4 2.1.4.6.7 1.3.8 2.1.1.8.1 1.6-.1 2.4.6-.7.9-1.5 1-2.4.1-.9 0-1.9-.4-2.8-.6-1.4-1.8-2.5-3.2-3.1.2-.8.3-1.6.1-2.4-.3-1.2-1-2.3-2-2.9-1.1-.6-2.3-.7-3.3-.4-1.1.3-2 1-2.4 2 .8-.6 1.7-.9 2.5-.9.9 0 1.7.3 2.3.8zM98.6 9c.7-.3 1.5-.4 2.2-.3.7.1 1.4.4 2 .8.6.5 1.2 1.1 1.7 2 .4-1 .1-2.2-.6-3.1-.7-.9-1.7-1.6-2.9-1.7-1.2-.2-2.4.3-3.2 1-.8.7-1.4 1.8-1.3 2.8.7-.7 1.4-1.2 2.1-1.5zM59.5 23.8c-.5-.6-.6-1.2-.7-1.8s0-1 .1-1.4.4-.7.8-1.1.9-.7 1.7-.8c-.5-.6-1.5-.8-2.3-.6s-1.7.9-2 1.8c-.4.9-.2 2 .3 2.7.4.8 1.3 1.3 2.1 1.2zm104.2 15.4c.2.4.3 1 .2 1.6-.1.6-.2 1.2-.7 2 .9 0 1.7-.6 2.2-1.5.4-.8.6-1.9.1-2.9-.4-1-1.3-1.6-2.2-1.9-.9-.2-2 0-2.6.6.9.1 1.4.4 1.9.8.6.4.9.8 1.1 1.3zm-18.3 67.3c.8.3 1.6.2 2.2-.2.6-.4 1.1-1.1.9-1.8-.6.3-1.1.3-1.5.3-.4 0-.7-.1-.9-.2s-.5-.2-.8-.5-.6-.6-.8-1.2c-.6.4-.8 1.2-.6 1.9.3.7.8 1.3 1.5 1.7zm27-40.5c-.3-.6-.7-1.1-1.3-1.5-.6-.3-1.3-.5-1.9-.3.4.6.6 1 .8 1.4l.6 1.2c.2.4.3.8.5 1.2.2.4.3.9.5 1.6.6-.3.9-1 1.1-1.6.1-.7 0-1.4-.3-2zm-69.1-35.4c-.1-.6-.2-1.4.3-2.2-1 .1-1.7 1.2-1.9 2.2-.2 1 .2 2.3 1.3 3 1 .7 2.4.7 3.3.2.9-.5 1.7-1.5 1.5-2.5-.6.7-1.3.9-2 1s-1.2-.1-1.6-.3c-.4-.2-.7-.7-.9-1.4zm-64.4 75.8c-.4-.1-.6-.2-.7-.4-.1-.2-.1-.4-.1-.4L38 104h-.6c-.5 0-1-.3-1.5-.8s-.8-1.2-.8-2.1c-.3.3-.5.8-.6 1.3-.1.5 0 1 .2 1.5s.5.9 1 1.3c.2.1.3.2.5.3v.3c0 .5.2.9.5 1.3.6.8 1.6 1 2.3.9.8-.1 1.4-.5 1.8-1 .5-.5.8-1 1-1.6-.6.2-1.1.5-1.6.7-.5.3-.9.4-1.3.3zm16.9 5.8c-.4.3-.8.4-1.2.4-.3-.1-.7-.2-.9-.5-.2-.3-.4-.6-.4-.9v-2l-1.6 1.2c-.6.4-1.4.6-2.2.5s-1.8-.4-2.5-1.2c0 1.1 1 2.2 2.1 2.7.8.3 1.6.4 2.5.2.2.4.4.7.7.9.6.6 1.5.9 2.4.8.9-.1 1.5-.7 1.9-1.4.3-.7.4-1.4 0-2-.1.5-.4 1-.8 1.3zm5.5-9.1c.6.8.9 1.6 1 2.4s.1 1.5-.1 2.1c-.2.6-.6 1.2-1.2 1.8-.6.5-1.3 1-2.2 1.3.9.6 2.1.5 3.1.1s1.9-1.3 2.3-2.5c.4-1.1.2-2.4-.3-3.3-.6-1.1-1.6-1.8-2.6-1.9zm79.1 7.1c-.6-.1-.9-.3-1.2-.7-.2-.4-.3-.7-.1-.9.1-.3.4-.5.6-.5h.2l-.1-1.9h-.5c-.4 0-.9-.3-1.2-.7-.2-.3-.3-.6-.3-1.1 0-.4.1-.9.4-1.3-.5.2-.9.6-1.2 1.1-.3.5-.3 1.2-.2 1.8.1.5.4.9.8 1.3l-.3.6c-.2.5-.2 1.1-.1 1.6s.4.9.8 1.2c.7.7 1.8.9 2.6.6.8-.2 1.4-.8 1.7-1.5-.7.4-1.4.5-1.9.4zm7.1.3c-.4.3-.7.5-1 .6-.3.1-.7.2-.9.2-.1 0-.3 0-.5-.1s-.4-.3-.4-.7c-.3.2-.5.6-.5 1s.3.9.6 1.1c.8.6 1.7.6 2.4.3.8-.3 1.3-.9 1.6-1.7.2-.7.2-1.6-.3-2.1-.3.7-.6 1.1-1 1.4zM112.7 5.9c.6.1 1.1.4 1.6.9s1 1 1.3 1.9c.5-.8.4-1.9-.1-2.8s-1.3-1.6-2.4-1.9-2.2 0-3 .5c-.8.6-1.4 1.4-1.4 2.4.7-.6 1.4-.8 2.1-1 .7-.2 1.3-.1 1.9 0zM98.9 5c.3-.1.6-.1.8-.2.3-.1.5-.2.8-.3.3-.1.6-.3 1.2-.4-.1-.6-.5-.9-1-1.1-.5-.2-1-.2-1.5-.1s-.9.4-1.2.8c-.3.4-.5.9-.3 1.5.5-.1.9-.1 1.2-.2z" fill="#2c2219" stroke-width="none" opacity="1"></path></g><g id="svga-group-glasses-single-move" transform="matrix(1,0,0,1,0,0)"><g id="svga-group-glasses-single" transform="matrix(1,0,0,1,0,0)"></g></g></g></g></g><rect id="svga-credit-rect" width="200" height="15" x="0" y="185" fill="#ecf0f1" opacity="0.5" style="display: none;"></rect><text id="svga-credit-text" font-family="Avenir Next, Roboto, Helvetica, Arial, sans-serif" font-size="10px" text-anchor="start" font-weight="400" size="10px" anchor="start" weight="400" fill="#333333" x="33.43669891357422" y="182.60824704170227" style="display: none;"><tspan id="SvgjsTspan28203" dy="13" x="33.43669891357422">Created on AvatarMaker.com</tspan></text></g></svg>