<svg xmlns="http://www.w3.org/2000/svg" version="1.1" width="600px" height="600px" viewBox="0 0 200 200" style="overflow:hidden!important;"><defs id="SvgjsDefs24142"></defs><g id="svga-group-wrapper"><g id="svga-group-backs-single"><path id="SvgjsPath24826" d="M0 0h200v200H0V0z" fill="#594f4f" stroke-width="none" opacity="1" stroke="none"></path><path id="SvgjsPath24827" d="M165.5 23.7c11.7 0 21.1 9.5 21.1 21.1S177.2 66 165.5 66s-21.1-9.5-21.1-21.1 9.4-21.2 21.1-21.2zm-77.3 86.5c11.7 0 21.1 9.5 21.1 21.1s-9.5 21.1-21.1 21.1-21.1-9.5-21.1-21.1 9.4-21.1 21.1-21.1zm-37.8 48.9c9.1 0 16.6 7.4 16.6 16.6s-7.4 16.6-16.6 16.6-16.6-7.4-16.6-16.6 7.5-16.6 16.6-16.6zm-.3-132.8c9.1 0 16.6 7.4 16.6 16.6s-7.4 16.6-16.6 16.6S33.5 52 33.5 42.8s7.4-16.5 16.6-16.5zm60.3-7.2c2.7 0 4.8 2.2 4.8 4.8s-2.2 4.8-4.8 4.8-4.8-2.2-4.8-4.8 2.1-4.8 4.8-4.8zm-91.5 97.1c2.7 0 4.8 2.2 4.8 4.8s-2.2 4.8-4.8 4.8-4.8-2.2-4.8-4.8 2.1-4.8 4.8-4.8zm120-5.7c4.8 0 8.8 3.9 8.8 8.8s-3.9 8.8-8.8 8.8-8.8-3.9-8.8-8.8 4-8.8 8.8-8.8z" fill="#4a3a3a" stroke-width="none" opacity="1" stroke="none"></path><path id="SvgjsPath24828" d="M101.8 45.4c14.2 0 25.8 11.5 25.8 25.8S116 97 101.8 97 76 85.4 76 71.2s11.5-25.8 25.8-25.8zm21.6 117.7c7.5 0 13.6 6.1 13.6 13.6s-6.1 13.6-13.6 13.6-13.6-6.1-13.6-13.6 6-13.6 13.6-13.6zm-88.6-35.9c7.2 0 13 5.8 13 12.9S42 153 34.8 153s-13-5.8-13-12.9 5.8-12.9 13-12.9zM55 88.8c2.1 0 3.8 1.7 3.8 3.8s-1.7 3.8-3.8 3.8-3.8-1.7-3.8-3.8 1.7-3.8 3.8-3.8zm44.9 78.4c2.1 0 3.8 1.7 3.8 3.8s-1.7 3.8-3.8 3.8-3.8-1.7-3.8-3.8 1.7-3.8 3.8-3.8zm79.9-82.1c2.1 0 3.8 1.7 3.8 3.8s-1.7 3.8-3.8 3.8-3.8-1.7-3.8-3.8 1.7-3.8 3.8-3.8zM66.7 16.5c2.1 0 3.8 1.7 3.8 3.8s-1.7 3.8-3.8 3.8-3.8-1.7-3.8-3.8 1.7-3.8 3.8-3.8zm-46.8-4.3c2.7 0 4.8 2.2 4.8 4.8s-2.2 4.8-4.8 4.8-4.8-2.2-4.8-4.8 2.1-4.8 4.8-4.8zM15.5 180c2.7 0 4.8 2.2 4.8 4.8s-2.2 4.8-4.8 4.8-4.8-2.2-4.8-4.8 2.2-4.8 4.8-4.8zM149.1 77.2c4.7 0 8.4 3.8 8.4 8.4s-3.8 8.4-8.4 8.4-8.4-3.8-8.4-8.4 3.7-8.4 8.4-8.4zM145.8 5c4.7 0 8.4 3.8 8.4 8.4s-3.8 8.4-8.4 8.4-8.4-3.8-8.4-8.4 3.7-8.4 8.4-8.4zM35.3 70.3c4.8 0 8.8 3.9 8.8 8.8s-3.9 8.8-8.8 8.8-8.8-3.9-8.8-8.8 4-8.8 8.8-8.8zm127.8 58.9c14 0 25.3 11.3 25.3 25.3s-11.3 25.3-25.3 25.3-25.3-11.3-25.3-25.3 11.4-25.3 25.3-25.3z" fill="#3a2828" stroke-width="none" opacity="1" stroke="none"></path></g><g id="svga-group-humanwrap-move" transform="matrix(1,0,0,1,0,0)"><g id="svga-group-humanwrap" transform="matrix(1,0,0,1,0,0)"><g id="svga-group-hair-back-move" transform="matrix(1,0,0,1,0,0)"><g id="svga-group-hair-back" transform="matrix(1,0,0,1,0,0)"></g></g><g id="svga-group-humanbody-back"><path id="SvgjsPath24541" d="M180.8 184.9c-2.3-3.4-38.9-17.8-38.9-17.8l-13.4-5.2-5.6-68.8H76.8L71.3 162l-13.4 5.2S21.4 181.6 19 185c-2.3 3.4-3.3 14.9-3.3 14.9V219h168.5v-19.2c-.1.1-1-11.5-3.4-14.9z" fill="#f4baa3" stroke-width="none" opacity="1" stroke="none"></path></g><g id="svga-group-chinshadow-single"><path id="SvgjsPath24784" d="M85.7 157.38c2.95 2.5 14.4 2.34 17.66.34 3.2-1.96 8.57-7.52 22.92-23.62l-3.34-41H76.82l-4.05 50.95c6.27 6.89 11.03 11.73 12.93 13.33z" fill="#d58464" stroke-width="none" opacity="1" stroke="none"></path></g><g id="svga-group-humanbody-front"><path id="SvgjsPath24542" d="M184.5 219c-.1-6.4-.1-12.8-.1-19.2l-.3-.1s.1-.1.2 0c.1 0 .1.1.1.1v-.4l-.1-.5-.1-.9-.2-1.9c-.2-1.3-.4-2.5-.6-3.8-.2-1.3-.5-2.5-.9-3.8-.4-1.2-.8-2.5-1.5-3.6-.8-.9-1.9-1.5-2.9-2.1-1-.6-2.1-1.1-3.2-1.7-2.1-1.1-4.3-2.1-6.5-3.1-4.4-2-8.7-3.9-13.1-5.7-4.4-1.9-8.8-3.7-13.2-5.5l-13-5.2-1.2-16.9c-.4-5.7-.9-11.5-1.3-17.2l-1.3-17.2-1.5-17.3-.1-.8h-.8c-7.7 0-15.4.1-23.1.1l-23.1.2h-.5v.5L75 110.2l-1.3 17.2c-.8 11.4-1.8 22.8-2.8 34.2-5.6 2.1-11.2 4.2-16.7 6.4-5.6 2.2-11.2 4.5-16.8 6.9-2.8 1.2-5.6 2.4-8.3 3.6-2.8 1.3-5.5 2.5-8.2 4.1-.7.4-1.3.8-2 1.4-.2.1-.4.4-.5.6l-.3.6c-.2.4-.4.7-.5 1.1-.6 1.5-1 3-1.3 4.5-.6 3-1.1 6-1.4 9.1l-.1 19.1v.9h.9l42.1.1H100c14 0 28.1-.1 42.1-.2l42.1-.5h.3v-.3zm-84.5-1-42.1-.1-41.2.1-.1-18.1c.3-3 .6-5.9 1.2-8.9.3-1.4.6-2.9 1.1-4.2.1-.3.3-.7.4-.9l.2-.4.3-.3c.5-.4 1.1-.8 1.8-1.2 2.5-1.5 5.3-2.8 8-4.1 2.7-1.3 5.5-2.5 8.2-3.7 5.5-2.4 11.1-4.8 16.7-7.1s11.2-4.5 16.9-6.7l.2-.1v-.2c.9-11.5 1.7-23 2.7-34.4l1.4-17.2 1.5-16.7 22.6.2c7.4.1 14.8.1 22.3.1l1.3 16.4 1.5 17.2c.5 5.7 1 11.5 1.5 17.2l1.6 17.2v.3l.3.1 13.4 5c4.4 1.7 8.9 3.4 13.3 5.2 4.4 1.8 8.8 3.7 13.2 5.6 2.2 1 4.3 2 6.5 3 1.1.5 2.1 1.1 3.2 1.6 1 .6 2.1 1.2 2.9 2 .7 1.1 1.1 2.3 1.4 3.5.3 1.2.6 2.5.8 3.7.2 1.3.4 2.5.6 3.8l.2 1.9.1.9.1.5v.4c0 6.3 0 12.6-.1 18.9l-41.8-.5c-14 .1-28.1 0-42.1 0z" fill="#c66c49" stroke-width="none" opacity="1" stroke="none"></path><path id="SvgjsPath24543" d="M125.1 142.4s-1.8 23-9.1 32.9c0 0 7.9-25 9.1-32.9zm-34.5 16s5 7.9 11.5 10.1c0 0-9.5 2.2-11.5-10.1zM73.4 140c6.7 25.6 6.7 25.6 8.5 30.7 0 0 .4-12.6-8.5-30.7z" fill="#d58464" stroke-width="none" opacity="1" stroke="none"></path></g><g id="svga-group-clothes-single"><path id="SvgjsPath24678" d="m69.9 150.1-1.8.9s-1.4 2.9-2.4 5.1c-1 2.2-4.7 5.9-4.7 5.9s-.6 2.2-.6 2.9c0 0-12.3 4.2-15.9 5.6-3.6 1.4-19.2 6.3-21.3 6.4s-5.1 1.8-5.1 1.8-3 1.7-3.9 4.5c-1 2.8-2.6 34.4-2.6 36.8h175.9s-1.8-32.4-3.5-34.9c-.6-.9-.2-2.6-5.9-5.1s-17-7-20.8-8.5-19.3-7.2-19.3-7.2-.2-2.3-2.3-3.4c-2.1-1.1-5.3-9.8-5.3-9.8l-1.3-1.3s.4 5.1.2 9.6-4.7 11.7-7.9 13.8c-3.2 2.1-9 5.7-11.3 6.6s-2.8 3.4-3.8 5.9-2.6 5.9-2.6 5.9-3.6-4.5-5.3-7.6c-1.7-3.2-4-5.5-8.3-5.1-4.2.4-5.5-.9-7-1.7-1.5-.9-10.6-15.1-11.9-18.7-1.1-3.6-1.3-8.4-1.3-8.4z" fill="#4b2824" stroke-width="none" opacity="1"></path><path id="SvgjsPath24679" d="M188.3 220c-.4-6.9-.8-13.8-1.3-20.7-.3-3.5-.6-6.9-1.1-10.4-.1-.9-.3-1.7-.5-2.6-.1-.5-.2-.9-.5-1.5l-.1-.2-.1-.2-.3-.6c-.5-1-1.2-1.7-1.9-2.3-.8-.6-1.5-1-2.3-1.5-1.6-.9-3.2-1.4-4.8-2.1l-4.8-2-9.6-4c-6.2-2.5-15.8-5.4-21.9-8.3-.1-.6-.4-1.1-.7-1.6-.4-.7-1-1.3-1.7-1.7l-.3-.1c-.1-.1-.2-.1-.2-.1-.1-.1-.1-.1-.2-.1-.2-.2-.3-.3-.5-.6-.4-.4-.7-1-1-1.5-1.2-2.2-2.2-4.6-3.1-6.9l-.1-.2-.1-.1-1.3-1.3-1.9-1.9.2 2.8c.2 2.3.3 4.6.3 6.9v2.6l-.1.8c-.2 1-.5 2.1-.9 3.1-.8 2.1-2 4.1-3.3 5.9-.7.9-1.4 1.8-2.2 2.5-.4.4-.8.7-1.2 1-.4.3-.9.6-1.4.8-4.1 2.1-4.9 3.8-9.2 5.5-.6.2-1.3.6-1.8 1.1-.5.5-.9 1.1-1.2 1.6-.6 1.1-.9 2.3-1.3 3.3l-.9 2.1c-.5 1-.9 2-1.4 3-1.2-1.6-2.5-3.2-3.6-4.9-.3-.5-.6-1-.9-1.6-.3-.6-.7-1.1-1.1-1.7-.8-1.1-1.8-2.1-3-2.7-1.2-.7-2.6-.9-4-.9-.5.1-3.5.1-7.7-1.7-.5-.2-1.5-1.9-2.3-2.9-.7-1-1.5-2.1-2.2-3.1-1.4-2.1-2.8-4.2-4.1-6.4-.7-1.1-1.3-2.2-1.9-3.3-.6-1.1-1.1-2.1-1.4-3.4.1-1.6.4-4.6.5-5.7 0 0 .1-2.2.1-2.4-1.2-.1-3.2 1.1-3.9 1.4l-1.5 3c-.5 1-.9 2-1.5 2.9-.6.9-1.3 1.8-2 2.6s-1.5 1.6-2.3 2.4l-.1.1v.1c-.1.5-.2 1-.4 1.4-.1.4-.2.8-.2 1.3-3.2 1.4-9.4 2.7-12.6 4.1-3.2 1.4-6.6 2.4-10 3.5-3.4 1-6.8 2.1-10.1 3-.9.2-1.7.5-2.5.7l-1.2.3c-.2 0-.3.1-.6.1-.2 0-.5.1-.7.1-.9.2-1.8.5-2.7.8l-1.2.6-.6.3c-.3.1-.4.3-.6.4-1.5 1.1-2.9 2.5-3.6 4.4-.2.5-.3 1-.3 1.4l-.2 1.3-.3 2.7c-.3 3.5-.6 7.1-.8 10.6l-.7 10.6c-.2 3.6-.4 7-.5 10.6v.9h.9l22-.1 22-.2 22-.2 22-.1c7.3-.1 14.7 0 22 0s14.7 0 22 .1l44 .3h.8l-.3-1.2zm-68.2-44.9c.5-.3 1.1-.6 1.6-.9.5-.3 1.1-.7 1.5-1.2.9-.9 1.7-1.8 2.4-2.8 1.4-1.9 2.6-4 3.6-6.3.4-1.1.8-2.3 1-3.6l.1-1v-2.7c0-1 0-2-.1-3 .7 1.7 1.4 3.3 2.3 4.9.3.6.7 1.2 1.1 1.8.2.3.5.6.8.9.1.1.4.3.6.4l.4.2c.4.3.7.6 1 1 .2.4.4 1 .5 1.4l.1.6v.1c.5 2.7 1.1 5.3 1.7 8 .6 2.6 1.4 5.3 2.2 7.9l2.3 7.8 1.1 3.9c.2.8.5 1.7.7 2.5-1.4-.3-2.7-.7-3.9-1.4-.8-.5-1.4-1-2.3-1.7-.8-.6-1.6-1.3-2.5-1.8-1.7-1.2-3.5-2.2-5.4-3l-1.4-.6c-.4-.2-.9-.4-1.3-.6-.8-.5-1.6-1-2.4-1.6-.8-.6-1.5-1.2-2.2-1.9-.3-.4-.7-.7-.9-1.1-.2-.2-.3-.4-.4-.6l-.2-.3-.3-.4c-1.5-1.7-3.6-2.5-5.6-2.8-.3-.1-.7-.1-1-.1 1.8-.6 3.4-1.3 4.9-2zm-12.8 10.4c.9-2.2.5-4.6 6.9-7.5.9-.1 1.4 0 2.3.2 1.8.4 3.5 1.3 4.5 2.7l.2.2.2.3c.1.1.2.3.3.4 0 0-1.8 1.6-5.9 3.2-1.7.5-3.3.9-5 1.4-1.5.3-2.9.7-4.4.9l.9-1.8zm-4.5 6.1c-1.2 1.9-2.5 3.9-4 5.6l-.4.4c-1.7-3.4-5.1-8.9-6.2-10.7.5.1.9.1 1.4.1 1.9.1 3.8.1 5.7-.1 1.2 1.6 2.3 3.2 3.5 4.7zM91 179.5c1.2 0 2.3.2 3.3.8 1 .6 1.8 1.4 2.5 2.4.3.5.7 1 .9 1.6.3.6.6 1.1 1 1.7l.6.9c-1.9-.1-3.8-.3-5.6-.6-2-.3-4-.6-6-1s-6.6-2.2-8.4-2.7c.5-.6 1-1.1 1.5-1.7.6-.8 1.1-1.4 1.8-1.7.7-.3 1.6-.3 2.4-.3.1 0 5.4.6 6 .6zm-29.6-17.3c.8-.8 1.5-1.6 2.2-2.4.7-.9 1.4-1.7 2-2.7.6-1 .9-2 1.4-3l1.3-3c.5-.3 1-.6 1.6-.9v.8l.1.9c.1.6.1 1.3.2 1.9.2 1.3.4 2.5.7 3.8.3 1.2.9 2.4 1.5 3.6.6 1.1 1.2 2.2 1.8 3.4 1.3 2.2 2.6 4.4 3.9 6.5.7 1.1 1.4 2.1 2.1 3.2.8 1.1 1.4 2.1 2.4 3.1.3.3.6.5.9.6 0 0 .1 0 .1.1-.5 0-.9.1-1.4.2-.5.2-.9.5-1.3.8-.4.4-.6.7-.9 1l-1.9 1.9c-1.3 1.3-2.6 2.5-3.9 3.7-1.3 1.2-2.7 2.4-4 3.6-1.3 1.1-2.8 2.1-4.3 3.1-2.5 1.6-5.1 3.1-7.7 4.5.5-5.5 1-11 1.4-16.5l.7-9.1c.2-2 .3-3.9.5-5.9l.2-.1v-.2c0-.4.1-.9.2-1.4 0-.6.1-1.1.2-1.5zm-5.8 57.2-22-.2-21.1-.1c.3-6.7.6-13.5 1-20.2.2-3.5.4-7.1.8-10.6.1-.9.2-1.8.3-2.6l.2-1.3c0-.2.1-.4.1-.6.1-.2.1-.4.1-.6.5-1.4 1.7-2.7 3.1-3.6.2-.1.4-.2.5-.3l.6-.3c.4-.2.8-.4 1.2-.5.8-.3 1.6-.6 2.4-.8.2 0 .4-.1.6-.1l.7-.1c.5-.1.9-.2 1.3-.3.9-.2 1.7-.5 2.6-.7 3.4-1 6.8-2.1 10.1-3.2s6.8-2.2 10-3.7c3.1-1.4 9.2-2.8 12.3-4.2-.3 1.9-.6 3.7-.9 5.6-.5 3-1 6.1-1.3 9.1-.8 6.1-1.4 12.2-2.1 18.3l-.2 1.8 1.6-.8c3.3-1.6 6.4-3.4 9.5-5.4 1.5-1 3-2.1 4.4-3.4 1.3-1.2 2.7-2.5 3.9-3.8 1.3-1.3 2.6-2.6 3.8-3.9l.3-.3c3.6 1.7 4.4 2.8 8.2 3.6 1.2.2 2.4.4 3.5.6l-.1.1c.1.1 4.8 7.7 6.7 11.6-.1.1-.2.2-.2.4-.4.7-.6 1.5-.7 2.2-.1 1.4.1 2.7.2 3.9l.5 3.7.4 3.7c.2 2.4.5 4.9.9 7.3l-21.2-.1-22-.2zm43.3.3c.2-2.5.2-4.9.2-7.4.1-2.5 0-5.1-.3-7.6-.1-1.2-.2-2.5-.1-3.6.1-.5.2-1 .4-1.4.1-.2.3-.4.4-.6l.3-.3.4-.4c.9-1 1.7-2.1 2.4-3.1.7-1.1 1.3-2.2 2-3.3v-.1l.9-2.4.9-2c1.5.1 3.1-.1 4.6-.3.8-.1 1.5-.3 2.2-.4-1.5 2.6-6.5 11.1-7.8 12.9-1.3 1.8-1.1 3.3-.9 5 0 .4.1.8.1 1.3.1 2.1.8 11.5 1 13.6h-6.1l-.6.1zm22.7 0h-14.9c-.2-2-.9-11.6-1-13.7 0-.5-.1-.9-.1-1.3-.2-1.7-.3-2.9.8-4.4 1.5-2.1 6.3-10.5 6.6-10.9l1.6-2.8c1-.4 1.8-.8 3.4-1.5 2.2-1.2 2.8-1.8 3.9-3 0 .1.1.1.1.1.3.4.7.8 1 1.2.7.8 1.4 1.5 2.2 2.2.8.7 1.6 1.3 2.6 1.8.4.3.9.5 1.4.7l1.4.6c1.8.8 3.4 1.8 5 2.9.8.6 1.6 1.1 2.3 1.8.7.6 1.6 1.4 2.5 1.9 1.9 1.1 3.9 1.7 6.1 1.9l1.3.1-.3-1.3c-.3-1.4-.7-2.7-1.1-4l-1.2-3.9-2.5-7.8c-.8-2.6-1.7-5.1-2.5-7.7-.7-2.4-1.4-4.8-2-7.1 2.9 1.4 9.4 2.8 12.3 4.1 1.6.7 3.1 1.4 4.8 2.1l4.8 2 9.6 3.9 4.8 1.9c1.6.7 3.2 1.2 4.7 2 1.4.8 2.9 1.7 3.5 2.9.1.2.1.3.2.6 0 .1.1.2.2.4.1.1.2.3.2.3.1.1.2.6.3 1 .2.8.3 1.6.5 2.5.5 3.4.8 6.8 1.1 10.2.6 6.6 1.1 13.2 1.5 19.9l-43.2.3c-7.2 0-14.6 0-21.9.1zm-9.9-37.7c.8 0 1.5.7 1.5 1.5s-.7 1.5-1.5 1.5-1.5-.7-1.5-1.5.7-1.5 1.5-1.5zm-10.1 18.4c.8 0 1.5.7 1.5 1.5s-.7 1.5-1.5 1.5-1.5-.7-1.5-1.5.7-1.5 1.5-1.5zm-73.8-4.5c-.2-1.2-.5-2.6-.9-3.8-.4-1.2-.9-2.4-1.3-3.6-1-2.3-2-4.6-3.1-6.9l1.2 3.6 1.2 3.6 1.2 3.6c.4 1.2.6 2.4.8 3.6.4 2.5.6 5 .9 7.5l.4 3.8c.2 1.2.3 2.5.5 3.8 0-2.5 0-5.1-.2-7.6-.2-2.6-.4-5.1-.7-7.6zm150.5-9.2c-.5.6-.9 1.3-1.3 1.9-.8 1.3-1.5 2.7-2.2 4.1-1.4 2.8-2.6 5.7-3.6 8.6v.2c-.2 2.5-.3 5-.4 7.6-.1 2.5-.2 5-.2 7.6.4-2.5.7-5 .9-7.5.3-2.5.5-5 .7-7.5 1.1-2.9 2.2-5.7 3.4-8.6.6-1.4 1.2-2.8 1.9-4.2.7-1.4 1.4-2.8 2.5-3.8-.6.4-1.2 1-1.7 1.6z" fill="#2c100c" stroke-width="none" opacity="1"></path><path id="SvgjsPath24680" d="M135.7 164.5c-.1 4.2.8 8.5 1.7 12.6.3 1.3 4.5 13.8 4.4 13.8 0 0-6.8-5.8-8.1-6.6-3.9-2.4-8.2-4.3-12.3-6.2-.3-.1-.5.3-.2.4 7.3 4 15.5 8.1 21.4 14.1.1.1.4 0 .4-.2-3.6-9.2-4.6-18.4-6.7-27.9-.2-.4-.6-.3-.6 0zm43.6 17.9c-5-2.4-10.5-3.8-15.7-5.7-6.6-2.4-16.5-5.3-22.9-8.2-.3-.2-.6.3-.3.5 5.1 3.5 14.5 5.8 20.3 8 5.9 2.2 12.2 4.8 18.4 6.1.3 0 .6-.5.2-.7zm-2.4 2.3c-2.5 2.6-4.7 5.8-5.6 9.2-.1.2.3.4.4.2 1.4-3.4 3-6.4 5.6-9 .1-.3-.2-.6-.4-.4zm6 2.1c0-.4-.6-.4-.6 0 .1 5.9.2 11.8.8 17.6 0 .4.6.4.6 0 .1-5.8-.3-11.8-.8-17.6zm-105-9.3c-6.2 5.9-13 11.3-19.1 17.2-.2.2.1.7.4.5 7.2-4.7 13.5-10.9 19.5-17 .3-.4-.4-1.1-.8-.7z" fill="#5a3834" stroke-width="none" opacity="1"></path></g><g id="svga-group-head" transform="matrix(1,0,0,1,0,0)"><g id="svga-group-ears-left-move" transform="matrix(1,0,0,1,0,0)"><g id="svga-group-ears-left" transform="matrix(1,0,0,1,0,0)"><path id="SvgjsPath24692" d="M69.12 87.77s-3.29-8.06-6.27-11.95c0 0-1.72-1.36-3.37-2.59a2.608 2.608 0 0 0-3.59.45c-1.89 2.35-5.15 6.65-7.88 11.59-.45.82-.63 1.77-.48 2.7.34 2.01 1.03 5.64 1.87 7.11 1.19 2.09 6.12 7.32 9.56 9.11 0 0 3.88.6 6.87-2.09s3.29-14.33 3.29-14.33z" fill="#f4baa3" stroke-width="none" opacity="1" stroke="none"></path><path id="SvgjsPath24693" d="M67.06 88.73c-.08-.25-6.48-8.56-8.98-10.14-2.49-1.58-7.73 6.57-7.98 9.31s2.49 7.9 4.82 9.39c2.33 1.5 7.56 2.08 10.47-2.16 2.91-4.24 1.67-6.4 1.67-6.4z" fill="#e59e82" stroke-width="none" opacity="1" stroke="none"></path><path id="SvgjsPath24694" d="M47.63 85.77c-.18.46-.28.95-.31 1.44-.03.5.07.99.14 1.45.15.94.32 1.89.51 2.83.2.94.42 1.88.74 2.8.31.95.92 1.78 1.5 2.53 1.19 1.52 2.52 2.91 3.92 4.23 1.41 1.31 2.88 2.57 4.63 3.51l.07.04.06.01c1.97.21 3.93-.17 5.65-1.11.84-.48 1.63-1.08 2.2-1.94.55-.83.84-1.75 1.13-2.65.53-1.82.79-3.68.99-5.54.2-1.86.27-3.72.28-5.6-.39-1.08-.81-2.11-1.25-3.16-.43-1.04-.91-2.07-1.39-3.09-.5-1.02-.99-2.04-1.56-3.02-.57-.98-1.16-1.95-1.85-2.88l-.02-.03-.03-.03-2.24-1.76-1.15-.87c-.44-.31-.96-.5-1.5-.54a2.91 2.91 0 0 0-1.56.32c-.47.23-.88.68-1.14 1.05-.58.76-1.15 1.53-1.71 2.31-2.19 3.13-4.31 6.28-6.11 9.7zm.02 1.45c0-.46.09-.92.25-1.35.81-1.68 1.83-3.33 2.87-4.91 1.05-1.59 2.17-3.13 3.35-4.62.59-.75 1.18-1.49 1.79-2.22.54-.75 1.34-1.14 2.19-1.07.42.03.82.19 1.15.43l1.12.87 2.24 1.7c1.33 1.75 2.42 3.72 3.48 5.68.53.99 1.02 2 1.53 3.01.5 1 .99 2.03 1.46 3.04-.12 1.84-.35 3.7-.62 5.53-.28 1.83-.64 3.66-1.19 5.4-.31.85-.62 1.73-1.12 2.44-.47.69-1.22 1.23-1.99 1.66-1.52.84-3.37 1.17-5.08.99-1.58-.89-3.04-2.07-4.42-3.32-1.4-1.27-2.72-2.64-3.92-4.08-.6-.74-1.16-1.45-1.47-2.32-.34-.86-.6-1.78-.83-2.7-.23-.92-.43-1.85-.62-2.78-.07-.48-.18-.93-.17-1.38z" fill="#e59e82" stroke-width="none" opacity="1" stroke="none"></path><path id="SvgjsPath24695" d="M52.04 87.76c.28-.91.7-1.72 1.16-2.52.45-.79.97-1.54 1.51-2.27s1.12-1.43 1.79-2.06c.17-.16.35-.31.57-.42.11-.05.25-.11.43-.05.16.08.19.19.28.28.25.39.47.78.67 1.19.82 1.61 1.6 3.24 2.26 4.93.33.84.62 1.7.85 2.59.12.44.22.89.3 1.34.06.45.15.96.03 1.45-.21.97-.78 1.74-1.34 2.45-.58.7-1.24 1.33-1.96 1.89l-.05-.06c.61-.66 1.18-1.35 1.68-2.08.5-.72.93-1.52 1.08-2.32.12-.77-.17-1.66-.41-2.5-.26-.85-.52-1.7-.8-2.55-.55-1.7-1.12-3.41-1.88-5.03-.19-.4-.4-.8-.64-1.16-.06-.06-.14-.18-.19-.19-.04-.02-.13 0-.21.05-.17.09-.34.24-.5.39-.63.61-1.13 1.37-1.62 2.11-.93 1.51-1.82 3.1-2.31 4.74-.05.2-.1.41-.11.6-.01.1-.01.18 0 .26.01.09.03.21.05.31.08.42.19.84.33 1.25.28.82.64 1.62 1.07 2.37.11.19.22.37.34.55.06.09.12.17.18.26.06.08.15.17.12.14-.03.01.11.01.27-.06.16-.09.34-.18.5-.31.67-.51 1.29-1.17 1.81-1.85.06-.09.13-.17.18-.26l.08-.13.03-.09c.04-.15.03-.36 0-.56-.06-.42-.18-.84-.32-1.26-.28-.84-.62-1.68-.99-2.5l.07-.04c.48.77.92 1.56 1.29 2.39.18.42.35.85.46 1.31.05.23.09.48.05.78-.02.08-.04.16-.07.24-.03.06-.06.11-.09.16-.06.11-.13.2-.19.3-.53.77-1.12 1.47-1.85 2.09-.18.15-.39.3-.62.43-.24.1-.58.27-1.02.05-.23-.15-.27-.24-.36-.33-.07-.1-.15-.19-.22-.29-.14-.19-.26-.39-.39-.59-.47-.81-.86-1.65-1.13-2.54-.13-.45-.24-.9-.31-1.37-.01-.12-.03-.23-.04-.36-.01-.14-.01-.28.01-.41.04-.27.1-.51.17-.74z" fill="#c66c49" stroke-width="none" opacity="1" stroke="none"></path></g></g><g id="svga-group-ears-right-move" transform="matrix(1,0,0,1,0,0)"><g id="svga-group-ears-right" transform="matrix(1,0,0,1,0,0)"><path id="SvgjsPath24696" d="M130.88 87.77s3.29-8.06 6.27-11.95c0 0 1.72-1.36 3.37-2.59 1.12-.84 2.71-.64 3.59.45 1.89 2.35 5.15 6.65 7.88 11.59.45.82.63 1.77.48 2.7-.34 2.01-1.03 5.64-1.87 7.11-1.19 2.09-6.12 7.32-9.56 9.11 0 0-3.88.6-6.87-2.09-2.99-2.68-3.29-14.33-3.29-14.33z" fill="#f4baa3" stroke-width="none" opacity="1" stroke="none"></path><path id="SvgjsPath24697" d="M132.94 88.73c.08-.25 6.48-8.56 8.98-10.14 2.49-1.58 7.73 6.57 7.98 9.31s-2.49 7.9-4.82 9.39c-2.33 1.5-7.56 2.08-10.47-2.16-2.91-4.24-1.67-6.4-1.67-6.4z" fill="#e59e82" stroke-width="none" opacity="1" stroke="none"></path><path id="SvgjsPath24698" d="M146.25 76.06c-.56-.78-1.12-1.55-1.71-2.31-.26-.37-.66-.82-1.14-1.05a2.91 2.91 0 0 0-1.56-.32c-.54.04-1.06.23-1.5.54l-1.15.87-2.26 1.77-.03.03-.02.03c-.69.92-1.28 1.89-1.85 2.88-.57.98-1.06 2-1.56 3.02-.49 1.02-.96 2.05-1.39 3.09-.43 1.05-.86 2.08-1.25 3.16.01 1.88.08 3.73.28 5.6.2 1.86.46 3.72.99 5.54.3.9.58 1.82 1.13 2.65.57.86 1.36 1.46 2.2 1.94 1.72.95 3.68 1.32 5.65 1.11l.06-.01.07-.04c1.75-.94 3.22-2.2 4.63-3.51 1.4-1.32 2.73-2.71 3.92-4.23.58-.75 1.19-1.58 1.5-2.53.33-.92.54-1.86.74-2.8.2-.94.36-1.88.51-2.83.07-.46.17-.95.14-1.45-.02-.5-.13-.98-.31-1.44-1.77-3.42-3.89-6.57-6.09-9.71zm5.91 12.54c-.18.93-.38 1.86-.62 2.78-.23.92-.49 1.83-.83 2.7-.31.87-.87 1.58-1.47 2.32a41.929 41.929 0 0 1-3.92 4.08c-1.38 1.25-2.84 2.43-4.42 3.32-1.71.18-3.55-.15-5.08-.99-.77-.43-1.52-.96-1.99-1.66-.5-.71-.81-1.59-1.12-2.44-.55-1.74-.91-3.57-1.19-5.4-.26-1.83-.49-3.69-.62-5.53.47-1 .96-2.03 1.46-3.04.51-1 1-2.02 1.53-3.01 1.06-1.96 2.15-3.92 3.48-5.68l2.24-1.7 1.12-.87c.33-.25.73-.4 1.15-.43.85-.07 1.65.32 2.19 1.07.61.73 1.21 1.47 1.79 2.22 1.18 1.49 2.3 3.03 3.35 4.62 1.04 1.58 2.06 3.23 2.87 4.91.16.43.25.89.25 1.35.03.45-.08.9-.17 1.38z" fill="#e59e82" stroke-width="none" opacity="1" stroke="none"></path><path id="SvgjsPath24699" d="M147.96 87.76c-.28-.91-.7-1.72-1.16-2.52-.45-.79-.97-1.54-1.51-2.27s-1.12-1.43-1.79-2.06c-.17-.16-.35-.31-.57-.42-.11-.05-.25-.11-.43-.05-.16.08-.19.19-.28.28-.25.39-.47.78-.67 1.19-.82 1.61-1.6 3.24-2.26 4.93-.33.84-.62 1.7-.85 2.59-.12.44-.22.89-.3 1.34-.06.45-.15.96-.03 1.45.21.97.78 1.74 1.34 2.45.58.7 1.24 1.33 1.96 1.89l.05-.06c-.61-.66-1.18-1.35-1.68-2.08-.5-.72-.93-1.52-1.08-2.32-.12-.77.17-1.66.41-2.5.26-.85.52-1.7.8-2.55.55-1.7 1.12-3.41 1.88-5.03.19-.4.4-.8.64-1.16.06-.06.14-.18.19-.19.04-.02.13 0 .21.05.17.09.34.24.5.39.63.61 1.13 1.37 1.62 2.11.93 1.51 1.82 3.1 2.31 4.74.05.2.1.41.11.6.01.1.01.18 0 .26-.01.09-.03.21-.05.31-.08.42-.19.84-.33 1.25-.28.82-.64 1.62-1.07 2.37-.11.19-.22.37-.34.55-.06.09-.12.17-.18.26-.06.08-.15.17-.12.14.03.01-.11.01-.27-.06-.16-.09-.34-.18-.5-.31-.67-.51-1.29-1.17-1.81-1.85-.06-.09-.13-.17-.18-.26l-.08-.13-.03-.09c-.04-.15-.03-.36 0-.56.06-.42.18-.84.32-1.26.28-.84.62-1.68.99-2.5l-.07-.04c-.48.77-.92 1.56-1.29 2.39-.18.42-.35.85-.46 1.31-.05.23-.09.48-.05.78.02.08.04.16.07.24.03.06.06.11.09.16.06.11.13.2.19.3.53.77 1.12 1.47 1.85 2.09.18.15.39.3.62.43.24.1.58.27 1.02.05.23-.15.27-.24.36-.33.07-.1.15-.19.22-.29.14-.19.26-.39.39-.59.47-.81.86-1.65 1.13-2.54.13-.45.24-.9.31-1.37.01-.12.03-.23.04-.36.01-.14.01-.28-.01-.41-.04-.27-.1-.51-.17-.74z" fill="#c66c49" stroke-width="none" opacity="1" stroke="none"></path></g></g><g id="svga-group-faceshape-wrap" transform="matrix(1,0,0,1,0,0)"><g id="svga-group-faceshape-single"><path id="SvgjsPath24774" d="M140.4 54.9c-2.2-10-6.3-16-15.2-20.8-9.3-5-25.2-4.8-25.2-4.8s-15.9-.2-25.2 4.8c-8.8 4.8-13 10.8-15.2 20.8-.9 4 0 13.6 0 13.6s1.6 12.3 1.7 18.2c.2 5.8 1.4 18 2.2 25.1.98 7.08 1.46 7.68 1.46 7.68 12.25 14.4 22.69 25.32 25.74 27.9 2.95 2.5 14.4 2.34 17.66.34 3.46-2.12 9.44-8.42 26.53-27.68 0 0 .27-1.05 1.07-8.15s2.13-16.31 2.54-25.19c.2-5.8 1.7-18.2 1.7-18.2.1-.1 1.1-9.6.2-13.6z" fill="#f4baa3" stroke-width="none" opacity="1" stroke="none"></path><path id="SvgjsPath24775" d="M140.4 54.9c-2.2-10-6.3-16-15.2-20.8-9.3-5-25.2-4.8-25.2-4.8s-15.9-.2-25.2 4.8c-8.8 4.8-13 10.8-15.2 20.8-.9 4 0 13.6 0 13.6s1.6 12.3 1.7 18.2c.2 5.8 1.4 18 2.2 25.1.98 7.08 1.46 7.68 1.46 7.68 12.25 14.4 22.69 25.32 25.74 27.9 2.95 2.5 14.4 2.34 17.66.34 3.46-2.12 9.44-8.42 26.53-27.68 0 0 .27-1.05 1.07-8.15s2.13-16.31 2.54-25.19c.2-5.8 1.7-18.2 1.7-18.2.1-.1 1.1-9.6.2-13.6zm-.03 10.19-.33 3.24-.06.13c-.55 4.29-1.13 8.57-1.59 12.87-.24 2.14-.41 4.33-.56 6.47-.17 2.14-.39 4.28-.63 6.42-.49 4.28-1.14 8.54-1.72 12.82-.3 2.13-.6 4.3-.86 6.43l-.43 3.2-.23 1.59-.13.78-.08.41-10.86 12.02c-3.72 4.04-7.41 8.17-11.32 11.92-.98.92-1.98 1.83-3 2.6-.25.2-.51.36-.77.54-.14.1-.57.32-.71.37-.53.22-1.14.39-1.76.52-2.52.53-5.25.65-7.89.51-1.32-.09-2.64-.24-3.86-.56-.6-.16-1.19-.36-1.66-.61-.1-.07-.51-.34-.64-.46-.25-.21-.49-.43-.74-.66-1.98-1.83-3.9-3.82-5.82-5.78-3.83-3.94-7.58-7.98-11.27-12.06l-5.53-6.13-1.36-1.54-.68-.77-.17-.19s-.17-.3-.2-.42c-.36-1.24-.61-2.62-.85-3.96-.5-2.7-.79-5.41-1.12-8.16-.31-2.74-.65-5.47-.9-8.22-.26-2.74-.51-5.49-.7-8.23-.21-2.73-.23-5.5-.48-8.26-.21-2.76-.48-5.5-.78-8.25-.27-2.76-.67-5.47-.76-8.21-.12-2.74-.16-5.5.06-8.19.06-.67.14-1.34.28-1.97.14-.64.33-1.31.49-1.97.37-1.31.78-2.6 1.27-3.85.98-2.51 2.25-4.89 3.93-6.95 1.64-2.09 3.68-3.83 5.88-5.34 1.1-.76 2.26-1.43 3.44-2.08 1.16-.62 2.38-1.12 3.64-1.58 2.52-.9 5.16-1.51 7.83-1.97 2.67-.48 5.38-.8 8.09-1 2.72-.21 5.43-.32 8.16-.24 5.45.14 10.94.63 16.2 2.02 2.64.7 5.16 1.68 7.52 3.07 2.36 1.36 4.6 2.96 6.51 4.92 1.86 1.99 3.45 4.26 4.57 6.77 1.14 2.5 1.94 5.14 2.54 7.83.23 1.1.29 2.24.33 3.37.03 1.13.01 2.27-.03 3.4-.1 1.13-.16 2.26-.26 3.39z" fill="#c66c49" stroke-width="none" opacity="1" stroke="none"></path></g></g><g id="svga-group-mouth-single-move" transform="matrix(1,0,0,1,0,0)"><g id="svga-group-mouth-single" transform="matrix(1,0,0,1,0,0)"><path id="SvgjsPath24857" d="M88.47 130.85s.96 3.04 5.26 4.47c4.3 1.43 9.08 1.74 13.33-.43 4.26-2.17 5.56-5.08 5.99-7.69s-4.34-6.07-11.16-6.69c-3.22-.29-7.22.33-9.68 1.31-1.73.7-5.55 3.46-3.74 9.03z" fill="#ff5027" stroke-width="none" opacity="1"></path><path id="SvgjsPath24858" d="M115.6 121.1c-.2 2.1-.4 5-3.1 4.9-1.1 0-2.3-.5-3.4-.6-2.8-.3-5.6-.3-8.3.1-2.6.4-5.2 1.1-7.7 2.1-6.46 3.33-6.2 2.82-8.09 2.86-.4.1-.4.7 0 .8 1.3.3 2.89.54 3.99-.06 1.7-.9 3.3-1.7 5.1-2.3 3.4-1.2 6.9-1.9 10.5-2 1.9 0 3.7.1 5.5.4 1.1.2 2.44.47 3.54.27 1.1-.3 1.43-.81 1.91-1.94.51-1.86.65-2.93.65-4.53 0-.5-.5-.4-.6 0z" fill="#f0380d" stroke-width="none" opacity="1"></path></g></g><g id="svga-group-eyes-left-move" transform="matrix(1,0,0,1,0,0)"><g id="svga-group-eyes-left" transform="matrix(1,0,0,1,0,0)"><g id="svga-group-eyesback-left"><path id="SvgjsPath24730" d="M80.2 74.2c7.5 0 13.5 5.8 13.5 13s-6 13-13.5 13-13.5-5.8-13.5-13 6-13 13.5-13z" fill="#ffffff" stroke-width="none" opacity="1"></path></g><g id="svga-group-eyesiriswrapper-left" transform="matrix(1,0,0,1,0,0)"><g id="svga-group-eyesiriscontrol-left" transform="matrix(1,0,0,1,0,0)"><g id="svga-group-eyesiris-left" transform="matrix(1,0,0,1,0,0)"><path id="SvgjsPath24788" d="M80.2 81.9c2.9 0 5.3 2.4 5.3 5.3s-2.4 5.3-5.3 5.3-5.3-2.4-5.3-5.3 2.4-5.3 5.3-5.3z" fill="#4d3623" stroke-width="none" opacity="1"></path><path id="SvgjsPath24789" d="M80.2 81.6c-3.1 0-5.6 2.5-5.6 5.6s2.5 5.6 5.6 5.6 5.6-2.5 5.6-5.6c0-3-2.5-5.6-5.6-5.6zm4.7 7.5c-.6-.3-1.2-.6-1.8-.8.1-.2.2-.5.2-.8.6.1 1.3.1 1.9.1 0 .6-.1 1.1-.3 1.5zm-.4.7c-.5-.4-1.1-.8-1.7-1.1 0-.1.1-.1.1-.2.6.3 1.2.6 1.8.8 0 .2-.1.3-.2.5zm.1-5c-.6.1-1.3.4-1.8.8 0-.1-.1-.1-.1-.2.2-.2.5-.3.7-.5.3-.2.6-.5.9-.7l.3.6zm.3.8c-.6.1-1.3.3-1.9.6 0-.1-.1-.2-.1-.3.3-.1.6-.3.9-.4s.6-.2.9-.4c.1.1.2.3.2.5zm-1.6 1.6c0-.3 0-.6-.1-.8.6-.1 1.3-.3 1.9-.5.1.4.2.9.2 1.3h-2zm.8-3.2c-.3.2-.6.5-.9.7-.2.2-.4.3-.7.5l-.3-.3c.4-.5.8-1.1 1.1-1.6.3.2.5.5.8.7zm-3.6 6.3c.2 0 .4-.1.7-.2.1.3.3.7.4 1s.2.6.4.8c-.4.2-.9.3-1.4.3 0-.6 0-1.3-.1-1.9zm1.4-7.8c.4.2.9.4 1.2.6-.4.5-.8 1-1.2 1.6-.1-.1-.2-.1-.3-.2.2-.7.3-1.4.3-2zm-1.5-.3c.4 0 .8.1 1.1.2-.1.5-.1 1-.2 1.5 0 .2-.1.3-.1.5-.2-.1-.4-.1-.6-.1.1-.8 0-1.5-.2-2.1zm1.5 8.8c-.2-.3-.3-.7-.5-1 .1 0 .1-.1.2-.1.1.3.3.6.5.9.1.3.3.6.5.8-.1.1-.2.1-.3.2-.1-.3-.2-.5-.4-.8zm.5-.3c-.2-.3-.3-.6-.5-.8.1-.1.2-.1.3-.2.3.6.7 1.1 1.2 1.6-.1.1-.3.2-.4.3-.2-.4-.5-.7-.6-.9zm-2.1-8.5c-.1.6-.1 1.3-.1 2h-.4c0-.2-.1-.4-.1-.6-.1-.4-.1-.9-.2-1.3.2 0 .4-.1.6-.1h.2zm-2.7.7c.3.6.6 1.2 1.1 1.7-.1.1-.2.1-.2.2-.1-.1-.2-.3-.3-.4-.3-.4-.6-.8-.9-1.1 0-.2.2-.3.3-.4zm2 1.3c-.1 0-.2 0-.2.1-.2-.6-.4-1.3-.6-1.9.2-.1.4-.1.6-.2-.1.7 0 1.4.2 2zm-.6.2s-.1 0 0 0l-1.2-1.5c.2-.1.5-.2.7-.3.2.5.3 1.2.5 1.8zm-.4 5.5c.1 0 .1.1.2.1-.1.2-.2.3-.2.4-.2.4-.4.9-.6 1.3l-.6-.3c.3-.3.5-.6.8-.9.1-.2.3-.4.4-.6zm.3.6c.1-.1.1-.3.2-.4h.1c-.3.6-.4 1.2-.6 1.9-.2-.1-.3-.1-.5-.2.4-.4.6-.9.8-1.3zm.7-.3c.1 0 .2 0 .3.1-.2.6-.2 1.3-.3 1.9-.2 0-.5-.1-.7-.1.2-.6.5-1.2.7-1.9zM77 83.4c.2.4.5.7.8 1 .1.2.3.4.4.5l-.4.4c-.5-.4-1.1-.8-1.6-1.1.2-.3.5-.6.8-.8zm-1.2 6.3 1.5-.9c.1 0 .1-.1.2-.1.1.1.2.3.3.4-.5.4-.9.9-1.4 1.4-.2-.2-.4-.5-.6-.8zm-.4-1.1c.4-.1.8-.2 1.1-.4.2-.1.5-.2.7-.3 0 .2.1.3.1.5-.1.1-.2.1-.3.2-.5.3-.9.6-1.3.9l-.3-.9zm-.2-1.4c0-.2 0-.3.1-.5.6.2 1.3.3 1.9.3v.5c-.3.1-.6.2-.9.4s-.7.2-.9.4c-.2-.4-.2-.7-.2-1.1zm.2-1.5c.4.2.9.4 1.3.6.2.1.3.2.5.2 0 .1 0 .2-.1.3-.2 0-.3-.1-.5-.1-.5-.1-1-.2-1.4-.1.1-.4.1-.7.2-.9zm.7-1.4c.5.4 1 .9 1.6 1.2-.1.2-.2.3-.3.5H77l-1.5-.6c.2-.4.3-.7.6-1.1zm.4 6.4c.5-.4 1-.8 1.5-1.3l.3.3c-.2.2-.3.4-.4.6-.2.3-.5.7-.7 1-.3-.2-.5-.4-.7-.6zm3.4 1.5c.1-.7.2-1.3.2-2h.2c-.1.6-.1 1.3 0 2h-.1c-.1.1-.2 0-.3 0zm3.7-1.2c-.4-.5-.9-1-1.3-1.5.2-.2.4-.4.5-.6.5.4 1.1.8 1.6 1.1-.2.4-.5.7-.8 1z" fill="#2e1b0c" stroke-width="none" opacity="1"></path><path id="SvgjsPath24790" d="M80.2 84.3c1.6 0 2.9 1.3 2.9 2.9s-1.3 2.9-2.9 2.9-2.9-1.3-2.9-2.9 1.3-2.9 2.9-2.9z" fill="#000000" stroke-width="none" opacity="1"></path><path id="SvgjsPath24791" d="M78.6 84.7c.6 0 1.1.5 1.1 1.1s-.5 1.2-1.1 1.2-1.1-.5-1.1-1.1.5-1.2 1.1-1.2zm3.5 4.1c.3 0 .6.3.6.6s-.2.6-.6.6-.6-.3-.6-.6.3-.6.6-.6z" fill="#ffffff" stroke-width="none" opacity="1"></path></g></g></g><g id="svga-group-eyesfront-left"><path id="SvgjsPath24738" d="M80.2 73.7c-7.8 0-14.1 6.1-14.1 13.6s6.3 13.6 14.1 13.6 14.1-6.1 14.1-13.6S88 73.7 80.2 73.7zm-8.6 16.4c-5-2.9-4.1-11 5.8-7.7 7.4 2.5 12.6 9.1 12.6 9.1-9.1 1-13.4 1.5-18.4-1.4z" fill="#f4baa3" stroke-width="none" opacity="1" stroke="none"></path><path id="SvgjsPath24739" d="M90.7 92.1S87.3 89.2 85 88c-2.3-1.2-5.8-4.8-9.8-4.9-4-.1-8.2 3.3-8.2 3.3s.8-4.5 3.6-6.8 6.6-2.1 10.1 0 8.5 8.4 10 12.5z" fill="#ecac92" stroke-width="none" opacity="1" stroke="none"></path><path id="SvgjsPath24740" d="M90.7 92.1c-.3-.2-.5-.4-.8-.7l-1.8-1.5c-.9-.7-1.8-1.4-2.8-1.9-1-.5-1.9-1.2-2.8-1.9s-1.8-1.3-2.8-1.9-2.1-1-3.2-1.2-2.3-.1-3.4.2c-1.1.3-2.2.7-3.2 1.2-.8.4-1.6.9-2.4 1.5.3-1.2.7-2.3 1.3-3.4.7-1.2 1.6-2.4 2.8-3.1 1.2-.8 2.6-1.1 4-1.1s2.8.4 4.1 1c1.3.6 2.4 1.4 3.5 2.4s2 2 3 3.1c1.7 2.2 3.4 4.6 4.5 7.3-.5-1.4-1.2-2.6-2-3.9s-1.6-2.4-2.5-3.6c-.9-1.1-1.9-2.2-2.9-3.2-1.1-1-2.2-1.9-3.6-2.6-1.3-.7-2.8-1.1-4.3-1.1s-3 .3-4.3 1.2c-1.3.8-2.3 2-2.9 3.3-.7 1.3-1.2 2.7-1.5 4.2v.6l.5-.4c.4-.3.8-.6 1.3-.9 0 .6.2 1.3.5 1.8.5 1 1.2 1.9 2.1 2.5 1.8 1.2 3.9 2 6.1 2.3 1.1.1 2.2.2 3.2.2 1.1 0 2.2-.1 3.2-.2 2.1-.2 4.2-.5 6.4-.9.2.3.5.4.7.7zm-7.2-.2c-2.1.1-4.3.2-6.3-.1-2.1-.3-4.1-1-5.9-2.2-.9-.6-1.6-1.3-2.1-2.3-.3-.6-.5-1.2-.5-1.9 1.4-.8 2.8-1.5 4.4-1.9 1.1-.3 2.2-.4 3.3-.2 1.1.2 2.1.6 3.1 1.1 1 .5 1.9 1.2 2.8 1.8.9.6 1.8 1.3 2.9 1.8 1.7.9 3.2 2.1 4.7 3.2-2.1.4-4.2.6-6.4.7z" fill="#d6f7f4" stroke-width="none" opacity="1" stroke="none"></path></g></g></g><g id="svga-group-eyes-right-move" transform="matrix(1,0,0,1,0,0)"><g id="svga-group-eyes-right" transform="matrix(1,0,0,1,0,0)"><g id="svga-group-eyesback-right"><path id="SvgjsPath24731" d="M119.8 74.2c7.5 0 13.5 5.8 13.5 13s-6 13-13.5 13-13.5-5.8-13.5-13 6-13 13.5-13z" fill="#ffffff" stroke-width="none" opacity="1"></path></g><g id="svga-group-eyesiriswrapper-right" transform="matrix(1,0,0,1,0,0)"><g id="svga-group-eyesiriscontrol-right" transform="matrix(1,0,0,1,0,0)"><g id="svga-group-eyesiris-right" transform="matrix(1,0,0,1,0,0)"><path id="SvgjsPath24792" d="M119.8 82.5c2.6 0 4.7 2.1 4.7 4.7s-2.1 4.7-4.7 4.7-4.7-2.1-4.7-4.7 2.1-4.7 4.7-4.7z" fill="#4d3623" stroke-width="none" opacity="1"></path><path id="SvgjsPath24793" d="M119.8 82.3c-2.7 0-4.9 2.2-4.9 4.9s2.2 4.9 4.9 4.9 4.9-2.2 4.9-4.9-2.2-4.9-4.9-4.9zm4.1 6.6c-.5-.3-1.1-.5-1.6-.7.1-.2.1-.4.2-.7.6.1 1.2.1 1.7.1-.1.4-.1.9-.3 1.3zm-.3.5c-.4-.3-.9-.7-1.4-.9 0-.1.1-.1.1-.2.5.3 1 .5 1.6.7-.2.2-.2.3-.3.4zm.1-4.3c-.5.1-1.1.4-1.6.7 0-.1-.1-.1-.1-.2.2-.1.4-.3.6-.4.3-.2.5-.4.8-.6 0 .2.2.3.3.5zm.2.7c-.6.1-1.1.3-1.6.5 0-.1-.1-.2-.1-.3.3-.1.5-.2.8-.3.3-.1.6-.2.8-.3 0 .1.1.2.1.4zm-1.4 1.4c0-.2 0-.5-.1-.7.6-.1 1.1-.2 1.7-.4.1.4.2.8.2 1.2-.6-.1-1.2-.1-1.8-.1zm.7-2.8c-.3.2-.5.4-.8.6-.2.1-.4.3-.6.4l-.3-.3c.4-.4.7-.9 1-1.4l.7.7zm-3.1 5.5c.2 0 .4-.1.6-.1.1.3.2.6.4.9.1.2.2.5.3.7-.4.2-.8.2-1.2.3 0-.7 0-1.2-.1-1.8zm1.2-6.8c.4.1.8.3 1.1.6-.4.4-.7.9-1 1.4-.1-.1-.2-.1-.3-.2.1-.6.2-1.3.2-1.8zm-1.3-.3c.3 0 .7.1 1 .2-.1.4-.1.9-.2 1.3 0 .1-.1.3-.1.4-.2-.1-.3-.1-.5-.1 0-.6-.1-1.2-.2-1.8zm1.3 7.8c-.1-.3-.3-.6-.4-.9.1 0 .1-.1.2-.1.1.3.3.5.4.8.1.2.2.5.4.7-.1 0-.2.1-.2.1-.1-.2-.3-.4-.4-.6zm.4-.4c-.2-.2-.3-.5-.5-.7.1-.1.2-.1.3-.2.3.5.6.9 1 1.4-.1.1-.2.2-.4.3-.1-.3-.3-.6-.4-.8zm-1.8-7.4c-.1.6-.1 1.1 0 1.7h-.4c0-.2-.1-.3-.1-.5-.1-.4-.1-.8-.2-1.2h.7c-.1 0 0 0 0 0zm-.7 1.8c-.1 0-.1 0-.2.1-.1-.6-.3-1.1-.5-1.6.2-.1.4-.1.6-.1-.1.4 0 1 .1 1.6zm-.4.1c0 .1-.1.1 0 0-.3-.5-.7-.9-1.1-1.4l.6-.3c.1.6.3 1.2.5 1.7zm-.3.2c-.1 0-.2.1-.2.1-.1-.1-.2-.2-.3-.4-.3-.3-.5-.7-.8-.9.1-.1.3-.2.4-.3.2.5.5 1.1.9 1.5zm-.1 4.6c.1 0 .1.1 0 0 0 .2 0 .4-.1.5-.2.4-.4.8-.5 1.2-.2-.1-.4-.2-.5-.3.2-.3.5-.6.7-.8.1-.2.3-.4.4-.6zm.3.6c.1-.1.1-.2.2-.3h.1c-.2.5-.4 1.1-.5 1.6-.1-.1-.3-.1-.4-.1l.6-1.2zm.5-.3h.3c-.2.5-.2 1.1-.2 1.7-.2 0-.4-.1-.6-.1.2-.5.4-1 .5-1.6zm-2.2-5.9c.2.3.4.6.7.9.1.2.2.3.4.5l-.3.3c-.4-.4-.9-.7-1.4-1 .1-.3.3-.5.6-.7zm-1 5.5c.4-.2.9-.5 1.3-.8.1 0 .1-.1.2-.1.1.1.1.2.2.3l-1.2 1.2c-.2-.1-.4-.3-.5-.6zm-.4-1c.3-.1.7-.2 1-.3l.6-.3c0 .1.1.3.1.4-.1.1-.2.1-.3.2-.4.3-.8.5-1.2.8 0-.2-.1-.5-.2-.8zm-.2-1.2v-.4c.5.2 1.1.2 1.7.3v.4c-.3.1-.5.2-.8.3-.3.1-.6.2-.8.3-.1-.3-.1-.6-.1-.9zm.2-1.4c.4.2.8.3 1.1.5.1.1.3.1.4.2 0 .1 0 .2-.1.2-.2 0-.3 0-.4-.1-.4-.1-.8-.1-1.3-.1.2-.2.2-.4.3-.7zm.6-1.1c.4.4.9.8 1.4 1.1-.1.1-.2.3-.2.4-.1 0-.2-.1-.3-.1-.4-.2-.9-.4-1.3-.5 0-.3.2-.6.4-.9zm.4 5.5c.4-.4.9-.7 1.3-1.2l.3.3c-.1.2-.3.3-.4.5l-.6.9c-.2-.1-.4-.3-.6-.5zm3 1.4c.1-.6.2-1.2.1-1.7h.2c-.1.6-.1 1.2 0 1.7H119.6zm3.1-1.1c-.4-.4-.8-.8-1.1-1.3.2-.2.3-.3.4-.5.5.3.9.7 1.4 1-.1.3-.4.5-.7.8z" fill="#2e1b0c" stroke-width="none" opacity="1"></path><path id="SvgjsPath24794" d="M119.8 84.7c1.4 0 2.5 1.1 2.5 2.5s-1.1 2.5-2.5 2.5-2.5-1.1-2.5-2.5 1.1-2.5 2.5-2.5z" fill="#000000" stroke-width="none" opacity="1"></path><path id="SvgjsPath24795" d="M118.4 85c.5 0 1 .4 1 1s-.4 1-1 1-1-.4-1-1 .4-1 1-1zm3.1 3.6c.3 0 .5.2.5.5s-.2.5-.5.5-.5-.2-.5-.5.2-.5.5-.5z" fill="#ffffff" stroke-width="none" opacity="1"></path></g></g></g><g id="svga-group-eyesfront-right"><path id="SvgjsPath24741" d="M119.8 73.7c-7.8 0-14.1 6.1-14.1 13.6s6.3 13.6 14.1 13.6 14.1-6.1 14.1-13.6-6.3-13.6-14.1-13.6zm9.4 14.7c-5 2.9-9.7 4.7-18.7 3.7 0 0 5.5-5.9 13.1-7.5 7.7-1.7 10.6.8 5.6 3.8z" fill="#f4baa3" stroke-width="none" opacity="1" stroke="none"></path><path id="SvgjsPath24744" d="M109.7 92.7s3.4-2.9 5.7-4.1c2.3-1.2 6.5-3.9 10.5-3.9 4-.1 6.4 1.8 6.4 1.8s-2.4-4.2-5.2-6.4c-2.8-2.3-5.3-1.6-8.9.5s-6.9 8-8.5 12.1z" fill="#ecac92" stroke-width="none" opacity="1" stroke="none"></path><path id="SvgjsPath24745" d="m133.1 87.4-.6-1c-1.4-2.4-3-4.7-5.2-6.5-.6-.4-1.2-.8-1.8-1.1-.7-.3-1.4-.4-2.1-.4-1.4.1-2.8.6-4 1.3-.6.3-1.2.7-1.8 1.1s-1.1.9-1.6 1.4c-1 1-1.8 2.1-2.6 3.2-1.5 2.3-2.8 4.8-3.8 7.3 1.1-2.5 2.4-4.9 4-7.2 1.6-2.2 3.4-4.3 5.9-5.4 1.2-.6 2.5-1.2 3.8-1.2 1.3-.1 2.6.5 3.6 1.4 1 .9 1.9 1.9 2.8 3 .6.8 1.2 1.7 1.8 2.5-.6-.3-1.3-.6-2-.8-1-.3-2.1-.5-3.2-.5-2.2-.1-4.2.6-6.1 1.5-1.9.9-3.7 1.9-5.6 3-1.8 1.1-3.4 2.4-5 3.8.3-.2.5-.4.8-.6 2 .3 3.9.5 5.9.5 2 0 4-.3 5.9-.8 1.9-.5 3.8-1.3 5.5-2.3.4-.2.9-.5 1.3-.7.4-.2.9-.5 1.2-.8s.8-.7 1.1-1.1c.1-.1.1-.3.2-.4.2.1.3.2.5.3l1.1.5zm-1.9-.9c-.3.4-.6.7-1 1-.4.3-.8.5-1.2.8s-.9.5-1.3.7c-1.7.9-3.6 1.7-5.4 2.2-1.9.5-3.8.8-5.8.9-2 .1-3.9 0-5.9-.1 1.4-1.1 2.8-2.1 4.3-3 1.8-1 3.7-2 5.6-2.8 1.9-.8 3.9-1.4 6-1.3 1 0 2 .2 3 .5.7.2 1.4.5 2 .8l-.3.3z" fill="#d6f7f4" stroke-width="none" opacity="1" stroke="none"></path></g></g></g><g id="svga-group-facehighlight-single"></g><g id="svga-group-eyebrows-left-move" transform="matrix(1,0,0,1,0,0)"><g id="svga-group-eyebrows-left-rotate" transform="matrix(1,0,0,1,0,0)"><g id="svga-group-eyebrows-left" transform="matrix(1,0,0,1,0,0)"><path id="SvgjsPath24654" d="M91.61 68.78s.68 5.89.07 6.92c-.62 1.03-6.92-2.39-9.93-4.06-3.02-1.68-5.83-2.31-7.18-1.33-1.35.98-5.84 5.47-5.84 5.47s4.12-10.89 4.61-11.59c.49-.7 6.94 1.5 6.94 1.5s1.97 1.59 3.08 2.82l-1.07-2.59s7.5 2.36 7.93 2.92c.41.57 1.14 2.84 1.14 2.84l.25-2.9z" fill="#73625b" stroke-width="none" opacity="1"></path><path id="SvgjsPath24655" d="M91.6 68.75c-.01.02 0 .04-.01.06-.01-.01-.02-.01-.02-.01v.02l.01.04.01.04c-.05.41-.1.82-.16 1.26-.05.33-.09.68-.14 1.02-.11-.35-.22-.7-.34-1.05-.08-.25-.18-.5-.28-.73-.05-.12-.1-.25-.17-.37-.07-.13-.1-.23-.24-.38-.13-.12-.23-.16-.34-.22-.11-.06-.22-.11-.32-.17-.22-.1-.44-.2-.65-.29-.44-.19-.87-.35-1.31-.53-1.76-.65-3.52-1.26-5.29-1.85l-.56-.19.25.62.48 1.19c-.16-.14-.32-.3-.47-.44-.52-.47-1.05-.92-1.59-1.36l-.05-.04-.05-.02a54.25 54.25 0 0 0-4.63-1.34c-.39-.08-.78-.17-1.19-.22a6 6 0 0 0-.61-.06c-.1 0-.21 0-.32.02-.12.02-.23.03-.39.15-.1.09-.11.14-.15.2l-.07.16-.13.29-.24.58-.46 1.17c-.61 1.56-1.2 3.14-1.78 4.71l-1.73 4.73-.19.53.37-.37c.95-.96 1.91-1.91 2.88-2.84.98-.91 1.96-1.87 3.01-2.63.53-.34 1.19-.4 1.83-.36.65.05 1.3.2 1.95.41 1.29.42 2.52 1.07 3.75 1.78 1.24.7 2.49 1.36 3.76 1.98 1.27.62 2.54 1.22 3.88 1.65.33.1.67.2 1.03.24.18.02.36.03.55 0 .1-.02.2-.06.29-.13.04-.04.09-.11.12-.15.02-.04.05-.1.06-.15.13-.4.15-.78.17-1.16.01-.38.01-.76 0-1.15-.02-.77-.1-1.53-.17-2.29l-.12-1.14-.07-.57-.04-.29-.02-.14-.01-.07-.01-.04v-.02c-.04-.05-.07-.08-.08-.08zm.02.61.04.56.07 1.14c.04.75.05 1.51.06 2.26 0 .38-.01.75-.04 1.11-.03.36-.06.74-.17 1.03-.03.08-.06.13-.09.15-.04.03-.08.05-.15.06-.13.02-.28.01-.44-.01-.31-.06-.64-.15-.95-.26-1.28-.45-2.54-1.08-3.79-1.7-1.25-.63-2.49-1.31-3.73-1.98-.62-.34-1.25-.68-1.9-.97-.65-.28-1.3-.53-1.98-.73-.67-.19-1.35-.32-2.03-.34-.67-.01-1.38.08-1.96.49-.55.42-1.02.87-1.52 1.33l-1.47 1.39c-.84.8-1.69 1.62-2.52 2.43l1.65-4.12 1.9-4.63.49-1.14.25-.56.12-.28.07-.12c.01-.03.05-.08.02-.04 0 0 .08-.03.15-.04.08 0 .16-.01.25 0 .17.01.37.03.56.05.38.06.76.14 1.14.24 1.51.37 3.01.86 4.51 1.35.51.42 1.02.86 1.52 1.3.51.46 1.02.93 1.48 1.43L84.3 70l-.67-1.6-.83-1.99c1.59.48 3.17.98 4.74 1.52.44.15.88.3 1.31.46.22.08.44.17.64.25.11.04.21.1.31.14.1.04.21.1.27.16.01.01 0 .01.01.01l.03.04.04.06.09.16c.06.11.11.22.16.34.1.24.2.47.3.71.19.48.37.96.54 1.45l.17.48.03-.49c.03-.46.06-.91.08-1.39.02-.41.04-.84.08-1.27v.06l.02.26z" fill="#644e45" stroke-width="none" opacity="1"></path></g></g></g><g id="svga-group-eyebrows-right-move" transform="matrix(1,0,0,1,0,0)"><g id="svga-group-eyebrows-right-rotate" transform="matrix(1,0,0,1,0,0)"><g id="svga-group-eyebrows-right" transform="matrix(1,0,0,1,0,0)"><path id="SvgjsPath24656" d="M108.81 71.46s-.04 5.1.68 5.96c.72.87 6.57-2.29 9.37-3.83 2.8-1.55 5.5-2.19 6.94-1.39s6.36 4.52 6.36 4.52-5.25-9.24-5.8-9.83c-.56-.59-6.69 1.52-6.69 1.52s-1.78 1.44-2.73 2.53l.77-2.27s-7.15 2.28-7.51 2.77c-.35.49-.82 2.48-.82 2.48l-.57-2.46z" fill="#73625b" stroke-width="none" opacity="1"></path><path id="SvgjsPath24657" d="m132.25 76.67-2.22-4.02c-.74-1.35-1.49-2.67-2.26-4l-.59-.99-.31-.49-.16-.24-.09-.12c-.04-.04-.06-.1-.17-.16-.17-.1-.29-.1-.4-.12a1.71 1.71 0 0 0-.32 0c-.21.01-.4.04-.6.06-.38.06-.77.15-1.14.23-1.5.37-2.97.81-4.43 1.3l-.06.02-.04.03c-.48.4-.96.8-1.42 1.23l-.42.39.35-1.04.18-.53-.54.18c-1.69.57-3.36 1.14-5.03 1.77-.42.16-.83.32-1.24.5-.2.09-.41.18-.62.28-.1.05-.21.1-.3.15-.11.06-.2.11-.31.2-.11.14-.14.22-.19.34-.04.1-.08.22-.13.32-.07.22-.14.43-.2.64-.08.3-.15.61-.23.91-.08-.3-.16-.59-.25-.88-.11-.36-.21-.72-.3-1.08v-.08s-.01.01-.02.01c-.01-.02-.01-.03-.02-.06-.01 0-.03.03-.03.04v.11l-.01.12-.01.25-.01.49v.99c.01.66.03 1.31.09 1.97.03.32.07.66.13.99.07.33.12.66.29.99.02.05.05.08.08.12.02.04.08.09.14.12.11.07.21.09.3.1.2.03.37 0 .55-.01.34-.05.67-.14.99-.24 1.27-.42 2.47-.97 3.64-1.56 1.18-.57 2.35-1.19 3.49-1.83 1.14-.66 2.29-1.25 3.51-1.66.61-.2 1.24-.35 1.88-.42.63-.06 1.29-.03 1.85.25 1.13.62 2.2 1.41 3.26 2.16 1.06.77 2.11 1.55 3.15 2.36l.41.31-.22-.4zm-4.8-3.5c-.54-.38-1.07-.75-1.65-1.1-.61-.33-1.32-.39-1.99-.36-.68.04-1.34.18-1.97.36-.64.19-1.26.42-1.87.69-.61.27-1.2.59-1.77.9-1.15.62-2.31 1.24-3.47 1.83-1.17.58-2.34 1.17-3.56 1.59-.3.1-.61.2-.91.26-.15.03-.31.04-.44.03-.06 0-.12-.02-.15-.05a.324.324 0 0 1-.1-.12c-.14-.25-.22-.56-.29-.88-.07-.31-.12-.63-.15-.96-.08-.65-.15-1.3-.19-1.95l-.06-.98-.03-.49-.01-.25v-.05c.08.37.16.74.22 1.09.07.41.15.8.23 1.2l.09.42.11-.43c.11-.43.24-.85.38-1.27.07-.21.14-.42.22-.62.04-.1.08-.2.13-.3l.07-.14.04-.06.02-.03.01-.01c.05-.04.16-.1.25-.15.09-.05.2-.09.3-.14.2-.09.41-.16.61-.24.42-.15.83-.3 1.25-.45 1.49-.51 3-.99 4.5-1.46l-.6 1.73-.48 1.4 1-1.1c.4-.45.85-.87 1.31-1.28.44-.4.9-.8 1.35-1.17 1.43-.48 2.86-.94 4.3-1.31.37-.09.73-.18 1.1-.23.18-.03.36-.06.54-.07.08-.01.18-.01.25 0 .07 0 .15.02.15.02-.02-.03.01.01.03.04l.08.11.15.23.31.47.6.97 2.37 3.93 2.08 3.49c-.91-.68-1.83-1.35-2.75-2l-1.61-1.11z" fill="#644e45" stroke-width="none" opacity="1"></path></g></g></g><g id="svga-group-beardwrap" transform="matrix(1,0,0,1,0,0)"><g id="svga-group-beard-single-move" transform="matrix(1,0,0,1,0,0)"><g id="svga-group-beard-single" transform="matrix(1,0,0,1,0,0)"></g></g></g><g id="svga-group-mustache-single-move" transform="matrix(1,0,0,1,0,0)"><g id="svga-group-mustache-single" transform="matrix(1,0,0,1,0,0)"></g></g><g id="svga-group-nose-single-move" transform="matrix(1,0,0,1,0,0)"><g id="svga-group-nose-single" transform="matrix(1,0,0,1,0,0)"><path id="SvgjsPath24841" d="M109.5 107.91c-1.24.49-2.69.36-3.82.07s-2.48.69-2.95 1.13c-.47.44-1.71 1.71-3.93.91-2.22-.8-2.15-1.57-3.35-1.86-1.2-.29-2.07.66-3.42.29-1.35-.36-1.97-1.38-1.86-2.8.11-1.42.82-3.92 1.48-4.96s10.31-4.3 17.37.43c0 0 1.49 2.39 1.46 4.32s-.14 2.14-.98 2.47z" fill="#f4baa3" stroke-width="none" opacity="1"></path><path id="SvgjsPath24842" d="M91.66 100.69c-.5 1.38-.97 2.79-1.14 4.22-.08.7-.12 1.45.12 2.05l.09.22c.04.07.09.13.13.2.04.07.09.13.15.19.06.05.1.12.16.16.23.21.53.32.83.39.63.13 1.33.02 2.02-.13l.53-.12.28-.06.15-.03.18-.02c.49-.03.91.14 1.27.31.73.36 1.3.86 1.88 1.29l.21.16c.07.04.12.08.19.12.13.07.27.13.42.17.3.09.63.13.95.12.64-.01 1.28-.21 1.77-.6l.17-.16.21-.2c.14-.13.29-.26.45-.38.31-.24.64-.46 1.01-.64.36-.17.75-.31 1.17-.37a2.43 2.43 0 0 1 1 .07l.29.11c.25.1.61.15.95.17.34.02.69.01 1.04-.03.68-.08 1.4-.27 1.8-.7.19-.19.27-.52.31-.86.04-.34.03-.69-.01-1.05-.14-1.43-.62-2.84-1.24-4.17.8 1.24 1.38 2.63 1.68 4.11.07.37.1.76.09 1.15-.02.39-.08.82-.37 1.2-.28.35-.66.56-1.03.71-.37.15-.75.24-1.14.31-.38.07-.77.09-1.16.09-.4-.01-.78-.04-1.22-.19l-.22-.08c-.07-.01-.13-.03-.2-.03-.14-.02-.29 0-.44.02-.3.05-.61.17-.91.32-.29.16-.58.34-.85.56-.13.11-.26.22-.39.34l-.19.18-.24.21c-.66.54-1.5.8-2.32.82-.41.01-.83-.05-1.23-.17-.2-.06-.4-.15-.59-.25-.09-.05-.19-.12-.28-.18l-.23-.17c-.59-.45-1.15-.92-1.73-1.23-.29-.15-.59-.26-.84-.25h-.09l-.12.02-.26.05-.55.11c-.74.14-1.54.25-2.35.04-.4-.11-.8-.29-1.11-.6-.3-.31-.55-.64-.66-1.06-.25-.8-.14-1.58 0-2.32.16-.74.39-1.45.66-2.14.29-.68.6-1.35.95-2z" fill="#c66c49" stroke-width="none" opacity="1"></path><path id="SvgjsPath24843" d="M102.11 103.91c-.52-.52-1.24-.61-1.94-.46-.09.02-.17.04-.25.06-.29-.19-.59-.32-.98-.32-.43 0-.95.19-1.25.52-.67.73-.68 1.78 0 2.5 1.14 1.22 3.69 1.57 4.66-.08.4-.68.33-1.65-.24-2.22z" fill="#fcc9b5" stroke-width="none" opacity="1"></path></g></g><g id="svga-group-hair-front" transform="matrix(1,0,0,1,0,0)"><path id="SvgjsPath24880" d="M98.1 20.4s-7.2-5.9-16.9-6.4l1.7 3s-14.6-.6-27.6 11.1l3.6 2.2s-9.5 8.5-11 21c-1.4 12.5-.5 24.1-.5 24.1s4.5-1.4 5.8-2.7l1.6-4.4 3.3 10.3 5.9 5.5s-2-8.5-1.7-14.6c.3-6.1.6-7.8.6-7.8l.6 4.5s1.2 4.1 5 5.5c0 0-1.7-12.1.5-17.7 0 0 0 8.8 2.7 11.6 0 0 2.3-1.6 3.1-3s1.7-5.2 2.5-7.7 3.1-9.4 5.5-11.7c2.3-2.3 5-5.2 5-5.2s6.7 2 9.4 5.6c0 0 4.1-2.5 7.2-3.6 3.1-1.1 7.4-2.3 7.4-2.3s5.2 7.4 6.6 12.1 2.7 11 2.7 12.5.2 3 .2 3 2.5-1.1 3.8-2.7c0 0 3.4-.5 5.2-2 1.7-1.6 3.9-4.4 3.4-13.6 0 0 1.2.6 2 5.8s1.7 14.2.6 19.1c0 0 1.4-.3 3.1-1.7 0 0-1.2 9.7 0 13.6 0 0 2.5-4.5 4.2-6.7s3.1-6.3 3.1-6.3l1.1-5.2 4.4-.2s-.2-7.8-1.1-11.1c-.9-3.3-2.8-13.8-7.1-19.9s-11.9-10.3-13-11-14.9-7.2-27.7-3.1c0 0 6.3-5 15.8-3s10.8 5.2 10.8 5.2l2.2.9 1.6-.5s-4.5-6.7-12.8-8.3-17.3.4-22.8 5.8z" fill="#73625b" stroke-width="none" opacity="1"></path><path id="SvgjsPath24881" d="M87.3 38.1c-3.6 2.7-6.3 6.4-8.2 10.5-2.1 4.6-2.3 9.7-4.8 13.8 1-4.6 1.8-9.2 3.1-13.7 1.4-4.9 2.7-11.2 6.8-14.6.3-.2-.1-.6-.3-.5-4 1.9-5.1 7.6-6.2 11.4-1.8 5.9-3.4 12.1-3.8 18.2-.5.7-1.1 1.4-1.9 2.1v.1c-.5-1.9-1.1-3.8-1.4-5.7-.4-2.5-.5-4.9-.7-7.3.2-1.5.5-3 .9-4.5 0-.2-.2-.3-.3-.1-.5 1.4-.8 2.9-1.2 4.3V52.4c-.8 3.4-1.2 6.9-1.3 10.5 0 1 .7 7.9.4 8-1 .5-3.7-3.4-4.3-4.3-.2-.2-.5 0-.3.2 1.3 2.6 2.8 4.3 5.1 6.2.4.3.8 0 .8-.4-.8-5.2-.8-10.2-.3-15.3.3 3.2 1.2 6.5 2.6 9.2.1.2.4.1.4-.2 0-.1-.1-.2-.1-.3.1.1.2.1.3 0 3.7-2.5 4.6-6.5 5.6-10.7 1.7-6.8 4.9-11.8 9.8-16.7-.1-.3-.4-.7-.7-.5zm-4.6-21.3c.2.2.6 0 .4-.3-.4-.7-.8-1.3-1.3-1.9 6.1.8 11.1 3.1 16.3 6.3.3.2.6-.2.4-.5-4.9-4.4-11.5-6.4-17.9-7-.5-.1-.6.6-.4.9.8.9 1.5 1.7 2.5 2.5zM54.6 29.2c1.1.4 2.2.6 3.4.8.4.1.6-.5.2-.7-3.9-1.4.3-3.2 2.4-4.6 2-1.3 4.1-2.5 6.2-3.5 4.9-2.2 9.9-3.1 15.1-4 .3 0 .2-.5-.1-.5-10.2-.1-19.9 5.1-27.5 11.6-.2.3-.1.8.3.9zm8.2 36.6c.1-.2.3-.4.4-.6l.3.9c.1.4.7.2.6-.2-.3-1.7-.6-3.4-.5-5.2 0-.4-.7-.5-.8-.1-1.3 7.6-1.1 15.3 1.1 22.7-.7-.8-1.4-1.4-2.2-2.2-.9-.9-1.8-1.9-2.9-2.7-.1-.1-.3-.1-.4 0-1-3.5-2.2-6.9-3.3-10.4-.1-.3-.5-.3-.6 0-.4 1.4-.9 2.8-1.2 4.2-.1 0-.3 0-.4.1-1.3 1.2-4.3 3.9-5.3 1.9-.3-.7-.1-2.3-.2-3.1-.1-2.3-.2-4.6-.2-6.9 0-5.4.5-10.8 1.8-16C52.7 34 62.6 26.1 76.1 21.6c.2-.1.1-.4-.1-.3-12.4 2.5-22.5 11-26.7 22.9-3.6 10.1-3.2 21-2.7 31.5 0 .3.3.5.6.5 2.5-.5 4.3-1.4 6.2-3.1.2-.2.2-.4.1-.5.4-1.1.8-2.2 1.1-3.3 1 3.3 1.9 6.7 3 10 .1.3.5.3.7.1.7.9 1.6 1.7 2.4 2.5.9.9 1.8 1.9 2.8 2.7.1.1.3.1.4 0 .1.2.4.1.4-.2-1.2-5-2.1-10-2-15.2.3-1.1.4-2.3.5-3.4zm69.4-42.1c.6 0 1.2-.1 1.7-.1s.7-.6.4-.9c-9.4-10.7-25.2-12.2-36-2.6-.2.1.1.4.2.3 5.5-3.9 11.9-6.3 18.7-5.7 3.5.3 6.9 1.5 9.9 3.3 1.5.9 3.4 1.9 4.4 3.4.9 1.4 1.1 1.4-.1 1.5-.1-.1-.2-.1-.3-.2-7.6-7.3-19.4-8.2-28.2-2.4-.2.1 0 .4.2.3 8.6-4.7 17.3-4.3 25 .9-7.7-2.9-16.7-2.8-24.5-1-.2.1-.1.4.1.4 9.5-1.7 17.5-.3 26.4 2.4-.1.2.1.6.4.6h1.3c-.1.1-.1.2 0 .3 8.1 5.1 13.5 11.9 16.5 21 1.6 5 2.5 10.1 3.1 15.3.2 1.4.7 3.1.1 4.3.2-.5-2.4.8-3.1 1.2-.2.2 0 .7.3.6h3.7c.3.1.7-.2.7-.5-1.7-15.8-4.7-35.3-20.9-42.4zm16.1 42.2c1.1-6.7.4-14-2.7-19.9-.1-.2-.5-.1-.4.2 2.3 8.8 3.2 16.4 1.1 25.3-2.5 3.6-4.5 7.6-6.7 11.3-.5-4.2-.3-8.2.3-12.4 3.4-2.8 5.8-6.5 5.9-11.2 0-.4-.6-.5-.6-.1-.4 2.2-1.1 4.4-2.2 6.3-.2.3-1.5 1.9-2.8 3.4-.1-.2-.5-.3-.6 0-.1.3-.1.5-.2.8-1.1 1.1-2.1 1.9-2.4 1.6-.6-.6.1-3.1.1-3.9.2-2.3.2-4.5.1-6.8-.3-8.1-2.4-16.2-6.4-23.2-.2-.3-.5 0-.4.2.1.2.1.4.2.5v.1c1.3 4.3 2.6 8.4 2.6 12.9 0 2.8-.2 6.5-2.3 8.6-1.4 1.4-3.4 2-5.4 2.6 2.1-3.4 2.1-8 1.2-12.1 0-.2-.2-.2-.3-.2 0-6.3-4.8-13.8-10.4-16.6-.1 0-.2 0-.3.1-6.6 1.6-13.2 5.1-18.1 9.9-2.4-2.4-5.7-4.7-9.1-5.2-.5-.1-.6.5-.2.7 3.4 1.4 6.3 2.7 8.9 5.2.3.3.6 0 .7-.2 2.3-1.4 4.8-2.5 7.3-3.4 1.2-.4 2.4-.8 3.7-1.2.8-.3 2.3-.9 3.1-.9v.2c5 8.6 8.4 16.7 8.8 26.8 0 .4.4.6.8.4 1.5-.7 2.7-1.7 3.5-2.9 4.5-.9 7.8-2.5 8.7-7.5.4-2.4.5-5 .3-7.6 2.2 7.9 2.8 16 1.3 24.5-.1.5.4.8.8.6 1-.5 2-1.1 2.9-1.8-.9 4.4-.8 8.9-.1 13.3.1.4.7.4.9.1 2.6-4.4 5.5-8.7 7.6-13.4.1-.2 0-.4-.2-.5.3-1.4.7-3 1-4.6 0 0 .1 0 .2-.1l.1-.1c-.2.1-.3.1-.3.2zm-26.4-2c-1.1-1.4-1.1-7-1.6-8.8-1.5-6-4-12.1-8-16.9.2-.3.2-.8-.3-.9-.8-.1-.9 0-1.6.2-1.7.5-3.5 1.3-5.2 1.9-1.3.5-2.6 1.1-3.8 1.7 4.4-3 8.9-5.1 14.4-6.7.1 0 .2-.1.2-.2 2.4 2.1 4.6 4 6.3 6.8 1.8 2.9 2.5 6 3.3 9.3 0 .1.1.2.3.2 0 2.2.3 4.5 0 6.7-.1.6-.9 3.6-1.8 5.5h-.1c-.2 0-.2.2-.1.3-.6 1.1-1.4 1.8-2 .9zM86.2 33.6c-.2-.1-.3.2-.1.3 3.2 1.3 5.7 3.3 8.3 5.4.2.2.6-.1.4-.3-2.1-2.8-5.4-4.5-8.6-5.4zm-26.6 4.8c-5 6.1-7.4 15.2-7.2 23.1-.7.2-1.4.5-2 .9.5-9.8 3.6-18.4 9-26.5.1-.2-.2-.4-.3-.2-5.9 7.8-8.9 17.1-9.4 26.8 0 .3.3.4.5.3.1.1.2.2.3.1.7-.2 1.5-.5 2.1-.8.2.1.4 0 .4-.2v-.2c.7-8.7 3.1-15.2 6.9-23 .1-.3-.1-.5-.3-.3z" fill="#644e45" stroke-width="none" opacity="1"></path></g><g id="svga-group-glasses-single-move" transform="matrix(1,0,0,1,0,0)"><g id="svga-group-glasses-single" transform="matrix(1,0,0,1,0,0)"></g></g></g></g></g><rect id="svga-credit-rect" width="200" height="15" x="0" y="185" fill="#ecf0f1" opacity="0.5" style="display: none;"></rect><text id="svga-credit-text" font-family="Avenir Next, Roboto, Helvetica, Arial, sans-serif" font-size="10px" text-anchor="start" font-weight="400" size="10px" anchor="start" weight="400" fill="#333333" x="33.43669891357422" y="182.60824704170227" style="display: none;"><tspan id="SvgjsTspan24195" dy="13" x="33.43669891357422">Created on AvatarMaker.com</tspan></text></g></svg>