<svg xmlns="http://www.w3.org/2000/svg" version="1.1" width="600px" height="600px" viewBox="0 0 200 200" style="overflow:hidden!important;"><defs id="SvgjsDefs23394"></defs><g id="svga-group-wrapper"><g id="svga-group-backs-single"><path id="SvgjsPath24087" d="M0 0h200v200H0V0z" fill="#c5e0dc" stroke-width="none" opacity="1" stroke="none"></path><path id="SvgjsPath24088" d="M6.5 16.3c4-9.2 13.8-13.8 22-11.3 6 1.9 10.6 7.5 11.8 14.3 0 0 25.4-15.2 41.7 1.1 6.1 6.1 6.7 17.8-4.9 27.2-8.8 7.2-19.5 1.4-19.5 1.4 2 5.6.6 11.5-3 14.3-5 3.8-14.5 2.2-18.9-5.8 0 0 2.5 13.2-12.6 15.4C7.9 75.1 8.7 60 8.7 60s-.9 4.4-8.7 4.4V13s1.4-.3 3.2.5 3.3 2.8 3.3 2.8zm136.2 47.3c-.2-.7-4.6-9.9-15.2-9-10.6.9-7.6 14.8-7.6 14.8s-14.3.5-15.5 11.8S116.4 103 134 92c0 0 13.9 14.1 28.9-.9 0 0 21 12.7 28.4.2S182.9 73 182.9 73s6.5-15.7-12-12c0 0-3-9-13.2-8.5-10.1.4-15 11.1-15 11.1zM81.6 149s-5.5 6.7-16.8 5.1c-11.3-1.6-12.2-10.9-12.2-10.9s-14.3 12.5-31.6 3-7.9-26.3-.7-30.7 20.3-.5 20.3-.5-1.6-4.8 4.6-8.5c6.2-3.7 11.3 1.8 11.3 1.8s1.2-8.3 14.1-8.1S83 112.5 83 112.5s5.1-9.2 16.4-3.7 7.6 14.3 7.6 14.3 3-3.7 6.5-4.2 7.6 3 7.2 6.9c0 0 8.8-8.1 20.3 5.5s-11.3 28.2-21.9 15.9c0 0-3.5 10.6-20.1 9.5S81.6 149 81.6 149zm72.7 19.1s-2.8-6.2-10.9-6-7.9 9.7-7.9 9.7-6-5.8-12-1.4 0 11.3 0 11.3-5.8.5-5.3 6.2 12.9 12.9 26.8-.2c0 0 4.2 6.7 11.3 4.9 7.2-1.9 6.9-8.5 6.9-8.5s9.7 8.5 19.2 2.5 6.7-23.6-8.8-24.5c-15.4-.9-19.3 6-19.3 6zM126.5 0s-7.4 3.7-5.5 12.9 16.1 8.3 19.6 3.5c0 0-2.8 9.7 7.4 10.1 0 0-.2 16.8 18.4 11s16.3-22.3 16.3-22.3 2.5 12.9 17.4 12.9V0h-73.6zM0 195.2s19.3 7.9 29.6-9.4-11.8-20.6-15.4-15.7c0 0 1.6-16.7-14.2-13.2v38.3z" fill="#ffffff" stroke-width="none" opacity="1"></path></g><g id="svga-group-humanwrap-move" transform="matrix(1,0,0,1,0,0)"><g id="svga-group-humanwrap" transform="matrix(1,0,0,1,0,0)"><g id="svga-group-hair-back-move" transform="matrix(1,0,0,1,0,0)"><g id="svga-group-hair-back" transform="matrix(1,0,0,1,0,0)"></g></g><g id="svga-group-humanbody-back"><path id="SvgjsPath23793" d="M180.8 184.9c-2.3-3.4-38.9-17.8-38.9-17.8l-13.4-5.2-5.6-68.8H76.8L71.3 162l-13.4 5.2S21.4 181.6 19 185c-2.3 3.4-3.3 14.9-3.3 14.9V219h168.5v-19.2c-.1.1-1-11.5-3.4-14.9z" fill="#cb8d60" stroke-width="none" opacity="1" stroke="none"></path></g><g id="svga-group-chinshadow-single"><path id="SvgjsPath24037" d="M94.3 163.2s17.4.7 30.2-15c.96-1.2 1.83-2.36 2.64-3.5l-4.2-51.6H76.82l-4.96 62.4c11.08 8.16 22.44 7.7 22.44 7.7z" fill="#ac642f" stroke-width="none" opacity="1" stroke="none"></path></g><g id="svga-group-humanbody-front"><path id="SvgjsPath23794" d="M184.5 219c-.1-6.4-.1-12.8-.1-19.2l-.3-.1s.1-.1.2 0c.1 0 .1.1.1.1v-.4l-.1-.5-.1-.9-.2-1.9c-.2-1.3-.4-2.5-.6-3.8-.2-1.3-.5-2.5-.9-3.8-.4-1.2-.8-2.5-1.5-3.6-.8-.9-1.9-1.5-2.9-2.1-1-.6-2.1-1.1-3.2-1.7-2.1-1.1-4.3-2.1-6.5-3.1-4.4-2-8.7-3.9-13.1-5.7-4.4-1.9-8.8-3.7-13.2-5.5l-13-5.2-1.2-16.9c-.4-5.7-.9-11.5-1.3-17.2l-1.3-17.2-1.5-17.3-.1-.8h-.8c-7.7 0-15.4.1-23.1.1l-23.1.2h-.5v.5L75 110.2l-1.3 17.2c-.8 11.4-1.8 22.8-2.8 34.2-5.6 2.1-11.2 4.2-16.7 6.4-5.6 2.2-11.2 4.5-16.8 6.9-2.8 1.2-5.6 2.4-8.3 3.6-2.8 1.3-5.5 2.5-8.2 4.1-.7.4-1.3.8-2 1.4-.2.1-.4.4-.5.6l-.3.6c-.2.4-.4.7-.5 1.1-.6 1.5-1 3-1.3 4.5-.6 3-1.1 6-1.4 9.1l-.1 19.1v.9h.9l42.1.1H100c14 0 28.1-.1 42.1-.2l42.1-.5h.3v-.3zm-84.5-1-42.1-.1-41.2.1-.1-18.1c.3-3 .6-5.9 1.2-8.9.3-1.4.6-2.9 1.1-4.2.1-.3.3-.7.4-.9l.2-.4.3-.3c.5-.4 1.1-.8 1.8-1.2 2.5-1.5 5.3-2.8 8-4.1 2.7-1.3 5.5-2.5 8.2-3.7 5.5-2.4 11.1-4.8 16.7-7.1s11.2-4.5 16.9-6.7l.2-.1v-.2c.9-11.5 1.7-23 2.7-34.4l1.4-17.2 1.5-16.7 22.6.2c7.4.1 14.8.1 22.3.1l1.3 16.4 1.5 17.2c.5 5.7 1 11.5 1.5 17.2l1.6 17.2v.3l.3.1 13.4 5c4.4 1.7 8.9 3.4 13.3 5.2 4.4 1.8 8.8 3.7 13.2 5.6 2.2 1 4.3 2 6.5 3 1.1.5 2.1 1.1 3.2 1.6 1 .6 2.1 1.2 2.9 2 .7 1.1 1.1 2.3 1.4 3.5.3 1.2.6 2.5.8 3.7.2 1.3.4 2.5.6 3.8l.2 1.9.1.9.1.5v.4c0 6.3 0 12.6-.1 18.9l-41.8-.5c-14 .1-28.1 0-42.1 0z" fill="#9d521b" stroke-width="none" opacity="1" stroke="none"></path><path id="SvgjsPath23795" d="M125.1 142.4s-1.8 23-9.1 32.9c0 0 7.9-25 9.1-32.9zm-34.5 16s5 7.9 11.5 10.1c0 0-9.5 2.2-11.5-10.1zM73.4 140c6.7 25.6 6.7 25.6 8.5 30.7 0 0 .4-12.6-8.5-30.7z" fill="#ac642f" stroke-width="none" opacity="1" stroke="none"></path></g><g id="svga-group-clothes-single"><path id="SvgjsPath23928" d="M187 220c0-12.4-1.8-33.5-4-36.1s-36.9-16.9-39.5-17.6-13.8-4.8-13.8-4.8l-.9-15s-3 1.6-8.2 3.6c-12.8 4.9-14.6 4.2-17.3 6.4s-2 12.2-2 12.2l-2.1-.2s-.2-10.4-3-12.5c-2.8-2.1-11.1-3.1-17.9-5.9-5.2-2.1-7.7-3.5-7.7-3.5l-.9 15s-11.1 4.1-13.7 4.8-37.3 15-39.5 17.6-4 23.7-4 36.1H187z" fill="#601090" stroke-width="none" opacity="1"></path><path id="SvgjsPath23929" d="M90.2 179.4h19.7v3.4H90.2v-3.4zm0 14.8h19.7v3.4H90.2v-3.4zm0 14.7h19.7v3.4H90.2v-3.4z" fill="#939393" stroke-width="none" opacity="1"></path><path id="SvgjsPath23930" d="M187.1 214.3c0-1.9-.1-3.8-.2-5.7-.2-3.8-.4-7.5-.7-11.3-.4-3.8-.8-7.5-1.7-11.3-.1-.5-.2-.9-.4-1.4-.2-.4-.4-1-.8-1.4-.9-.7-1.7-1.1-2.5-1.6-1.7-.9-3.4-1.8-5.1-2.6-6.8-3.3-13.8-6.3-20.7-9.2-3.5-1.4-22.9-8-24.4-8.9-.2-4.8-.6-9.7-.9-14.5l-.1-1.6-1.3.9c-1.4 1-3 1.8-4.7 2.4-1.7.7-8.1 3.3-11.7 4.3-1.8.5-3.6 1-5.3 1.6-.9.3-1.8.6-2.6 1.1-.2.1-.4.2-.7.4s-.4.3-.6.5c-.4.4-.7.9-.9 1.3-.8 1.9-1 3.8-1.1 5.6-.1 1.7-.1 3.3 0 5l-1.1-.1c-.1-1.7-.2-3.4-.5-5.1-.3-1.9-.6-3.7-1.5-5.5-.2-.4-.5-.9-.8-1.3-.2-.2-.4-.4-.6-.5-.2-.1-.4-.3-.6-.4-.9-.4-1.8-.8-2.7-1-1.8-.6-19.4-5.8-22.3-7.8l-.4-.1-.1.4-.9 14.8c-1.6.9-12.2 4.3-14 4.8-3.6 1.3-7.1 2.7-10.6 4.1-7 2.8-14 5.7-20.8 8.9-1.7.8-3.4 1.6-5.1 2.5-.4.2-.8.5-1.3.7-.4.3-.8.5-1.3.9s-.7 1-.9 1.5c-.2.5-.3.9-.5 1.4-1 3.8-1.4 7.5-1.9 11.3-.8 7.5-1.3 15.1-1.4 22.7v.9h1c14.6 0 29.2.1 43.8.1 14.6-.1 29.2 0 43.8-.1l43.6-.4 43.3-.5c0-.5.1-1 .1-1.5v-1.4l.1-2.9zm-85.2-51c.2-1.8.4-3.6 1.1-5.2.2-.4.4-.7.6-.9.1-.1.3-.2.4-.3.2-.1.3-.2.6-.3.8-.4 1.6-.7 2.5-1 1.7-.6 8.8-2.1 21-7.5.2 4.5.5 9 .8 13.5v.4c-2.4 1.2-8 5.3-15.8 6.3-1.5.2-2.9.4-4.4.5-2.3.2-4.6.3-6.8.2v-.3c-.1-1.8-.1-3.6 0-5.4zm-2.1 33.9c-1.6 0-3.2.1-4.8.2-1.6.1-3.1.1-4.7.1 0-1 .1-1.9.1-2.9 3.2.2 6.4.2 9.6.2 3.2 0 6.4-.1 9.6-.2.1 1 .2 2 .2 3-1.8-.1-3.4-.2-5.1-.3-1.6-.1-3.2-.1-4.9-.1zm.2 12.2c3.2 0 6.4-.1 9.6-.2.1 1 .2 2 .2 3-1.8-.1-3.4-.2-5.1-.3-1.7-.1-3.3-.1-4.9-.1s-3.2.1-4.8.2c-1.6.1-3.1.1-4.7.1 0-1 .1-1.9.1-2.9 3.2.1 6.4.2 9.6.2zm-.5-15.7v-3.6 3.6zm.3-11.3c-.1 0-3.3.1-4.8.2-1.6.1-3.1.1-4.7.1 0-1 .1-1.9.1-2.9 3.2.2 6.4.2 9.6.2 3.2 0 6.4-.1 9.6-.2.1 1 .2 2 .2 3-1.8-.1-3.4-.2-5.1-.3-1.6-.1-3.2-.1-4.9-.1zm-29-35.3c3 1.9 13.1 5.4 16.7 6.3 1.8.4 3.6.9 5.3 1.5.9.3 1.7.6 2.5 1l.5.3c.2.1.3.3.4.4.2.3.5.7.7 1.1.7 1.6 1 3.5 1.3 5.3.2 1.8.4 3.7.4 5.5v.4c-5.5-.2-10.9-1-16.3-2.2-2.9-.6-9.2-3.4-12.4-5.5l.9-14.1zm-56.1 50.4c.4-3.7.8-7.5 1.6-11.1.1-.4.2-.9.4-1.3.1-.4.3-.8.5-.9.2-.2.6-.5 1-.7.4-.2.8-.5 1.2-.7.3-.1.5-.3.8-.4 1 1.3 1.9 2.6 2.7 4 .9 1.4 1.6 2.9 2.3 4.4 1.4 3 2.6 6.1 3.4 9.2s1.4 6.4 1.9 9.7c.4 3 .8 6.1 1.1 9.2-6 0-12 .1-18.1.1.1-7.1.5-14.3 1.2-21.5zm84.7 21.6c-14.5-.1-29-.1-43.4-.1H31.7c0-1.4 0-2.9-.1-4.3-.1-1.7-.2-3.3-.4-5-.3-3.3-.9-6.6-1.6-9.9-.8-3.2-2.1-6.4-3.7-9.3-1.6-2.9-3.4-5.7-5.7-8.1l4.2-2.1c6.8-3.2 13.7-6.2 20.6-9.2 3.5-1.4 7-2.9 10.5-4.2 1.8-.5 12.7-4.1 14.3-5.1 0 0 6.8 4.2 12.4 5.6 5.8 1.4 11.7 2.2 17.6 2.5h.1c-.1 1.9-.1 3.7-.2 5.6l-.1 3.4c-3.2 0-6.3.1-9.5.2h-.3v.3c0 1.1.1 2.2.1 3.4v.2h.2c1.7 0 3.3 0 5 .1 1.5.1 2.9.1 4.4.1v3.7c0 2.3 0 4.6-.1 6.9-3.1 0-6.2.1-9.3.2h-.3v.3c0 1.1.1 2.2.1 3.4v.2h.2c1.7 0 3.3 0 5 .1 1.5.1 2.9.1 4.4.1 0 3.5 0 6.9.1 10.4-3.2 0-6.3.1-9.4.2h-.3v.3c0 1.1.1 2.2.1 3.4v.2h.2c1.7 0 3.3 0 5 .1 1.5.1 3.1.1 4.6.1.1 3 .1 3.7.2 6.5l-.6-.2zm43.6.4-43-.3c.2-2.7.2-3.5.2-6.5 1.7 0 3.3-.1 4.9-.1 1.6-.1 3.2-.1 4.8-.3.1-1.1.2-2.2.2-3.4v-.3h-.3c-3.2-.2-6.3-.2-9.5-.2.1-3.4.1-7 .1-10.4 1.6 0 3.1-.1 4.6-.1 1.6-.1 3.2-.1 4.8-.3.1-1.1.2-2.2.2-3.4v-.3h-.3c-3.1-.2-6.2-.2-9.4-.2 0-3.9 0-6.6-.1-10.5 1.6 0 3.2-.1 4.7-.1 1.6-.1 3.2-.1 4.8-.3.1-1.1.2-2.2.2-3.4v-.3h-.3c-3.2-.2-6.3-.2-9.5-.2l-.1-3.4c-.1-1.9-.1-3.7-.2-5.6 2.9.1 5.8 0 8.8-.3 3-.3 5.8-.9 8.7-1.6 5.8-1.4 11.8-5.8 11.8-5.8 1.6 1 11 3.6 11.9 4 .4.2 9.7 3.7 13.2 5.1 7 2.9 13.9 5.8 20.8 8.9 1.3.6 2.5 1.2 3.8 1.8-2.1 2.6-3.7 5.4-5 8.5-1.4 3-2.3 6.3-2.7 9.6-.4 3.3-.7 6.6-.7 9.9 0 3.2.1 6.5.4 9.7l-27.8-.2zm27.9.3c0-1.6 0-3.1.1-4.7 0-1.6.1-3.3.2-4.9.2-3.3.5-6.6.9-9.8.4-3.2 1.3-6.4 2.4-9.4.6-1.5 1.2-3 2-4.5.7-1.5 1.5-2.9 2.3-4.2.4.2.9.4 1.3.6.8.4 1.7.9 2.3 1.4.2.2.4.6.6 1 .2.4.3.9.4 1.3.9 3.6 1.4 7.3 1.9 11.1.4 3.7.8 7.5 1.1 11.2.1 1.9.2 3.8.3 5.6l.2 5.6-16-.3z" fill="#470071" stroke-width="none" opacity="1"></path></g><g id="svga-group-head" transform="matrix(1,0,0,1,0,0)"><g id="svga-group-ears-left-move" transform="matrix(1,0,0,1,0,0)"><g id="svga-group-ears-left" transform="matrix(1,0,0,1,0,0)"><path id="SvgjsPath23942" d="M68.8 87.48s-4.2-8.27-8.66-11.42c-4.46-3.15-9.84-3.15-9.84-3.15s-3.02 2.1-1.97 12.6c0 0 4.46 10.76 12.47 14.7 0 0 5.77 1.31 8.66.66-.01-.01 2.09-6.18-.66-13.39z" fill="#cb8d60" stroke-width="none" opacity="1" stroke="none"></path><path id="SvgjsPath23943" d="M67.88 90.76s-3.67-7.87-6.04-9.84c-2.36-1.97-7.87-5.12-9.32-3.28-1.44 1.84-1.57 7.61-1.57 7.61s1.57 4.59 6.3 7.09c4.72 2.49 10.37 2.76 10.37 2.76l.26-4.34z" fill="#bc7746" stroke-width="none" opacity="1" stroke="none"></path><path id="SvgjsPath23944" d="M47.99 82.25c.02 1.09.09 2.19.17 3.28v.02l.01.03a39.54 39.54 0 0 0 2.2 4.42c.82 1.43 1.75 2.79 2.75 4.11 1.02 1.3 2.15 2.51 3.38 3.64 1.25 1.1 2.62 2.07 4.12 2.83l.04.02.05.01c1.45.31 2.89.55 4.36.7.73.07 1.47.13 2.22.13.74-.01 1.5-.05 2.25-.23l.19-.05.05-.17c.33-1.14.5-2.27.58-3.42.08-1.15.08-2.3-.01-3.44a23.99 23.99 0 0 0-.52-3.38c-.23-1.12-.59-2.2-.99-3.27-.94-1.86-2.02-3.63-3.13-5.4-1.14-1.74-2.35-3.46-3.85-4.95-.75-.74-1.6-1.4-2.5-1.96-.91-.56-1.88-.98-2.87-1.35-1.99-.73-4.08-1.08-6.19-1.12h-.08l-.04.04c-.89.85-1.22 1.93-1.54 2.98-.29 1.06-.45 2.16-.54 3.25-.09 1.09-.13 2.18-.11 3.28zm.33-3.27c.11-1.08.28-2.15.59-3.19.15-.52.35-1.02.59-1.49.23-.44.53-.89.86-1.18 2.01.12 4.01.6 5.9 1.29 1.9.73 3.7 1.74 5.19 3.13 1.5 1.39 2.82 2.99 4.04 4.67 1.22 1.67 2.29 3.46 3.28 5.28.37 1.07.71 2.15.91 3.27.24 1.11.32 2.24.36 3.37.04 1.13-.04 2.26-.19 3.37-.14 1.04-.35 2.09-.65 3.07-.62.1-1.26.12-1.91.1-.71-.01-1.43-.06-2.14-.14-1.41-.15-2.83-.4-4.21-.7-1.39-.74-2.72-1.62-3.93-2.66-1.2-1.07-2.33-2.24-3.35-3.49a42.391 42.391 0 0 1-2.82-3.96c-.86-1.37-1.66-2.79-2.33-4.25l-.16-1.59c-.05-.54-.06-1.09-.09-1.63-.04-1.1-.03-2.18.06-3.27z" fill="#bc7746" stroke-width="none" opacity="1" stroke="none"></path><path id="SvgjsPath23945" d="M52.2 80.53c.18-.69.39-1.36.67-2.03.07-.16.16-.33.26-.48.11-.15.23-.33.48-.37.45.02.72.22 1.06.37a18.3 18.3 0 0 1 3.48 2.44c.53.48 1.03 1.01 1.42 1.66.18.33.36.69.38 1.14.01.25-.01.36-.01.54l.01.51c.16 2.77.58 5.56.83 8.36l-.07.01c-.34-1.37-.61-2.75-.86-4.13-.26-1.39-.44-2.78-.55-4.2l-.03-.54v-.51c0-.26-.13-.56-.28-.84-.31-.57-.74-1.11-1.21-1.61-.94-1-2.01-1.94-3.22-2.61-.29-.16-.65-.33-.91-.33-.23.06-.41.43-.53.73-.26.63-.39 1.33-.52 2.01-.23 1.37-.39 2.77-.48 4.15-.02.34-.04.7-.02 1.01-.01.17.21.46.41.71.42.52.91 1.02 1.4 1.5.81.79 1.65 1.57 2.5 2.33.09-.91.18-1.82.24-2.74.04-.59.07-1.17.08-1.75.01-.53.01-1.07-.06-1.58-.15-.02-.33-.03-.5-.02a4.1 4.1 0 0 0-.69.1c-.46.1-.91.25-1.35.43l-.03-.07c.41-.25.85-.46 1.32-.62.23-.08.47-.15.72-.19.26-.04.49-.07.79-.01l.11.02.03.13c.15.61.18 1.21.22 1.81.02.6.02 1.19.01 1.79-.03 1.19-.08 2.37-.19 3.56l-.07.75-.58-.49c-1.08-.92-2.11-1.87-3.11-2.88-.49-.51-.98-1.03-1.43-1.61-.11-.15-.22-.3-.32-.47-.05-.09-.1-.18-.14-.29-.05-.11-.07-.28-.07-.37-.01-.39.03-.74.06-1.1.14-1.45.39-2.84.75-4.22z" fill="#9d521b" stroke-width="none" opacity="1" stroke="none"></path></g></g><g id="svga-group-ears-right-move" transform="matrix(1,0,0,1,0,0)"><g id="svga-group-ears-right" transform="matrix(1,0,0,1,0,0)"><path id="SvgjsPath23946" d="M131.2 87.48s4.2-8.27 8.66-11.42c4.46-3.15 9.84-3.15 9.84-3.15s3.02 2.1 1.97 12.6c0 0-4.46 10.76-12.47 14.7 0 0-5.77 1.31-8.66.66.01-.01-2.09-6.18.66-13.39z" fill="#cb8d60" stroke-width="none" opacity="1" stroke="none"></path><path id="SvgjsPath23947" d="M132.12 90.76s3.67-7.87 6.04-9.84c2.36-1.97 7.87-5.12 9.32-3.28 1.44 1.84 1.57 7.61 1.57 7.61s-1.57 4.59-6.3 7.09c-4.72 2.49-10.37 2.76-10.37 2.76l-.26-4.34z" fill="#bc7746" stroke-width="none" opacity="1" stroke="none"></path><path id="SvgjsPath23948" d="M151.91 78.96c-.09-1.09-.25-2.18-.54-3.25-.32-1.05-.65-2.13-1.54-2.98l-.04-.04h-.08c-2.11.04-4.21.39-6.19 1.12-.99.37-1.96.79-2.87 1.35-.9.56-1.75 1.22-2.5 1.96-1.5 1.49-2.71 3.21-3.85 4.95-1.11 1.77-2.18 3.54-3.13 5.4-.39 1.07-.76 2.15-.99 3.27a23.99 23.99 0 0 0-.52 3.38c-.1 1.14-.09 2.29-.01 3.44s.25 2.28.58 3.42l.05.17.19.05c.75.18 1.51.22 2.25.23.75 0 1.48-.05 2.22-.13 1.47-.15 2.91-.39 4.36-.7l.05-.01.04-.02c1.5-.76 2.87-1.73 4.12-2.83 1.23-1.12 2.36-2.34 3.38-3.64 1-1.31 1.93-2.68 2.75-4.11.82-1.43 1.57-2.89 2.2-4.42l.01-.03v-.02c.07-1.09.14-2.18.17-3.28.01-1.09-.03-2.18-.11-3.28zm-.16 3.28c-.03.54-.04 1.09-.09 1.63l-.16 1.59c-.67 1.47-1.47 2.89-2.33 4.25-.87 1.37-1.8 2.7-2.82 3.96a29.855 29.855 0 0 1-3.35 3.49 21.554 21.554 0 0 1-3.93 2.66c-1.38.3-2.8.54-4.21.7-.71.08-1.43.13-2.14.14-.64.01-1.29 0-1.91-.1-.3-.98-.51-2.03-.65-3.07-.15-1.11-.22-2.24-.19-3.37.04-1.13.12-2.26.36-3.37.2-1.12.54-2.2.91-3.27.98-1.82 2.05-3.61 3.28-5.28 1.21-1.67 2.54-3.28 4.04-4.67 1.49-1.39 3.28-2.4 5.19-3.13 1.88-.69 3.89-1.17 5.9-1.29.34.29.63.74.86 1.18.25.47.44.97.59 1.49.3 1.03.48 2.11.59 3.19.08 1.1.09 2.18.06 3.27z" fill="#bc7746" stroke-width="none" opacity="1" stroke="none"></path><path id="SvgjsPath23949" d="M147.8 80.53c-.18-.69-.39-1.36-.67-2.03-.07-.16-.16-.33-.26-.48-.11-.15-.23-.33-.48-.37-.45.02-.72.22-1.06.37a18.3 18.3 0 0 0-3.48 2.44c-.53.48-1.03 1.01-1.42 1.66-.18.33-.36.69-.38 1.14-.01.25.01.36.01.54l-.01.51c-.16 2.77-.58 5.56-.83 8.36l.07.01c.34-1.37.61-2.75.86-4.13.26-1.39.44-2.78.55-4.2l.03-.54v-.51c0-.26.13-.56.28-.84.31-.57.74-1.11 1.21-1.61.94-1 2.01-1.94 3.22-2.61.29-.16.65-.33.91-.33.23.06.41.43.53.73.26.63.39 1.33.52 2.01.23 1.37.39 2.77.48 4.15.02.34.04.7.02 1.01.01.17-.21.46-.41.71-.42.52-.91 1.02-1.4 1.5-.81.79-1.65 1.57-2.5 2.33-.09-.91-.18-1.82-.24-2.74-.04-.59-.07-1.17-.08-1.75-.01-.53-.01-1.07.06-1.58.15-.02.33-.03.5-.02.23.01.46.05.69.1.46.1.91.25 1.35.43l.03-.07c-.41-.25-.85-.46-1.32-.62a4.23 4.23 0 0 0-.72-.19c-.26-.04-.49-.07-.79-.01l-.11.02-.03.13c-.15.61-.18 1.21-.22 1.81-.02.6-.02 1.19-.01 1.79.03 1.19.08 2.37.19 3.56l.07.75.58-.49c1.08-.92 2.11-1.87 3.11-2.88.49-.51.98-1.03 1.43-1.61.11-.15.22-.3.32-.47.05-.09.1-.18.14-.29.05-.11.07-.28.07-.37.01-.39-.03-.74-.06-1.1a26.8 26.8 0 0 0-.75-4.22z" fill="#9d521b" stroke-width="none" opacity="1" stroke="none"></path></g></g><g id="svga-group-faceshape-wrap" transform="matrix(1,0,0,1,0,0)"><g id="svga-group-faceshape-single"><path id="SvgjsPath24024" d="M139.42 105.09c.29-8.36-.32-24.19.98-36.59 0 0 .9-9.5 0-13.6-2.2-10-6.3-16-15.2-20.8-9.3-5-25.2-4.8-25.2-4.8s-15.9-.2-25.2 4.8c-8.8 4.8-13 10.8-15.2 20.8-.9 4 0 13.6 0 13.6 1.3 12.4.52 25.14.91 34.65.49 15.53 4.95 26.5 10.09 33.1 12.7 15.7 29.4 15.35 29.4 15.35s15.46 1.51 28.16-14.19c8.05-9.99 10.85-20.76 11.26-32.32z" fill="#cb8d60" stroke-width="none" opacity="1" stroke="none"></path><path id="SvgjsPath24025" d="M87.9 137.9s8.6-8.5 21.2-.5c0 0-12.3-3-21.2.5z" fill="#ac642f" stroke-width="none" opacity="1" stroke="none"></path><path id="SvgjsPath24026" d="M128.16 137.41c8.06-9.99 10.86-20.76 11.26-32.32.29-8.36-.32-24.19.98-36.59 0 0 .9-9.5 0-13.6-2.2-10-6.3-16-15.2-20.8-9.3-5-25.2-4.8-25.2-4.8s-15.9-.2-25.2 4.8c-8.8 4.8-13 10.8-15.2 20.8-.9 4 0 13.6 0 13.6 1.3 12.4.52 25.14.91 34.65.49 15.53 4.95 26.5 10.09 33.1 12.7 15.7 29.4 15.35 29.4 15.35s15.46 1.51 28.16-14.19zm-5.62 4.69c-2.14 1.75-4.41 3.3-6.84 4.57-2.44 1.24-5 2.22-7.64 2.86-.66.18-1.32.32-1.99.43-.66.14-1.34.21-2.01.3-1.32.14-2.74.21-3.95.11h-.15c-2.6-.07-5.41-.57-8.03-1.33-2.64-.77-5.22-1.78-7.63-3.11-4.86-2.58-9.15-6.21-12.64-10.46-3.35-4.3-5.73-9.43-7.31-14.76-1.57-5.35-2.42-10.92-2.68-16.53-.33-5.63-.25-11.32-.34-17.02-.08-5.7-.31-11.42-.91-17.11-.33-2.83-.55-5.64-.65-8.47-.05-1.41-.06-2.82.01-4.22.04-.69.09-1.39.22-2.06.12-.68.3-1.37.45-2.06.69-2.73 1.64-5.39 2.96-7.86 1.36-2.45 3.09-4.69 5.19-6.55 2.09-1.86 4.49-3.41 6.99-4.67 2.51-1.23 5.24-2.02 7.99-2.63 5.52-1.15 11.21-1.55 16.83-1.46 5.62.17 11.28.81 16.68 2.19 2.7.69 5.33 1.6 7.71 2.91 2.43 1.34 4.72 2.89 6.7 4.76 4.02 3.71 6.38 8.86 7.71 14.27.73 2.59.72 5.42.74 8.24-.02 2.83-.18 5.62-.4 8.49-.68 11.42 0 22.8-.28 34.17-.21 5.61-1.03 11.23-2.84 16.53-1.8 5.31-4.6 10.23-8.11 14.54-.84 1.11-1.85 2.07-2.77 3.11-.45.53-1 .96-1.49 1.44-.49.45-.98.94-1.52 1.38z" fill="#9d521b" stroke-width="none" opacity="1" stroke="none"></path></g></g><g id="svga-group-mouth-single-move" transform="matrix(1,0,0,1,0,0)"><g id="svga-group-mouth-single" transform="matrix(1,0,0,1,0,0)"><path id="SvgjsPath24114" d="M90.58 121.95c-1.54.45-2.15 1.4-2.77 2.48-.62 1.08-1.43.91-2.08.75-.65-.16-.98.59.13 1.4 1.11.81 2.05.78 2.96-.33.91-1.11.78-2.41 2.7-3.13 1.92-.72 9.41-1.3 13.88.13 4.46 1.43 4.59 4.2 8.8 4.01s5.47-4.27 5.28-5.08c-.2-.81-.78-.49-1.82 1.14s-1.86 2.77-4.33 2.44c-2.48-.33-3.26-3.65-8.54-4.3s-10.08-.71-14.21.49z" fill="#904539" stroke-width="none" opacity="1"></path><path id="SvgjsPath24115" d="M116.93 120.59c-.8.07-.49 1.3.72 1.53 1.21.23 2.02 1.53 2.48 2.22.46.68 1.04.2 1.01-.81s-.69-3.24-4.21-2.94z" fill="#c38253" stroke-width="none" opacity="1"></path></g></g><g id="svga-group-eyes-left-move" transform="matrix(1,0,0,1,0,0)"><g id="svga-group-eyes-left" transform="matrix(1,0,0,1,0,0)"><g id="svga-group-eyesback-left"><path id="SvgjsPath23980" d="M80.2 74.2c7.5 0 13.5 5.8 13.5 13s-6 13-13.5 13-13.5-5.8-13.5-13 6-13 13.5-13z" fill="#ffffff" stroke-width="none" opacity="1"></path></g><g id="svga-group-eyesiriswrapper-left" transform="matrix(1,0,0,1,0,0)"><g id="svga-group-eyesiriscontrol-left" transform="matrix(1,0,0,1,0,0)"><g id="svga-group-eyesiris-left" transform="matrix(1,0,0,1,0,0)"><path id="SvgjsPath24041" d="M80.2 81.9c2.9 0 5.3 2.4 5.3 5.3s-2.4 5.3-5.3 5.3-5.3-2.4-5.3-5.3 2.4-5.3 5.3-5.3z" fill="#3c8d8e" stroke-width="none" opacity="1"></path><path id="SvgjsPath24042" d="M80.2 82.2c2.8 0 5.1 2.3 5.1 5.1s-2.3 5.1-5.1 5.1-5.1-2.3-5.1-5.1 2.3-5.1 5.1-5.1m0-.6c-3.1 0-5.6 2.5-5.6 5.6s2.5 5.6 5.6 5.6 5.6-2.5 5.6-5.6-2.5-5.6-5.6-5.6z" fill="#196e6f" stroke-width="none" opacity="1"></path><path id="SvgjsPath24043" d="M77.4 88.7c0 1.3.5 2.5 1.3 3.3.5.1 1 .2 1.5.2 2.8 0 5.1-2.3 5.1-5.1 0-1-.3-2-.8-2.8-.7-.3-1.4-.5-2.2-.5-2.8.1-4.9 2.3-4.9 4.9z" fill="#529c9d" stroke-width="none" opacity="1"></path><path id="SvgjsPath24044" d="M80.2 84.5c1.5 0 2.7 1.2 2.7 2.7s-1.2 2.7-2.7 2.7-2.7-1.2-2.7-2.7 1.2-2.7 2.7-2.7z" fill="#000000" stroke-width="none" opacity="1"></path><path id="SvgjsPath24045" d="M79 84.3c.8 0 1.4.6 1.4 1.4s-.6 1.4-1.4 1.4-1.4-.6-1.4-1.4.7-1.4 1.4-1.4zm2.7 4c.5 0 .9.4.9.9s-.4.9-.9.9-.9-.4-.9-.9.4-.9.9-.9z" fill="#ffffff" stroke-width="none" opacity="1"></path></g></g></g><g id="svga-group-eyesfront-left"><path id="SvgjsPath23988" d="M80.2 73.7c-7.8 0-14.1 6.1-14.1 13.6s6.3 13.6 14.1 13.6 14.1-6.1 14.1-13.6S88 73.7 80.2 73.7zm-8.6 16.4c-5-2.9-4.1-11 5.8-7.7 7.4 2.5 12.6 9.1 12.6 9.1-9.1 1-13.4 1.5-18.4-1.4z" fill="#cb8d60" stroke-width="none" opacity="1" stroke="none"></path><path id="SvgjsPath23989" d="M90.7 92.1S87.3 89.2 85 88c-2.3-1.2-5.8-4.8-9.8-4.9-4-.1-8.2 3.3-8.2 3.3s.8-4.5 3.6-6.8 6.6-2.1 10.1 0 8.5 8.4 10 12.5z" fill="#c38253" stroke-width="none" opacity="1" stroke="none"></path><path id="SvgjsPath23990" d="M90.7 92.1c-.3-.2-.5-.4-.8-.7l-1.8-1.5c-.9-.7-1.8-1.4-2.8-1.9-1-.5-1.9-1.2-2.8-1.9s-1.8-1.3-2.8-1.9-2.1-1-3.2-1.2-2.3-.1-3.4.2c-1.1.3-2.2.7-3.2 1.2-.8.4-1.6.9-2.4 1.5.3-1.2.7-2.3 1.3-3.4.7-1.2 1.6-2.4 2.8-3.1 1.2-.8 2.6-1.1 4-1.1s2.8.4 4.1 1c1.3.6 2.4 1.4 3.5 2.4s2 2 3 3.1c1.7 2.2 3.4 4.6 4.5 7.3-.5-1.4-1.2-2.6-2-3.9s-1.6-2.4-2.5-3.6c-.9-1.1-1.9-2.2-2.9-3.2-1.1-1-2.2-1.9-3.6-2.6-1.3-.7-2.8-1.1-4.3-1.1s-3 .3-4.3 1.2c-1.3.8-2.3 2-2.9 3.3-.7 1.3-1.2 2.7-1.5 4.2v.6l.5-.4c.4-.3.8-.6 1.3-.9 0 .6.2 1.3.5 1.8.5 1 1.2 1.9 2.1 2.5 1.8 1.2 3.9 2 6.1 2.3 1.1.1 2.2.2 3.2.2 1.1 0 2.2-.1 3.2-.2 2.1-.2 4.2-.5 6.4-.9.2.3.5.4.7.7zm-7.2-.2c-2.1.1-4.3.2-6.3-.1-2.1-.3-4.1-1-5.9-2.2-.9-.6-1.6-1.3-2.1-2.3-.3-.6-.5-1.2-.5-1.9 1.4-.8 2.8-1.5 4.4-1.9 1.1-.3 2.2-.4 3.3-.2 1.1.2 2.1.6 3.1 1.1 1 .5 1.9 1.2 2.8 1.8.9.6 1.8 1.3 2.9 1.8 1.7.9 3.2 2.1 4.7 3.2-2.1.4-4.2.6-6.4.7z" fill="#1b2a40" stroke-width="none" opacity="1" stroke="none"></path></g></g></g><g id="svga-group-eyes-right-move" transform="matrix(1,0,0,1,0,0)"><g id="svga-group-eyes-right" transform="matrix(1,0,0,1,0,0)"><g id="svga-group-eyesback-right"><path id="SvgjsPath23981" d="M119.8 74.2c7.5 0 13.5 5.8 13.5 13s-6 13-13.5 13-13.5-5.8-13.5-13 6-13 13.5-13z" fill="#ffffff" stroke-width="none" opacity="1"></path></g><g id="svga-group-eyesiriswrapper-right" transform="matrix(1,0,0,1,0,0)"><g id="svga-group-eyesiriscontrol-right" transform="matrix(1,0,0,1,0,0)"><g id="svga-group-eyesiris-right" transform="matrix(1,0,0,1,0,0)"><path id="SvgjsPath24046" d="M119.8 82.5c2.6 0 4.7 2.1 4.7 4.7s-2.1 4.7-4.7 4.7-4.7-2.1-4.7-4.7 2.1-4.7 4.7-4.7z" fill="#3c8d8e" stroke-width="none" opacity="1"></path><path id="SvgjsPath24047" d="M119.8 82.8c2.4 0 4.4 2 4.4 4.4s-2 4.4-4.4 4.4-4.4-2-4.4-4.4 1.9-4.4 4.4-4.4m0-.5c-2.7 0-4.9 2.2-4.9 4.9s2.2 4.9 4.9 4.9 4.9-2.2 4.9-4.9-2.2-4.9-4.9-4.9z" fill="#196e6f" stroke-width="none" opacity="1"></path><path id="SvgjsPath24048" d="M117.3 88.5c0 1.1.4 2.2 1.2 2.9.4.1.8.2 1.3.2 2.4 0 4.4-2 4.4-4.4 0-.9-.3-1.8-.7-2.4-.6-.3-1.2-.5-1.9-.5-2.4 0-4.3 1.9-4.3 4.2z" fill="#529c9d" stroke-width="none" opacity="1"></path><path id="SvgjsPath24049" d="M119.8 84.8c1.3 0 2.4 1.1 2.4 2.4s-1.1 2.4-2.4 2.4-2.4-1.1-2.4-2.4 1.1-2.4 2.4-2.4z" fill="#000000" stroke-width="none" opacity="1"></path><path id="SvgjsPath24050" d="M118.8 84.7c.7 0 1.2.5 1.2 1.2s-.5 1.2-1.2 1.2-1.2-.5-1.2-1.2.5-1.2 1.2-1.2zm2.3 3.5c.4 0 .8.4.8.8s-.4.8-.8.8-.8-.4-.8-.8.4-.8.8-.8z" fill="#ffffff" stroke-width="none" opacity="1"></path></g></g></g><g id="svga-group-eyesfront-right"><path id="SvgjsPath23991" d="M119.8 73.7c-7.8 0-14.1 6.1-14.1 13.6s6.3 13.6 14.1 13.6 14.1-6.1 14.1-13.6-6.3-13.6-14.1-13.6zm9.4 14.7c-5 2.9-9.7 4.7-18.7 3.7 0 0 5.5-5.9 13.1-7.5 7.7-1.7 10.6.8 5.6 3.8z" fill="#cb8d60" stroke-width="none" opacity="1" stroke="none"></path><path id="SvgjsPath23994" d="M109.7 92.7s3.4-2.9 5.7-4.1c2.3-1.2 6.5-3.9 10.5-3.9 4-.1 6.4 1.8 6.4 1.8s-2.4-4.2-5.2-6.4c-2.8-2.3-5.3-1.6-8.9.5s-6.9 8-8.5 12.1z" fill="#c38253" stroke-width="none" opacity="1" stroke="none"></path><path id="SvgjsPath23995" d="m133.1 87.4-.6-1c-1.4-2.4-3-4.7-5.2-6.5-.6-.4-1.2-.8-1.8-1.1-.7-.3-1.4-.4-2.1-.4-1.4.1-2.8.6-4 1.3-.6.3-1.2.7-1.8 1.1s-1.1.9-1.6 1.4c-1 1-1.8 2.1-2.6 3.2-1.5 2.3-2.8 4.8-3.8 7.3 1.1-2.5 2.4-4.9 4-7.2 1.6-2.2 3.4-4.3 5.9-5.4 1.2-.6 2.5-1.2 3.8-1.2 1.3-.1 2.6.5 3.6 1.4 1 .9 1.9 1.9 2.8 3 .6.8 1.2 1.7 1.8 2.5-.6-.3-1.3-.6-2-.8-1-.3-2.1-.5-3.2-.5-2.2-.1-4.2.6-6.1 1.5-1.9.9-3.7 1.9-5.6 3-1.8 1.1-3.4 2.4-5 3.8.3-.2.5-.4.8-.6 2 .3 3.9.5 5.9.5 2 0 4-.3 5.9-.8 1.9-.5 3.8-1.3 5.5-2.3.4-.2.9-.5 1.3-.7.4-.2.9-.5 1.2-.8s.8-.7 1.1-1.1c.1-.1.1-.3.2-.4.2.1.3.2.5.3l1.1.5zm-1.9-.9c-.3.4-.6.7-1 1-.4.3-.8.5-1.2.8s-.9.5-1.3.7c-1.7.9-3.6 1.7-5.4 2.2-1.9.5-3.8.8-5.8.9-2 .1-3.9 0-5.9-.1 1.4-1.1 2.8-2.1 4.3-3 1.8-1 3.7-2 5.6-2.8 1.9-.8 3.9-1.4 6-1.3 1 0 2 .2 3 .5.7.2 1.4.5 2 .8l-.3.3z" fill="#1b2a40" stroke-width="none" opacity="1" stroke="none"></path></g></g></g><g id="svga-group-facehighlight-single"></g><g id="svga-group-eyebrows-left-move" transform="matrix(1,0,0,1,0,0)"><g id="svga-group-eyebrows-left-rotate" transform="matrix(1,0,0,1,0,0)"><g id="svga-group-eyebrows-left" transform="matrix(1,0,0,1,0,0)"><path id="SvgjsPath23906" d="M69.24 72.85s6.67 3.31 14.75.4 8.87-4.04 8.27-6.05-2.44-4.67-4.37-4.33c-1.93.34-9.13 6.82-12.81 7.84-3.67 1.02-7.37 1.17-5.84 2.14z" fill="#2a232b" stroke-width="none" opacity="1"></path><path id="SvgjsPath23907" d="M68.9 72.58c.08.13.21.21.33.3 2.11.93 4.37 1.5 6.67 1.73 2.31.2 4.68 0 6.89-.7 1.11-.36 2.18-.78 3.24-1.23 1.06-.44 2.12-.9 3.16-1.4.26-.12.52-.25.77-.39l.38-.21.37-.22c.49-.3.98-.63 1.36-1.1.1-.11.17-.25.25-.38.06-.14.12-.28.16-.43.03-.15.06-.3.05-.45.01-.15-.01-.3-.03-.45-.1-.59-.3-1.14-.54-1.67a9.27 9.27 0 0 0-.87-1.53c-.34-.48-.75-.93-1.24-1.29-.12-.09-.26-.17-.39-.25-.14-.07-.28-.13-.43-.2-.3-.1-.62-.17-.95-.14l-.25.02-.25.06c-.15.05-.3.11-.43.17-.27.13-.53.27-.78.42-1.99 1.21-3.81 2.6-5.69 3.91-.93.66-1.88 1.3-2.84 1.91-.97.59-1.94 1.18-3.01 1.5-1.09.34-2.21.6-3.32.86-.56.14-1.12.25-1.67.42-.27.09-.56.16-.81.33-.06.05-.12.09-.15.17-.04.08-.03.18.02.24zm.06-.03c-.08-.12 0-.24.11-.31.23-.15.51-.23.79-.3.55-.14 1.12-.24 1.68-.34 1.13-.19 2.27-.38 3.4-.64.57-.13 1.14-.33 1.67-.57.53-.24 1.05-.52 1.55-.81 1.01-.58 1.96-1.23 2.91-1.88.94-.66 1.88-1.33 2.8-2.01.93-.67 1.85-1.35 2.81-1.95.24-.15.48-.29.73-.41.12-.06.24-.11.36-.15l.17-.05.18-.02c.49-.05 1 .14 1.44.44.88.62 1.58 1.56 2.09 2.55.25.5.47 1.03.58 1.57.03.13.05.27.05.4.01.14-.01.27-.03.4-.03.13-.08.25-.13.38-.08.11-.13.24-.22.34-.09.1-.17.22-.28.31l-.31.28c-.23.16-.45.34-.7.48-.12.07-.24.15-.36.22l-.38.2c-.25.14-.51.26-.77.38-1.04.48-2.11.88-3.19 1.26-.54.19-1.08.37-1.63.56-.54.19-1.09.32-1.63.49-2.18.61-4.45.83-6.73.81-2.26-.07-4.58-.45-6.67-1.39a.66.66 0 0 1-.29-.24z" fill="#1b141c" stroke-width="none" opacity="1"></path></g></g></g><g id="svga-group-eyebrows-right-move" transform="matrix(1,0,0,1,0,0)"><g id="svga-group-eyebrows-right-rotate" transform="matrix(1,0,0,1,0,0)"><g id="svga-group-eyebrows-right" transform="matrix(1,0,0,1,0,0)"><path id="SvgjsPath23908" d="M133.48 74.11s-5.61 3.59-13.07 1.8c-7.46-1.79-8.28-2.72-7.94-4.57.34-1.84 1.71-4.39 3.45-4.28 1.75.11 8.78 5.17 12.15 5.71 3.38.56 6.68.33 5.41 1.34z" fill="#2a232b" stroke-width="none" opacity="1"></path><path id="SvgjsPath23909" d="M133.76 73.63c-.04-.07-.1-.1-.15-.14-.24-.12-.5-.16-.75-.21-.51-.09-1.02-.14-1.53-.21-1.02-.12-2.04-.25-3.04-.44-.98-.18-1.91-.61-2.82-1.03-.91-.44-1.82-.92-2.71-1.42-1.8-.98-3.55-2.04-5.44-2.92-.24-.11-.48-.21-.74-.29-.13-.04-.26-.08-.4-.11l-.22-.03-.22.01c-.29.01-.57.11-.83.22-.12.07-.25.14-.36.22-.11.09-.22.16-.32.26-.4.37-.72.81-.98 1.26-.26.46-.47.94-.63 1.44-.16.5-.29 1.01-.32 1.54 0 .13-.01.27.02.4.01.14.05.27.09.4.04.13.12.25.18.37.09.1.16.22.26.31.38.38.85.63 1.32.85l.35.16.36.15c.24.1.48.19.72.27.97.34 1.95.65 2.94.94.99.29 1.98.56 3 .77 2.04.41 4.17.35 6.2-.05 2.03-.43 3.98-1.16 5.76-2.19.1-.08.2-.17.27-.3.03-.08.03-.17-.01-.23zm-.29.46c-1.76 1.04-3.78 1.6-5.79 1.89-2.02.25-4.06.27-6.06-.06-.5-.1-1-.16-1.5-.28-.5-.11-1-.22-1.5-.34-1-.23-1.99-.48-2.96-.81-.24-.08-.48-.16-.72-.26l-.36-.14c-.12-.05-.23-.11-.35-.16-.23-.1-.45-.24-.67-.36l-.31-.22c-.1-.07-.18-.17-.28-.25-.09-.08-.15-.19-.23-.28-.05-.11-.12-.21-.15-.32-.03-.12-.07-.23-.07-.35-.02-.12-.01-.24 0-.36.05-.49.19-.98.36-1.45.36-.93.88-1.83 1.61-2.47.36-.32.8-.53 1.24-.54h.16l.16.03c.11.03.22.06.34.1.23.08.46.18.68.29.91.43 1.8.95 2.69 1.45.89.51 1.78 1.02 2.69 1.51.91.48 1.82.97 2.77 1.38.47.21.96.4 1.46.56.49.17 1.02.29 1.54.35 1.03.12 2.06.18 3.08.23.51.03 1.02.07 1.53.13.25.04.51.08.73.19.11.05.19.16.13.27-.03.1-.13.19-.22.27z" fill="#1b141c" stroke-width="none" opacity="1"></path></g></g></g><g id="svga-group-beardwrap" transform="matrix(1,0,0,1,0,0)"><g id="svga-group-beard-single-move" transform="matrix(1,0,0,1,0,0)"><g id="svga-group-beard-single" transform="matrix(1,0,0,1,0,0)"></g></g></g><g id="svga-group-mustache-single-move" transform="matrix(1,0,0,1,0,0)"><g id="svga-group-mustache-single" transform="matrix(1,0,0,1,0,0)"><path id="SvgjsPath24129" d="m95.82 117.66.09-.27-.28.07-3.01.77.63-.98.36-.56-.66.15-2.27.53.43-1.07.24-.6-.63.16-2.93.73.42-.9.34-.74-.79.24c-.91.28-1.81.57-2.71.86l-.04-.61-.03-.43-.41.11-.83.22.5-.85.43-.73-.83.24-1.99.59.61-1.13.43-.81-.8.43-3.63 1.94.32-1 .09-.28-.27.1-1.32.49.27-1.05.03-.12-.11.06-1.12.62 1.06-.47-.36 1.09-.06.17.18-.05 1.23-.37-.44 1.15-.17.44.44-.21 3.29-1.6-.58.99-.39.67.76-.21 1.91-.54-.51.85-.43.72.82-.21 1.23-.31.04.65.03.46.45-.14c.79-.24 1.58-.5 2.37-.75l-.37.83-.3.68.71-.19 3.02-.79-.4 1.05-.23.59.6-.16 2.21-.59-.56.94-.32.53.58-.18 3.29-1-.31 1.1-.06.22.2-.08 2.83-1.11-2.69.83.4-1.18z" fill="#2a232b" stroke-width="none" opacity="1"></path><path id="SvgjsPath24130" d="m125.07 112.89-1-.12h-.03l-.02.02-.34.51-1.01-.44-.12-.05-.03.14-.14.74-1.75-.77-.27-.12-.01.31-.01.55-1.85-.66-.42-.15.08.45.14.82c-.75-.51-1.51-1.01-2.27-1.51l-.63-.42.12.75.37 2.32-1.24-.63-.4-.2-.12.43-.26.92-1.64-.51-.52-.16.06.54.09.87-2.41-.92-.37-.14-.07.39-.28 1.59-1.89-.62-.31-.1-.03.31-.14 1.39-1.81-1-.21-.12-.03.23-.21 1.66-2.21-1.13 2.24 1.38.12.08.03-.15.3-1.54 1.85 1.14.28.18.05-.34.2-1.39 1.91.72.34.13.07-.36.3-1.54 2.56 1.02.53.21-.05-.57-.08-.88 1.48.49.37.12.1-.38.24-.86 1.46.72.63.31-.12-.68-.39-2.26c.74.48 1.49.96 2.24 1.42l.6.37-.14-.67-.22-1.06 1.72.53.3.09-.01-.3-.01-.56 1.67.62.17.06.02-.17.1-.8.95.34.06.02.03-.05.32-.56h.97z" fill="#2a232b" stroke-width="none" opacity="1"></path></g></g><g id="svga-group-nose-single-move" transform="matrix(1,0,0,1,0,0)"><g id="svga-group-nose-single" transform="matrix(1,0,0,1,0,0)"><path id="SvgjsPath24097" d="M95.58 112.15c.82 0 1.4.7 1.57 1.63.17.93 1.58 2.48 3.09 2.57 1.51.09 2.04-.47 2.22-1.4.17-.93.64-2.62 1.11-2.68.47-.06.93.12 1.17.76.23.64.7 2.04 1.34 2.22.64.17 1.81-.7 2.27-1.17.47-.47 1.52-2.74 1.57-4.14.06-1.4-.87-4.02-1.92-4.78s-2.51-2.1-2.86-2.51c-.35-.41-.58-2.1-.76-3.09s-.99-2.16-2.86-2.57c-1.87-.41-5.48.06-5.83 1.63-.35 1.57-.23 5.77-.58 6.24s-1.98 2.27-2.8 3.21c-.82.93-1.98 3.03-1.69 5.13.29 2.1 1.05 2.74 2.04 2.33.99-.41 1.75-2.1 1.98-2.62.24-.53.94-.76.94-.76z" fill="#cb8d60" stroke-width="none" opacity="1"></path><path id="SvgjsPath24098" d="M97.05 83.93c-.2 3.57-.46 7.14-.71 10.71l-.43 5.36-.24 2.68-.13 1.34-.08.68-.08.4c-.03.07-.08.15-.12.22-.05.08-.08.11-.12.16-.61.74-1.22 1.34-1.78 2.03-.56.67-1.09 1.37-1.52 2.11-.43.74-.76 1.53-.86 2.33-.02.2-.05.4-.02.6.01.2.01.39.07.6.07.42.19.81.35 1.17.17.35.4.64.64.73.22.11.51.02.79-.19s.52-.53.71-.89c.11-.17.18-.37.27-.55.11-.22.19-.45.33-.66.25-.42.6-.91 1.28-1.1.33-.07.71-.03.98.13.28.15.5.35.67.56.34.43.54.92.65 1.41l.02.09.02.06.04.11c.01.08.07.15.11.23.09.15.19.29.33.42.52.53 1.31.91 2.07 1.01.38.05.76.02 1.01-.11.07-.03.1-.08.16-.11.05-.06.12-.12.17-.2.11-.15.21-.31.29-.5.18-.36.32-.77.47-1.2.16-.43.28-.88.69-1.36.22-.25.63-.45 1.03-.37.42.08.68.38.82.6.3.47.43.9.6 1.31.15.4.33.82.52 1 .1.07.08.08.26.07.16-.03.34-.07.52-.14.72-.29 1.34-.88 1.77-1.57.45-.69.68-1.51.77-2.34.1-.84.06-1.71-.12-2.53-.18-.83-.52-1.62-.99-2.32-.47-.71-1.1-1.31-1.77-1.86-.34-.27-.7-.52-1.07-.79-.09-.06-.19-.14-.28-.21l-.07-.06c-.03-.03-.06-.07-.09-.1-.07-.08-.09-.13-.12-.19-.12-.24-.18-.46-.25-.68-.24-.89-.4-1.77-.54-2.66-.27-1.78-.48-3.55-.68-5.33-.2-1.78-.36-3.56-.5-5.35.51 3.54.98 7.09 1.67 10.59.17.87.35 1.75.6 2.58.07.2.14.41.22.57.02.04.04.08.06.09.01.01.01.02.02.03l.06.05c.08.06.17.12.26.19.36.25.75.5 1.11.77.73.55 1.42 1.19 1.97 1.96.55.76.95 1.64 1.17 2.55.23.92.3 1.86.21 2.8-.09.94-.35 1.89-.88 2.72-.51.83-1.24 1.54-2.18 1.94a3 3 0 0 1-.77.21c-.16 0-.29.03-.5-.04a.682.682 0 0 1-.26-.11c-.08-.05-.16-.1-.21-.16-.45-.46-.58-.91-.76-1.33-.17-.41-.32-.84-.51-1.12-.1-.16-.19-.2-.21-.2-.04 0-.08 0-.17.08-.18.21-.34.63-.48 1.04-.14.42-.29.86-.5 1.3-.1.22-.23.44-.38.66-.08.11-.17.21-.27.31-.12.1-.24.21-.38.28-.55.29-1.1.29-1.6.24a4.683 4.683 0 0 1-2.68-1.28c-.18-.18-.35-.4-.48-.64-.06-.13-.14-.24-.17-.38l-.06-.21-.05-.17c-.08-.37-.24-.74-.45-1.01-.22-.29-.47-.4-.65-.36-.21.04-.48.3-.67.64-.11.16-.18.35-.27.53-.11.22-.19.44-.32.65-.24.43-.54.84-.98 1.17-.21.17-.47.3-.77.38-.15.03-.32.04-.47.04-.16-.03-.33-.04-.47-.12-.6-.26-.9-.76-1.12-1.21-.2-.46-.33-.93-.41-1.4-.05-.23-.06-.48-.08-.73-.03-.25.01-.5.04-.74.13-.98.53-1.86 1-2.66.48-.8 1.04-1.53 1.64-2.22.59-.68 1.26-1.33 1.81-1.96.08-.09.1-.13.13-.17.01-.09.03-.17.05-.25l.09-.65.17-1.33.3-2.66.57-5.33 1.17-10.68z" fill="#9d521b" stroke-width="none" opacity="1"></path></g></g><g id="svga-group-hair-front" transform="matrix(1,0,0,1,0,0)"></g><g id="svga-group-glasses-single-move" transform="matrix(1,0,0,1,0,0)"><g id="svga-group-glasses-single" transform="matrix(1,0,0,1,0,0)"></g></g></g></g></g><rect id="svga-credit-rect" width="200" height="15" x="0" y="185" fill="#ecf0f1" opacity="0.5" style="display: none;"></rect><text id="svga-credit-text" font-family="Avenir Next, Roboto, Helvetica, Arial, sans-serif" font-size="10px" text-anchor="start" font-weight="400" size="10px" anchor="start" weight="400" fill="#333333" x="33.43669891357422" y="182.60824704170227" style="display: none;"><tspan id="SvgjsTspan23447" dy="13" x="33.43669891357422">Created on AvatarMaker.com</tspan></text></g></svg>