<svg xmlns="http://www.w3.org/2000/svg" version="1.1" width="600px" height="600px" viewBox="0 0 200 200" style="overflow:hidden!important;"><defs id="SvgjsDefs21829"><linearGradient id="SvgjsLinearGradient22563" x1="80.8483" y1="78.7842" x2="80.8483" y2="101.3287" gradientUnits="userSpaceOnUse" class="svga-on-canvas-glasses-gradient-single-0-null"><stop id="SvgjsStop22564" stop-opacity="1" stop-color="#9bc2cf" offset="0" ></stop><stop id="SvgjsStop22565" stop-opacity="0" stop-color="#6086c4" offset="1" ></stop></linearGradient><linearGradient id="SvgjsLinearGradient22567" x1="-19.4949" y1="78.7842" x2="-19.4949" y2="101.3287" gradientTransform="matrix(-1 0 0 1 100 0)" gradientUnits="userSpaceOnUse" class="svga-on-canvas-glasses-gradient-single-1-null"><stop id="SvgjsStop22568" stop-opacity="1" stop-color="#9bc2cf" offset="0" ></stop><stop id="SvgjsStop22569" stop-opacity="0" stop-color="#6086c4" offset="1" ></stop></linearGradient></defs><g id="svga-group-wrapper"><g id="svga-group-backs-single"><path id="SvgjsPath22524" d="M0 0h200v200H0V0z" fill="#88a65e" stroke-width="none" opacity="1" stroke="none"></path></g><g id="svga-group-humanwrap-move" transform="matrix(1,0,0,1,0,0)"><g id="svga-group-humanwrap" transform="matrix(1,0,0,1,0,0)"><g id="svga-group-hair-back-move" transform="matrix(1,0,0,1,0,0)"><g id="svga-group-hair-back" transform="matrix(1,0,0,1,0,0)"><path id="SvgjsPath22619" d="M61.7 93.5s-5.2 14.9-5.8 24.5c-.6 9.6-1 17.8-.9 18.9 0 0 1.8 3.4 3.4 4.6l1.5-.6s.9 5.1 3.1 6.4l4.4-.8s3.9 2.8 4.8 2.7c.9-.1 2.9-.8 3.9-3.3 0 0 4.9 2.9 6-.4.1-.3-2.7-45.6-2.7-45.6s-7.5-9.7-17.7-6.4zm57.3 2.2s-.3 28.1-.2 31.9 1 17 1.5 17.5 4.4 1.5 4.4 1.5l4-3.7 1.4 3.2s5-.1 6-2c.3-.7.8-5.2.8-5.2s4.2.4 4.5-.9c.1-.4.7-4.5.2-6.8 0 0 2.8-1.8 3.1-3.9s-.3-9.5-3.4-19.2-4.5-18.5-4.5-18.5-9.7-2.9-17.8 6.1z" fill="#b7513b" stroke-width="none" opacity="1"></path><path id="SvgjsPath22620" d="M144.4 119.5c-2.2-9.9-4.5-20-7.4-29.7-.1-.4-.6-.2-.6.2 1.1 6.3 2.8 12.5 4.3 18.7 1.3 5.4 7.2 20.4-.9 22.4-.5-.7-1-1.4-1.5-2-.4-.5-.7-1.2-1.3-1.3-.4-5.3-1.2-10.7-1.6-16-.4-5.4-.3-10.9-.8-16.3 0-.3-.5-.3-.5 0-.7 5.6-.2 11.4.1 17.1.4 5.1.5 10.6 2.1 15.6.1.2.2.3.4.2.1.5.6.9.9 1.3.5.7 1.1 1.4 1.6 2.1 0 .3.3.6.7.6 6.2-1.7 5.6-8.2 4.5-12.9zm-2.7 12.2s-.2-.1-.2 0c-.1 0-.1.1-.1.1-.1.1-.3.3-.2.4.2 1.7.2 3.4-.1 5.1-.7.3-1.3.7-2.1.9-.9.2-1.7.1-2.6.2-.1 0-.2.1-.2.1-.3-5.8-1.7-11.6-2.6-17.3-1.1-6.7-2-13.4-3-20.2 0-.3-.5-.2-.5.1.2 6.2 1.2 12.3 2.1 18.3-.1-.2-.2-.5-.2-.7-.2-.5-1-.3-.8.2.3.9.5 1.8 1 2.6.1.1.3.2.4.1.9 5.8 1.7 11.8 3.2 17.5.1.2.4.2.4-.1l.1.1h.2c-.3 1.5-.5 3-.5 4.6v.1c-.9.2-1.8.7-2.6 1-1 .3-2.1.5-3.2.5h-.1c-4.4-16.1-7-31.7-5.6-48.5.1-.7-1-.7-1.1 0-1.3 15.1-.2 31.4 4.9 45.8-1.4 1-2.7 2.2-4 3.4-.5-.2-1.1-.4-1.6-.5-.7-.2-1.4-.5-2.1-.4.3-16.2-1.3-32.5-.9-48.8 0-.8-1.2-.8-1.2 0-.3 16.1-1.1 33.2 1.6 49.2 0 .1.1.1.2.1v.1c.6.4 1.4.5 2.1.7.6.1 1.1.3 1.7.3.2.3.5.4.8.2 1.2-1 2.5-2.1 3.6-3.2.3.8.6 1.6.9 2.3 0 .3.2.6.6.6 2 0 4.9-.5 6.1-2.2.3.1.6-.1.6-.4.2-1.5.2-3 0-4.4 1.4.2 3.2-.3 4.4-1.1.3.1.7 0 .8-.3.4-1.9.3-3.9.1-5.8 0-.5-.1-.7-.3-.7zm-62-31.6c-.1-.6-.9-.6-.9 0 .3 7.9 1 15.9 1.5 23.8.4 7.1.5 14.3 1.5 21.3-.1 0-.2 0-.2.1-1.6 1.4-3.3 1.1-5 .3.7-3.4-.1-8.2-.3-10.4-.8-12.2-.1-24.2 1.1-36.3 0-.4-.7-.6-.8-.1-1.2 7.6-1.6 15.3-1.6 23 0 3.8.1 7.6.3 11.5.2 2.8 2.7 15.8-3.4 15.3 0-.2-.1-.4-.3-.5-1.2-.3-2.5-1-3.5-1.9.8-8.8.7-17.6 1-26.4.3-8.8 1.1-17.8.7-26.6 0-.4-.6-.4-.7 0-1 8.8-.7 17.8-1 26.6-.3 8.7-.9 17.5-.6 26.2l-.1.1h-.1c-.7.1-1.4.2-2.2.4-.7.1-1.3.2-2 .4-.8-.8-1.5-1.7-1.9-2.8-.4-.9-.6-2-1-2.9l2.4-1.2c.3-.1.3-.5.1-.6-.4-7.6-.6-15.1 0-22.6.6-8.2 2.5-16.1 3.9-24.2.1-.3-.4-.4-.5-.1-5 14.5-5.8 31.8-4 46.9-1.1.6-2.3 1.1-3.4 1.8-.3-.7-1.2-1.2-1.7-1.8-.7-.8-1-1.7-1.5-2.6 0-.1-.1-.1-.2-.2.7-7.3.5-14.6 1.6-22 1.1-7.1 3-13.9 5-20.8.1-.5-.6-.7-.7-.2-2.8 7.6-4.5 15.6-5.6 23.5-.9 6.7-1.9 14-.9 20.7 0 .2.2.2.4.1.3.7.7 1.4 1.1 2.1.5.6 1.1 1.5 1.9 1.7 0 .2.1.3.3.3.4-.1.8-.3 1.2-.4-.3 2.2 1.3 4.6 2.8 6.1.2.1.3.2.5.1.7 0 1.3-.2 2-.3.8-.1 1.6-.2 2.4-.4.1 0 .2-.1.2-.2h.1c.4.5.7.9 1.2 1.2.6.4 1.3.8 2.1 1 0 .1.1.3.3.3 2.9.6 4.3-.7 5-2.8 1.7 1.2 4.4.7 5.8-.6.1 0 .2-.1.2-.2.2-7.6-.7-15.3-1.2-22.8-.3-7.7-.7-15.3-1.3-22.9zM56.5 128c.2 2.2 1.2 5 3.2 6.2.2.2.5-.1.4-.4-.5-.9-1.3-1.7-1.8-2.6-.5-1-.9-2.1-1.3-3.2-.1-.4-.5-.3-.5 0zm1.7-5.8c-1 2.1 0 5.1 1.2 6.9.2.3.6 0 .5-.3-.5-1.2-.9-2.3-1.1-3.6-.1-1 0-2-.2-3 0-.1-.3-.1-.4 0zm2.7-4.2c-.1-.2-.5-.2-.5.1 0 .9.1 1.7 0 2.6-.1 1-.4 1.9-.7 2.8-.1.3.3.4.4.2 1.2-1.5 1.5-3.9.8-5.7zm-2.1.5c-.1.2.3.4.4.2.8-1.7 1.4-3.8.9-5.6-.1-.3-.5-.3-.5 0-.4 1.8-.4 3.6-.8 5.4zm1.4-8.3c.3-.8.2-1.8.2-2.6 0-.4-.6-.4-.7 0-.1.8-.3 1.8-.1 2.6.2.2.5.2.6 0zm3.1 30c.1 1.2.8 3 2.1 3.3.3.1.4-.2.3-.4-.4-.5-.9-.8-1.2-1.3-.3-.5-.6-1-.7-1.6-.1-.3-.6-.3-.5 0zm2.9-1.4c-.2-.8-.8-1.4-1.2-2.1-.4-.9-.7-1.8-.9-2.8 0-.2-.4-.2-.4.1 0 1.7.5 4.3 2.1 5.2.2 0 .4-.2.4-.4zm-.3-8.4c-.4.8-.4 1.9-.6 2.8-.1.4.5.5.6.1.2-.9.6-1.9.5-2.8 0-.2-.3-.4-.5-.1zm67.7 12.1c.4-.4.6-.9.8-1.4l.6-1.5c.1-.4-.4-.6-.6-.2l-.9 1.5c-.2.4-.5.9-.5 1.4.1.3.4.4.6.2zm-.3-6.3c-.2.6-.7 1.1-1 1.7-.1.2.2.4.4.4.8-.2 1.2-1.2 1.3-1.9.1-.5-.5-.7-.7-.2zm6-1.5c.3 0 .4-.4.1-.5-.5-.4-1.1-.5-1.5-1-.2-.2-.6.1-.4.3.4.6 1.1 1.3 1.8 1.2zm-2.4 1.8c.4.4.9.7 1.4.6.2-.1.2-.3 0-.4-.4-.1-.7-.2-1.1-.5-.2-.3-.5 0-.3.3zm1.4-13.2c.3.7.6 1.3 1.1 1.9.4.5 1.1 1.2 1.8 1.3.2 0 .6-.2.4-.5-.4-.5-1-.8-1.4-1.2-.5-.5-.9-1.1-1.3-1.7-.2-.4-.7-.2-.6.2zm1.1-4.5c.1.7.5 1.3 1 1.8.5.4 1.2.8 1.9.6.2-.1.3-.4.1-.5-.4-.3-.9-.4-1.4-.7-.5-.3-.8-.8-1-1.4-.2-.3-.7-.1-.6.2zm.7-5c.6-.5.8-1.5.8-2.2 0-.3-.4-.3-.4 0 0 .8-.4 1.3-.7 2-.1.2.2.3.3.2zm-1.1-5.7c-.1.5-.2 1.1-.1 1.6.1.3.4.2.5 0 .2-.5.2-1.1.2-1.6.1-.4-.5-.4-.6 0zm-68.3 34c-.3-.2-.7.1-.4.4.5.5 1 1.1 1.6 1.4.2.1.5-.1.4-.4-.4-.6-1.1-1-1.6-1.4zm2.2-1.8c.2 0 .3-.3.2-.4-.4-.4-.9-.6-1.3-1-.5-.4-.8-.8-1.1-1.4-.2-.3-.7 0-.5.3.4 1 1.5 2.5 2.7 2.5zm-1.9-9.7c1.4-.5 2-2.1 1.7-3.5-.1-.4-.7-.3-.7.1.1 1.2-.5 2.1-1.3 2.8-.3.3 0 .7.3.6zm-5.1-7c.2.1.4-.1.3-.2-.1-.6-.6-1.1-.9-1.5-.4-.5-.8-1.1-1.3-1.6-.2-.2-.6.1-.4.3.4.6.7 1.1 1.1 1.7.4.5.7 1 1.2 1.3zm64 5.3c.3 0 .3-.3.2-.5-.2-.3-.6-.5-.9-.8-.3-.3-.5-.7-.7-1.1-.2-.4-.8-.2-.7.2.4 1 1.1 2.2 2.1 2.2zm-6 12.5c.8-.4 1.3-1.3 1.6-2.1.1-.3-.4-.5-.5-.1-.2.8-.8 1.4-1.2 2-.2.1 0 .2.1.2zm-1.5-5.5c.4-.3.7-.8 1.1-1.2.2-.2-.2-.6-.4-.4-.3.4-.8.8-1 1.3-.1.3.1.5.3.3z" fill="#a83c25" stroke-width="none" opacity="1"></path></g></g><g id="svga-group-humanbody-back"><path id="SvgjsPath22228" d="M180.8 184.9c-2.3-3.4-38.9-17.8-38.9-17.8l-13.4-5.2-5.6-68.8H76.8L71.3 162l-13.4 5.2S21.4 181.6 19 185c-2.3 3.4-3.3 14.9-3.3 14.9V219h168.5v-19.2c-.1.1-1-11.5-3.4-14.9z" fill="#875732" stroke-width="none" opacity="1" stroke="none"></path></g><g id="svga-group-chinshadow-single"><path id="SvgjsPath22466" d="M72.43 148.33c4.6 7.26 7.3 11.9 8.92 12.82 2.3 1.3 12.8 1.3 12.8 1.3s10.6 0 12.8-1.3c2.4-1.2 6.9-10 15.9-23.3 1.24-1.83 2.35-3.42 3.34-4.83l-3.25-39.92H76.82l-4.39 55.23z" fill="#683712" stroke-width="none" opacity="1" stroke="none"></path></g><g id="svga-group-humanbody-front"><path id="SvgjsPath22229" d="M184.5 219c-.1-6.4-.1-12.8-.1-19.2l-.3-.1s.1-.1.2 0c.1 0 .1.1.1.1v-.4l-.1-.5-.1-.9-.2-1.9c-.2-1.3-.4-2.5-.6-3.8-.2-1.3-.5-2.5-.9-3.8-.4-1.2-.8-2.5-1.5-3.6-.8-.9-1.9-1.5-2.9-2.1-1-.6-2.1-1.1-3.2-1.7-2.1-1.1-4.3-2.1-6.5-3.1-4.4-2-8.7-3.9-13.1-5.7-4.4-1.9-8.8-3.7-13.2-5.5l-13-5.2-1.2-16.9c-.4-5.7-.9-11.5-1.3-17.2l-1.3-17.2-1.5-17.3-.1-.8h-.8c-7.7 0-15.4.1-23.1.1l-23.1.2h-.5v.5L75 110.2l-1.3 17.2c-.8 11.4-1.8 22.8-2.8 34.2-5.6 2.1-11.2 4.2-16.7 6.4-5.6 2.2-11.2 4.5-16.8 6.9-2.8 1.2-5.6 2.4-8.3 3.6-2.8 1.3-5.5 2.5-8.2 4.1-.7.4-1.3.8-2 1.4-.2.1-.4.4-.5.6l-.3.6c-.2.4-.4.7-.5 1.1-.6 1.5-1 3-1.3 4.5-.6 3-1.1 6-1.4 9.1l-.1 19.1v.9h.9l42.1.1H100c14 0 28.1-.1 42.1-.2l42.1-.5h.3v-.3zm-84.5-1-42.1-.1-41.2.1-.1-18.1c.3-3 .6-5.9 1.2-8.9.3-1.4.6-2.9 1.1-4.2.1-.3.3-.7.4-.9l.2-.4.3-.3c.5-.4 1.1-.8 1.8-1.2 2.5-1.5 5.3-2.8 8-4.1 2.7-1.3 5.5-2.5 8.2-3.7 5.5-2.4 11.1-4.8 16.7-7.1s11.2-4.5 16.9-6.7l.2-.1v-.2c.9-11.5 1.7-23 2.7-34.4l1.4-17.2 1.5-16.7 22.6.2c7.4.1 14.8.1 22.3.1l1.3 16.4 1.5 17.2c.5 5.7 1 11.5 1.5 17.2l1.6 17.2v.3l.3.1 13.4 5c4.4 1.7 8.9 3.4 13.3 5.2 4.4 1.8 8.8 3.7 13.2 5.6 2.2 1 4.3 2 6.5 3 1.1.5 2.1 1.1 3.2 1.6 1 .6 2.1 1.2 2.9 2 .7 1.1 1.1 2.3 1.4 3.5.3 1.2.6 2.5.8 3.7.2 1.3.4 2.5.6 3.8l.2 1.9.1.9.1.5v.4c0 6.3 0 12.6-.1 18.9l-41.8-.5c-14 .1-28.1 0-42.1 0z" fill="#592a06" stroke-width="none" opacity="1" stroke="none"></path><path id="SvgjsPath22230" d="M125.1 142.4s-1.8 23-9.1 32.9c0 0 7.9-25 9.1-32.9zm-34.5 16s5 7.9 11.5 10.1c0 0-9.5 2.2-11.5-10.1zM73.4 140c6.7 25.6 6.7 25.6 8.5 30.7 0 0 .4-12.6-8.5-30.7z" fill="#683712" stroke-width="none" opacity="1" stroke="none"></path></g><g id="svga-group-clothes-single"><path id="SvgjsPath22363" d="M61.8 186.6s14.4 11.8 17.6 14.6c3.2 2.8 21.3 12 21.3 12s19.2-9.9 22.4-12.5c3.2-2.6 14.4-17.4 14.4-17.4V220H66.4l-4.6-33.4z" fill="#efefef" stroke-width="none" opacity="1"></path><path id="SvgjsPath22364" d="M67 148.7s-7.2 5.3-11 8.6-9.9 6.6-9.9 6.6l2.9 1.6s-5.5 3.2-10.9 4.8c-5.5 1.6-20.1 5.2-21.1 5.7s-2.3 2.9-2.3 2.9-4.4.9-4.9 11.1c-.6 10.2-1.3 30-1.3 30h64.1s-5.8-35.1-6.3-39.2c0-.4 1.2-16.6 1.2-18 0-1 4.4-11.7 4.3-15.4-.1-1.5-4.8 1.3-4.8 1.3zm66 0s7.2 5.3 11 8.6 9.9 6.6 9.9 6.6l-2.9 1.6s5.5 3.2 10.9 4.8c5.5 1.6 20.1 5.2 21.1 5.7s2.3 2.9 2.3 2.9 4.4.9 4.9 11.1 1.3 29.9 1.3 29.9h-64.1s5.8-35.1 6.3-39.2c0-.4-1.1-16.6-1.1-18 0-1-3.5-12.8-3.7-15.9-.1-1.2 4.1 1.9 4.1 1.9z" fill="#1d282e" stroke-width="none" opacity="1"></path><path id="SvgjsPath22365" d="M138.2 164.1s4.9 11.3 6.3 13.8c1.4 2.6 12.2 10.8 12.2 10.8s-15.5 12.9-15.7 14.5c-.2 1.6-3.1 11.7-3.1 11.7l4.2-9.9s6.6-5.6 8.2-6.6 14.1-9.9 14.1-9.9-16.2-11-17.8-12.7c-1.6-1.4-8.4-11.7-8.4-11.7zm26.3 9.6c-3.5-.9-10.1-4.2-12.7-5.6 0 0 8 5.4 10.6 6.8 2.6 1.4 15.5 3.8 15.5 4.5 0 .7-4 5.2-4.9 7.5-.9 2.4-.9 9.1-.9 9.1s1.9-5.9 3.1-8.9 7.7-7.3 7.7-7.3 0-1.6-.9-2.6-14-2.6-17.5-3.5zm24.1 12.9c-.2-2.6-2.1-4.5-3.8-5.2 0 0 .9 1.6 1.2 2.6s.7 11.5.7 15.9 3.1 16.9 3.1 16.9-.9-27.6-1.2-30.2zM65.5 161.7c-.5 5.4-2.6 17.6-3.5 21.4-.9 3.8-.2 18.1-.2 18.1s.7-12.7 1.9-15.5c1.2-2.8 2.6-10.3 2.4-12.4-.4-2.2-.6-11.6-.6-11.6zm-43.1 14.5c-1.6.4-4.3 1.2-5.1 2.2 0 0 0 1.4 7.5-.8 5.3-1.5 14.7-5.8 19.7-8.2-6.9 2.7-20.8 6.5-22.1 6.8zm22.1-6.8c1.6-.6 2.9-1.2 3.5-1.6-.1 0-1.4.6-3.5 1.6zm-2.1 22.9c-2.2-1-5.7-2.4-5.7-2.4 4.1 1.8 21.2 14.6 21.2 14.6l6.3 13.8s-4.5-14.6-5.5-15.5c-.9-1-14.1-9.5-16.3-10.5z" fill="#2d373d" stroke-width="none" opacity="1"></path><path id="SvgjsPath22366" d="M190.8 190.1c-.5-9.2-4.1-11.1-5.1-11.4-.4-.6-1.4-2.5-2.4-2.9-.5-.3-3.8-1.1-9.1-2.5-4.4-1.1-9.3-2.4-12-3.2-4.1-1.3-8.4-3.4-10.1-4.4l2.9-1.7-.8-.4c-.1 0-6.1-3.3-9.8-6.5-3.8-3.3-10.9-8.6-11-8.6l-.8-.6-4.8-2.4 1.1 16.4 3.1 1.2c0 1.1.4 6.1.7 10.5.2 3.5.5 7 .5 7.3-.1 1.2-.7 4.9-1.4 9.7-.6.8-1.2 1.5-1.8 2.2-1.3 1.6-2.6 3.1-3.9 4.6-.7.8-1.3 1.5-2 2.2-.3.4-.7.7-1.1 1-.4.3-.8.6-1.2.8-3.4 2.1-7 4-10.5 5.9-3.5 1.9-7 3.7-10.5 5.5-3.4-1.7-6.9-3.5-10.3-5.3-1.7-.9-3.5-1.9-5.2-2.9-1.7-1-3.4-1.9-5-3.1L68.5 192c-.9-5.4-1.6-9.9-1.7-11.1 0-.3.2-3.9.5-7.3.3-4.4.6-8.9.7-10.2l3.1-1.4 1.3-15.9-5 1.7-.8.6c-.1.1-7.2 5.4-11 8.6-3.7 3.2-9.8 6.5-9.8 6.5l-.8.4 2.9 1.7c-1.7.9-5.9 3.1-10 4.4-2.7.8-7.6 2.1-12 3.2-5.3 1.4-8.6 2.2-9.1 2.5-1 .5-2.1 2.3-2.4 2.9-1 .4-4.6 2.2-5.1 11.4-.6 10.1-1.3 29.8-1.3 30v.5h184.1v-.5c-.1-.2-.8-19.9-1.3-29.9zM30.4 219.5c-.1-3.5-.3-6.9-.9-10.4-.7-3.7-1.4-7.4-2.3-11-.5-1.8-.9-3.6-1.5-5.4-.6-1.8-1.2-3.6-2.2-5.2-1.1-1.6-2.3-3-3.6-4.4-.6-.7-1.3-1.4-2-2-.7-.6-1.3-1.4-2.2-1.8.4.2.7.6 1 .9.3.3.6.7.9 1l1.8 2.1c1.2 1.4 2.4 2.9 3.3 4.5.9 1.6 1.5 3.4 2 5.1.5 1.8 1 3.6 1.4 5.4.9 3.6 1.6 7.3 2.5 10.9.4 1.8.7 3.7.9 5.5.4 1.6.6 3.2.9 4.8H9c.1-3.2.8-20.3 1.2-29.4.5-9.6 4.5-10.6 4.6-10.6l.2-.1.1-.2c.5-.9 1.4-2.4 2.1-2.7.5-.2 4.8-1.4 8.9-2.4 4.4-1.1 9.4-2.4 12.1-3.2 4.9-1.5 9.8-4.2 10.8-4.8.6.4 1.2.7 1.8 1.1l2.5 1.5c.4.2.8.5 1.2.8l.6.3c-2.1 2.2-4.3 4.2-6.7 6l-8.4 6.1c-2.8 2.1-5.6 4.1-8.4 6.2l-1.1.8 1.2.8 6.1 4.1 6.1 4.1 6.2 4.1c1 .7 2.1 1.4 3 2l2.8 2.2c1.2 2.3 2.3 4.6 3.5 6.9l3.3 6.3H30.4zm32.4 0c-.9-2.2-1.8-4.4-2.7-6.7-1-2.4-2-4.9-3.1-7.3v-.1l-.1-.1c-.9-.8-1.8-1.7-2.8-2.5-1-.8-2-1.5-3-2.2-2-1.4-4-2.8-6-4.3s-4-2.8-6.1-4.2c-1.7-1.1-3.3-2.3-5-3.4 2.4-1.8 4.8-3.6 7.2-5.5 2.7-2.1 5.5-4.2 8.2-6.4 2.8-2.2 5.2-4.8 7.4-7.5s4.3-5.5 6-8.5c-2.1 2.7-4.4 5.4-6.8 7.9-.2.3-.5.5-.7.8-.2-.1-.4-.3-.6-.4-.4-.3-.7-.7-1.1-1-.8-.6-1.6-1.2-2.4-1.7-.8-.5-1.6-1.1-2.5-1.6l-1.2-.6-.6-.4c1.8-1 6.2-3.6 9.2-6.2 3-2.6 10.2-8 10.2-8l4.1-2.1s-3.7 14.6-3.7 15.3c0 .8-.4 5.9-.7 10.5-.4 5.7-.5 7.3-.5 7.5 0 .1 0 .3.1.4-.2.6-.4 1.2-.5 1.9l-.9 3.9c-.3 1.3-.5 2.6-.8 3.9-.2 1.3-.5 2.6-.7 3.9-.1 2.3-.2 4.5-.1 6.8.4-2.2.7-4.5 1-6.7.3-1.3.5-2.6.8-3.9.2-1.3.5-2.6.7-3.9l.6-3.9c0-.2.1-.5.1-.7 1.1 7.5 5.2 32.6 6 36.9l-9 .1zm57 0H84.2c-3.7 0-7.4 0-11.2.1-.4-2.4-2.8-16.6-4.4-27.2.8.7 1.6 1.4 2.4 2 3 2.6 5.9 5.1 8.9 7.6 1.6 1.2 3.3 2.2 5 3.2 1.7 1 3.4 1.9 5.2 2.9 3.5 1.9 7 3.7 10.5 5.5l.2.1.2-.1c3.6-1.9 7.1-3.7 10.7-5.7 3.5-1.9 7.1-3.9 10.4-6.1l1.2-.9c.4-.4.8-.7 1.1-1.1.7-.7 1.4-1.5 2-2.3 1.3-1.5 2.6-3.1 3.8-4.7.5-.6.9-1.1 1.4-1.7-1.7 10.7-4.2 25.9-4.7 28.4h-7.1zm8.2 0c.7-4.3 4.9-29.4 6-36.9 0 .2.1.5.1.7l.6 3.9c.2 1.3.5 2.6.7 3.9.3 1.3.5 2.6.8 3.9.2 2.2.6 4.5 1 6.7.1-2.3 0-4.6-.1-6.8-.2-1.3-.4-2.6-.7-3.9-.2-1.3-.5-2.6-.8-3.9l-.9-3.9c-.1-.6-.3-1.2-.5-1.9 0-.2 0-.3.1-.4 0-.2-.1-1.8-.5-7.5-.3-4.6-.7-9.8-.7-10.6 0-.9-3.7-15.8-3.7-15.8l4.2 2.6s7.2 5.4 10.2 8c3 2.6 7.4 5.2 9.2 6.2l-.6.4-1.2.6c-.9.5-1.7 1-2.5 1.6-.8.6-1.6 1.1-2.4 1.7-.4.3-.7.7-1.1 1-.2.2-.4.3-.6.4-.2-.2-.5-.5-.7-.8-2.4-2.5-4.6-5.2-6.8-7.9 1.8 3 3.9 5.8 6.1 8.5 2.2 2.7 4.6 5.3 7.4 7.5 2.7 2.2 5.5 4.3 8.2 6.4 2.4 1.9 4.8 3.7 7.2 5.5-1.7 1.1-3.3 2.2-5 3.4-2 1.4-4.1 2.8-6.1 4.2-2 1.4-4 2.8-6 4.3-1 .7-2 1.4-3 2.2-.9.8-1.9 1.6-2.8 2.5l-.1.1-.1.1c-1 2.4-2.1 4.9-3.1 7.3l-2.7 6.6-9.1.1zm41.7 0c.2-1.6.4-3.1.6-4.7.3-1.9.5-3.7.9-5.5.9-3.6 1.6-7.3 2.5-10.9.4-1.8.9-3.6 1.4-5.4s1.1-3.6 2-5.1c.9-1.5 2.1-3 3.3-4.5l1.8-2.1c.3-.4.6-.7.9-1 .3-.3.6-.7 1-.9-.8.4-1.5 1.2-2.2 1.8l-2 2c-1.3 1.4-2.5 2.8-3.6 4.4-1.1 1.6-1.6 3.4-2.2 5.2-.6 1.8-1.1 3.6-1.5 5.4-.9 3.7-1.6 7.3-2.3 11-.4 3.4-.6 6.8-.6 10.3h-32.4l3.3-6.3c1.2-2.3 2.4-4.6 3.5-6.9l2.8-2.2c1-.7 2-1.4 3-2l6.1-4.1 6.1-4.1 6.1-4.1 1.2-.8-1.1-.8c-2.8-2.1-5.6-4.2-8.4-6.2l-8.4-6.1c-2.4-1.8-4.6-3.8-6.7-6l.6-.3c.4-.2.8-.5 1.2-.8l2.5-1.5c.6-.3 1.2-.7 1.8-1.1 1 .6 5.9 3.3 10.8 4.8 2.7.8 7.7 2.1 12.1 3.2 4.2 1.1 8.5 2.2 8.9 2.4.6.3 1.6 1.8 2.1 2.7l.1.2.2.1s4.1 1 4.6 10.6c.5 9.1 1.1 26.2 1.2 29.4h-21.2zm22.4 1z" fill="#000000" stroke-width="none" opacity="1"></path></g><g id="svga-group-head" transform="matrix(1,0,0,1,0,0)"><g id="svga-group-ears-left-move" transform="matrix(1,0,0,1,0,0)"><g id="svga-group-ears-left" transform="matrix(1,0,0,1,0,0)"><path id="SvgjsPath22382" d="M70.01 81.26s-3.24-4.86-12.55-8.1c0 0-3.1-.67-10.39 10.66 0 0-1.35 5.94 5.13 15.65 0 0 6.34 3.37 16.73-1.21 0 0 4.72-7.69 1.08-17z" fill="#875732" stroke-width="none" opacity="1" stroke="none"></path><path id="SvgjsPath22383" d="M68.66 90.08s-5.67-8.43-10.93-11.38c0 0-3.51 2.67-6.48 7.73 0 0 2.97 6.89 4.45 8.71 0 0 3.64 1.41 11.2-.56l1.76-4.5z" fill="#784620" stroke-width="none" opacity="1" stroke="none"></path><path id="SvgjsPath22384" d="M46.91 83.79c-.12.72-.12 1.43-.08 2.13.03.71.12 1.41.22 2.1.23 1.39.63 2.75 1.08 4.08.45 1.34 1.04 2.62 1.65 3.9.32.63.66 1.25 1 1.87l1.1 1.81.05.08.09.04c1.39.67 2.82.98 4.28 1.17 1.46.18 2.94.17 4.4.04 1.46-.13 2.9-.44 4.3-.84.71-.19 1.39-.45 2.08-.68l2.03-.82.13-.05.07-.12c.77-1.34 1.25-2.75 1.64-4.19.39-1.44.58-2.93.62-4.41.04-1.48-.04-2.97-.34-4.41-.21-1.46-.68-2.86-1.19-4.24-.75-1.04-1.67-1.91-2.62-2.75-.96-.83-1.97-1.6-3.03-2.3-1.06-.7-2.17-1.33-3.3-1.9-1.14-.58-2.32-1.04-3.51-1.49l-.03-.01h-.02c-.53-.05-.8.08-1.15.19-.32.12-.62.29-.91.46-.56.36-1.08.76-1.57 1.19-.98.85-1.83 1.83-2.63 2.82-1.61 2-2.97 4.15-4.35 6.28l-.02.03.01.02zm.32.09c.7-1.04 1.4-2.08 2.17-3.07.76-1.01 1.55-1.99 2.39-2.94.84-.93 1.7-1.85 2.64-2.66.47-.4.96-.78 1.48-1.09.26-.16.52-.29.79-.4.24-.1.57-.18.69-.18l1.73.62 1.73.71c1.15.49 2.28 1.03 3.37 1.66 1.08.63 2.15 1.3 3.12 2.09.97.79 1.9 1.66 2.65 2.66.47 1.38.89 2.78 1.07 4.23.2 1.44.19 2.91.05 4.35-.13 1.44-.45 2.86-.87 4.23-.4 1.33-.96 2.63-1.61 3.8l-1.83.73c-.67.21-1.34.46-2.02.64-1.36.38-2.75.65-4.14.82-1.4.15-2.81.18-4.21.04-1.35-.15-2.75-.43-3.95-.95l-1.08-1.65-1.06-1.79c-.66-1.22-1.3-2.46-1.79-3.76-.51-1.29-.92-2.63-1.17-4-.27-1.35-.38-2.76-.15-4.09z" fill="#784620" stroke-width="none" opacity="1" stroke="none"></path><path id="SvgjsPath22385" d="M52.21 84.06c.46-.6.96-1.16 1.45-1.73 1.01-1.12 2.05-2.19 3.12-3.26l.12-.12.16.12c.9.67 1.74 1.43 2.52 2.24.77.82 1.44 1.71 2.09 2.62 1.27 1.84 2.38 3.77 3.26 5.82l-.08.04c-1.24-1.84-2.49-3.65-3.81-5.4-.66-.87-1.34-1.73-2.03-2.57-.66-.79-1.34-1.57-2.09-2.27-1.1.89-2.11 1.91-3.01 3-.91 1.1-1.7 2.31-2.27 3.59.53 1.19 1.08 2.38 1.66 3.54.53 1.03 1.08 2.07 1.7 3.01.68-.6 1.35-1.23 1.97-1.88.72-.77 1.38-1.61 1.82-2.53-.13-.47-.36-.96-.61-1.42a7.38 7.38 0 0 0-1.01-1.36l.06-.07c.46.35.88.77 1.24 1.23.18.23.35.48.49.74.15.26.28.52.39.83l.02.07-.03.1c-.36 1.14-1.06 2.08-1.76 2.96-.72.89-1.51 1.68-2.37 2.45l-.39.34-.31-.42c-.85-1.16-1.45-2.4-2.02-3.65-.58-1.25-1.09-2.51-1.56-3.8l-.06-.15.07-.12c.38-.72.81-1.35 1.27-1.95z" fill="#592a06" stroke-width="none" opacity="1" stroke="none"></path></g></g><g id="svga-group-ears-right-move" transform="matrix(1,0,0,1,0,0)"><g id="svga-group-ears-right" transform="matrix(1,0,0,1,0,0)"><path id="SvgjsPath22386" d="M129.99 81.26s3.24-4.86 12.55-8.1c0 0 3.1-.67 10.39 10.66 0 0 1.35 5.94-5.13 15.65 0 0-6.34 3.37-16.73-1.21 0 0-4.72-7.69-1.08-17z" fill="#875732" stroke-width="none" opacity="1" stroke="none"></path><path id="SvgjsPath22387" d="M131.34 90.08s5.67-8.43 10.93-11.38c0 0 3.51 2.67 6.48 7.73 0 0-2.97 6.89-4.45 8.71 0 0-3.64 1.41-11.2-.56l-1.76-4.5z" fill="#784620" stroke-width="none" opacity="1" stroke="none"></path><path id="SvgjsPath22388" d="m153.08 83.76-.02-.03c-1.38-2.13-2.74-4.29-4.35-6.28-.8-1-1.65-1.97-2.63-2.82-.49-.43-1-.84-1.57-1.19-.28-.18-.58-.34-.91-.46-.35-.11-.63-.24-1.15-.19h-.02l-.03.01c-1.19.45-2.38.92-3.51 1.49-1.14.58-2.24 1.2-3.3 1.9-1.06.7-2.07 1.47-3.03 2.3-.95.84-1.86 1.71-2.62 2.75-.51 1.38-.98 2.78-1.19 4.24-.29 1.45-.38 2.93-.34 4.41.04 1.48.23 2.97.62 4.41.39 1.45.87 2.85 1.64 4.19l.07.12.13.05 2.03.82c.69.22 1.38.49 2.08.68 1.41.4 2.84.7 4.3.84 1.46.13 2.94.14 4.4-.04 1.47-.19 2.9-.49 4.28-1.17l.09-.04.05-.08 1.1-1.81c.33-.62.68-1.24 1-1.87.61-1.27 1.2-2.56 1.65-3.9.45-1.33.85-2.69 1.08-4.08.11-.7.19-1.4.22-2.1.04-.71.04-1.41-.08-2.13l.01-.02zm-.43 4.21c-.25 1.37-.65 2.71-1.17 4-.49 1.3-1.13 2.54-1.79 3.76l-1.06 1.79-1.08 1.65c-1.21.52-2.6.81-3.95.95-1.4.14-2.81.11-4.21-.04-1.4-.17-2.78-.44-4.14-.82-.68-.18-1.35-.43-2.02-.64l-1.83-.73c-.65-1.18-1.21-2.48-1.61-3.8-.42-1.38-.74-2.79-.87-4.23-.14-1.44-.15-2.9.05-4.35.17-1.45.6-2.85 1.07-4.23.74-1 1.67-1.88 2.65-2.66.98-.79 2.04-1.46 3.12-2.09 1.09-.62 2.22-1.16 3.37-1.66l1.73-.71 1.73-.62c.11 0 .45.08.69.18.26.12.53.25.79.4.51.31 1.01.68 1.48 1.09.94.81 1.8 1.73 2.64 2.66.83.94 1.63 1.93 2.39 2.94.77.99 1.47 2.03 2.17 3.07.2 1.33.09 2.74-.15 4.09z" fill="#784620" stroke-width="none" opacity="1" stroke="none"></path><path id="SvgjsPath22389" d="M147.79 84.06c-.46-.6-.96-1.16-1.45-1.73a87.123 87.123 0 0 0-3.12-3.26l-.12-.12-.16.12c-.9.67-1.74 1.43-2.52 2.24-.77.82-1.44 1.71-2.09 2.62-1.27 1.84-2.38 3.77-3.26 5.82l.08.04c1.24-1.84 2.49-3.65 3.81-5.4.66-.87 1.34-1.73 2.03-2.57.66-.79 1.34-1.57 2.09-2.27 1.1.89 2.11 1.91 3.01 3 .91 1.1 1.7 2.31 2.27 3.59-.53 1.19-1.08 2.38-1.66 3.54-.53 1.03-1.08 2.07-1.7 3.01-.68-.6-1.35-1.23-1.97-1.88-.72-.77-1.38-1.61-1.82-2.53.13-.47.36-.96.61-1.42.28-.49.62-.94 1.01-1.36l-.06-.07c-.46.35-.88.77-1.24 1.23-.18.23-.35.48-.49.74-.15.26-.28.52-.39.83l-.02.07.03.1c.36 1.14 1.06 2.08 1.76 2.96.72.89 1.51 1.68 2.37 2.45l.39.34.31-.42c.85-1.16 1.45-2.4 2.02-3.65.58-1.25 1.09-2.51 1.56-3.8l.06-.15-.07-.12c-.38-.72-.81-1.35-1.27-1.95z" fill="#592a06" stroke-width="none" opacity="1" stroke="none"></path></g></g><g id="svga-group-faceshape-wrap" transform="matrix(1,0,0,1,0,0)"><g id="svga-group-faceshape-single"><path id="SvgjsPath22456" d="M139.54 91.4c-.2-6.41.54-22.35.54-22.35s.82-10.41-.08-14.45c-2.2-9.87-6.18-15.59-15.08-20.32-9.3-4.93-25.05-4.7-25.05-4.7s-15.75-.36-25.05 4.58c-8.7 4.74-12.8 10.54-15 20.4-.9 3.95.08 13.43.08 13.43s1.05 16.97.75 23.38-3.83 13.25-1.83 17 3.94 4.39 12.94 17.51 13.34 22.57 15.64 23.85 12.68 1.17 12.68 1.17 10.4.11 12.6-1.17c2.3-1.28 6.68-10.57 15.68-23.69s10.95-13.87 12.95-17.62c2.09-3.74-1.47-10.61-1.77-17.02z" fill="#875732" stroke-width="none" opacity="1" stroke="none"></path><path id="SvgjsPath22457" d="M87.2 150.07c2.3 1.28 12.8 1.28 12.8 1.28s10.6 0 12.8-1.28c2.3-1.28 6.8-10.87 15.8-23.99s10.8-14.01 12.8-17.76-1.5-10.66-1.8-17.07c-.2-6.41.7-23.38.7-23.38s.9-9.37 0-13.42c-2.2-9.87-6.3-15.79-15.2-20.52-9.3-4.93-25.2-4.73-25.2-4.73S84 29 74.7 33.94C66 38.77 61.8 44.69 59.6 54.56c-.9 3.95 0 13.42 0 13.42s1 16.97.7 23.38-3.8 13.32-1.8 17.07 3.8 4.64 12.8 17.76c9.1 13.02 13.6 22.6 15.9 23.88zm-24.8-38.29c-1-1.28-1.9-2.57-2.7-3.85-.6-1.09-.6-2.57-.4-4.14.2-1.58.5-3.16.9-4.74s.7-3.26.9-4.93c.1-.79.2-1.68.2-2.57v-2.47c0-1.68-.1-3.26-.1-4.93-.1-3.26-.3-6.51-.5-9.77l-.3-4.93s-.4-3.95-.5-4.83c-.1-1.58-.2-3.26-.2-4.83s0-3.26.3-4.83c.3-1.58.7-3.16 1.2-4.64.2-.79.5-1.48.8-2.27.3-.69.6-1.48 1-2.17 1.5-2.86 3.6-5.43 6.1-7.4.3-.3.6-.49 1-.79l.5-.39c.2-.1.3-.2.5-.3.3-.2.7-.49 1-.69l1-.59c.3-.2.7-.39 1.1-.59s.7-.39 1.1-.59l1.1-.49.5-.3.6-.2c3-1.18 6.2-1.87 9.5-2.37 3.2-.49 6.5-.69 9.8-.79s6.5 0 9.8.3l2.4.3c.8.1 4 .49 4.8.69 0 0 5.5 1.38 7 1.87.4.1 4.3 1.87 4.3 1.87 2.8 1.48 5.5 3.35 7.6 5.62 1.1 1.09 2 2.37 2.9 3.75l1.2 2.07c.3.69.7 1.38 1 2.17.3.69 1.4 4.24 1.5 4.64l.3 1.18c.1.39.4 2.76.4 3.55.1 1.58.1 3.26.1 4.83 0 1.48-.1 3.06-.2 4.54l-.2 6.22-.2 5.82-.1 5.82c0 1.97-.1 3.95 0 5.82.1 3.26 1 6.51 1.7 9.67.3 1.58.6 3.16.5 4.83 0 .39-.06 1.31-.44 2.14-.4.69-.86 1.51-1.36 2.2-.9 1.28-2 2.57-3 3.85s-2.1 2.57-3.1 3.85c-2 2.57-4 5.23-5.9 7.89s-3.8 5.33-5.7 8.09c-1.8 2.76-7.08 12.01-9.7 14.81-.1.1-1.31.64-6.2 1.09-1.6.15-3.3.1-4.9.2-3.2 0-6.6-.1-9.8-.39-3.45-.37-3.9-.89-3.9-.89-.4-.39-.9-.99-1.4-1.58s-.9-1.28-1.4-1.97c-1.8-2.66-3.66-5.93-5.46-8.7-1.8-2.76-3.44-6.02-5.34-8.68-1.9-2.76-3.8-5.43-5.7-8.09-1.9-2.76-3.9-5.42-5.9-7.99z" fill="#592a06" stroke-width="none" opacity="1" stroke="none"></path></g></g><g id="svga-group-mouth-single-move" transform="matrix(1,0,0,1,0,0)"><g id="svga-group-mouth-single" transform="matrix(1,0,0,1,0,0)"><path id="SvgjsPath22552" d="M115.95 118.85c-2.72.91-5.53 1.92-7.88 2.91-2.5 1.06-4.07 2.57-6.76 3.19-2.65.62-5.3-.52-8.01-.37-2.69.14-6.08 2.24-7.87-.41-.95-1.41-2.74.41-1.63 1.37 1.64 1.41 3.91 2.59 5.96 2.73 3.29.23 7.06.3 10.34-.05 6.21-.67 11.72-3.75 17.44-6.41 1.86-1.3 1.02-3.63-1.59-2.96z" fill="#a06b59" stroke-width="none" opacity="1"></path><path id="SvgjsPath22553" d="M107.55 131.3c-1.8-.09-3.6.28-5.4.35-1.81.07-3.62-.07-5.43-.06-.38 0-.47.57-.09.67 3.35.88 7.85 1.04 11.07-.39.3-.13.13-.55-.15-.57z" fill="#784620" stroke-width="none" opacity="1"></path></g></g><g id="svga-group-eyes-left-move" transform="matrix(1,0,0,1,0,0)"><g id="svga-group-eyes-left" transform="matrix(1,0,0,1,0,0)"><g id="svga-group-eyesback-left"><path id="SvgjsPath22416" d="M80.2 74.2c7.5 0 13.5 5.8 13.5 13s-6 13-13.5 13-13.5-5.8-13.5-13 6-13 13.5-13z" fill="#ffffff" stroke-width="none" opacity="1"></path></g><g id="svga-group-eyesiriswrapper-left" transform="matrix(1,0,0,1,0,0)"><g id="svga-group-eyesiriscontrol-left" transform="matrix(1,0,0,1,0,0)"><g id="svga-group-eyesiris-left" transform="matrix(1,0,0,1,0,0)"><path id="SvgjsPath22470" d="M80.2 81.9c2.9 0 5.3 2.4 5.3 5.3s-2.4 5.3-5.3 5.3-5.3-2.4-5.3-5.3 2.4-5.3 5.3-5.3z" fill="#bd1c1b" stroke-width="none" opacity="1"></path><path id="SvgjsPath22471" d="M77.4 88.7c0 1.3.5 2.5 1.3 3.3.5.1 1 .2 1.5.2 2.8 0 5.1-2.3 5.1-5.1 0-1-.3-2-.8-2.8-.7-.3-1.4-.5-2.2-.5-2.8.1-4.9 2.3-4.9 4.9z" fill="#cc3332" stroke-width="none" opacity="1"></path><path id="SvgjsPath22472" d="M80.2 84.5c1.5 0 2.7 1.2 2.7 2.7s-1.2 2.7-2.7 2.7-2.7-1.2-2.7-2.7 1.2-2.7 2.7-2.7z" fill="#000000" stroke-width="none" opacity="1"></path><path id="SvgjsPath22473" d="M79 84.5c.5 0 .9.4.9.9s-.4.9-.9.9-1-.4-1-.9.5-.9 1-.9zm3.1 4.3c.2 0 .4.2.4.4s-.2.4-.4.4-.4-.2-.4-.4.2-.4.4-.4z" fill="#ffffff" stroke-width="none" opacity="1"></path><path id="SvgjsPath22474" d="M80.2 81.6c-3.1 0-5.6 2.5-5.6 5.6s2.5 5.6 5.6 5.6 5.6-2.5 5.6-5.6-2.5-5.6-5.6-5.6zm0 .6c.2 0 .4 0 .7.1h.5-.2c.1 0 .2 0 .2.1.1 0 .1 0 .2.1.2.1.3.2.5.3.1-.1.2-.1.3-.1.1 0 .1.1.2.1.1.1.1.1.1.2.3-.1.6.2.5.5.3-.2.8.3.6.6.2-.1.4 0 .4.2s.1.4-.1.5c.2 0 .5.1.6.3.1.2.1.5-.1.7.2 0 .4.2.5.4s0 .5-.2.6c.2.1.3.3.3.5s-.1.4-.3.5c.2.1.3.3.3.5s-.2.4-.4.4c.3.2.1.8-.2.8.1.1.1.2.1.3-.1.1-.1.3-.2.4s-.2.1-.4.1c.1.4-.3.8-.8.7 0 .2 0 .3-.1.4s-.1.1-.2.1c-.2.1-.3 0-.5-.1 0 .2-.1.4-.3.5-.2.1-.4 0-.6-.2 0 .2-.1.3-.2.4-.2 0-.3.1-.5.1-.1-.1-.3-.2-.3-.3 0 .2-.2.4-.4.4s-.4-.2-.5-.4c-.1.2-.3.3-.6.2H79c-.2-.1-.3-.3-.3-.5-.2.2-.4.2-.6.1s-.3-.3-.3-.5c-.2.1-.5.1-.6 0h-.1c-.2-.2-.2-.4-.1-.7-.2.2-.4.1-.6 0l-.1-.1c-.1-.2-.1-.4 0-.6-.2 0-.4-.1-.6-.2-.4-.7-.7-1.6-.7-2.4.1-2.8 2.4-5 5.2-5zm2 .4s-.1 0 0 0z" fill="#9e0100" stroke-width="none" opacity="1"></path><path id="SvgjsPath22475" d="M76.5 89.7c.2 0 .3-.1.4-.2.2-.1.3-.2.4-.3v-.1c-.2.1-.3.1-.4.2-.1.2-.3.2-.4.4 0-.1 0 0 0 0zm-1.2-1.5c.1 0 .3 0 .4-.1.2 0 .3-.1.5-.1v-.1c-.2 0-.3 0-.5.1s-.3 0-.4.2c0-.1 0 0 0 0zm.5-2.5c.4.1.8.3 1.2.4 0 0 .1 0 0-.1-.4-.1-.8-.3-1.2-.3 0-.1 0 0 0 0zm.2-.7c.2.2.4.3.7.4 0 0 .1 0 0-.1-.2-.2-.5-.3-.7-.3-.1-.1-.1-.1 0 0zm3.7 6.5c.1-.3.2-.7.2-1 0 0-.1-.1-.1 0-.1.3-.1.7-.1 1zm3.5-4c.3.1.7.1 1.1.1v-.1h-1.1zm.2-.7c.3 0 .7.1 1 0v-.1c-.3 0-.6 0-1 .1zm.2-2.7c-.3.2-.6.5-.9.8 0 0 0 .1 0 0 .3-.2.6-.5.9-.8.1 0 0 0 0 0zm-2.8-1.3c-.1.3-.2.5-.2.8 0 .1.1.1.1 0 .1-.2.1-.5.1-.8zm-2.9.3c.1.2.2.5.3.7h.1c-.1-.2-.3-.4-.4-.7z" fill="#9e0100" stroke-width="none" opacity="1"></path></g></g></g><g id="svga-group-eyesfront-left"><path id="SvgjsPath22424" d="M80.2 73.7c-7.8 0-14.1 6.1-14.1 13.6s6.3 13.6 14.1 13.6 14.1-6.1 14.1-13.6S88 73.7 80.2 73.7zm-4.9 20.2c-4.8-1.7-6.4-6.7-7.2-10.1-.9-3.5 13.8-3.5 17.5-.4 3.8 3 5.3 7.3 5.5 9.6.1-.1-11 2.6-15.8.9z" fill="#875732" stroke-width="none" opacity="1" stroke="none"></path><path id="SvgjsPath22425" d="M91.1 92.5c-.1-.5-.1-1-.3-1.4l-.3-.9c-.5-1.9-1.5-4.5-3-6.2-1.2-1.3-4.1-4.4-9-4.4s-8.2 1.6-8.8 1.9c-.2.1-.5.3-.7.5-.4.2-.8.5-1.1 1-.1.2-.1.3-.1.5-.1.1-.1.2-.1.2h.1c0 .1 0 .3.1.4.1.3.2.6.2.9l.6 1.8c.4 1.2.9 2.3 1.6 3.4.7 1.1 1.5 2 2.5 2.8s2.2 1.3 3.4 1.6c2.5.5 5 .3 7.5 0s4.9-.8 7.3-1.5c.2-.2.2-.4.1-.6zm0 .4c-2.4.4-4.9.8-7.3 1.1-1.2.1-2.5.2-3.7.2-1.2 0-2.5 0-3.7-.2-2.4-.4-4.6-1.9-5.8-4-.7-1-1.2-2.2-1.6-3.3-.2-.6-.4-1.2-.5-1.8-.1-.3-.2-.6-.2-.9 0-.2-.1-.3-.1-.4 1.4-.4 6.6-1.9 10.5-1.9 4.5.1 7.9 3.6 9.3 5.1 1.2 1.1 3 5.1 3.1 6.1z" fill="#2a150e" stroke-width="none" opacity="1" stroke="none"></path></g></g></g><g id="svga-group-eyes-right-move" transform="matrix(1,0,0,1,0,0)"><g id="svga-group-eyes-right" transform="matrix(1,0,0,1,0,0)"><g id="svga-group-eyesback-right"><path id="SvgjsPath22417" d="M119.8 74.2c7.5 0 13.5 5.8 13.5 13s-6 13-13.5 13-13.5-5.8-13.5-13 6-13 13.5-13z" fill="#ffffff" stroke-width="none" opacity="1"></path></g><g id="svga-group-eyesiriswrapper-right" transform="matrix(1,0,0,1,0,0)"><g id="svga-group-eyesiriscontrol-right" transform="matrix(1,0,0,1,0,0)"><g id="svga-group-eyesiris-right" transform="matrix(1,0,0,1,0,0)"><path id="SvgjsPath22476" d="M119.8 82.5c2.6 0 4.7 2.1 4.7 4.7s-2.1 4.7-4.7 4.7-4.7-2.1-4.7-4.7 2.1-4.7 4.7-4.7z" fill="#bd1c1b" stroke-width="none" opacity="1"></path><path id="SvgjsPath22477" d="M117.3 88.5c0 1.1.4 2.2 1.2 2.9.4.1.8.2 1.3.2 2.4 0 4.4-2 4.4-4.4 0-.9-.3-1.8-.7-2.4-.6-.3-1.2-.5-1.9-.5-2.4 0-4.3 1.9-4.3 4.2z" fill="#cc3332" stroke-width="none" opacity="1"></path><path id="SvgjsPath22478" d="M119.8 84.8c1.3 0 2.4 1.1 2.4 2.4s-1.1 2.4-2.4 2.4-2.4-1.1-2.4-2.4 1.1-2.4 2.4-2.4z" fill="#000000" stroke-width="none" opacity="1"></path><path id="SvgjsPath22479" d="M118.7 84.8c.5 0 .8.4.8.8s-.4.8-.8.8-.8-.4-.8-.8.4-.8.8-.8zm2.8 3.8c.2 0 .3.1.3.3s-.1.3-.3.3-.3-.1-.3-.3.1-.3.3-.3z" fill="#ffffff" stroke-width="none" opacity="1"></path><path id="SvgjsPath22480" d="M119.8 82.3c-2.7 0-4.9 2.2-4.9 4.9s2.2 4.9 4.9 4.9 4.9-2.2 4.9-4.9-2.2-4.9-4.9-4.9zm.9.6zm-.9-.1c.2 0 .4 0 .6.1h.4c.1 0 .2.1.3.1.1.1.3.1.4.2.1-.1.1-.1.2-.1s.2.1.3.1c0 0 .1.1.1.2.2-.1.5.2.5.4.3-.1.7.2.6.5.1 0 .3 0 .4.2.1.1 0 .3-.1.4.2 0 .4.1.5.3.1.2.1.4-.1.6.2 0 .3.1.4.2 0 .1.1.1.1.2 0 .2-.1.3-.2.4.2.1.2.2.3.4v.1c0 .2-.1.3-.3.4.1.1.2.2.2.3v.2c-.1.1-.2.3-.3.3.2.2.1.7-.2.7.1.1.1.2.1.2-.1.2-.2.3-.2.4-.1.1-.2.1-.3.1.1.4-.3.7-.7.7 0 .1 0 .2-.1.3-.1.1-.2.1-.2.2-.1 0-.3 0-.4-.1 0 .2-.1.4-.3.4-.2.1-.4 0-.5-.2 0 .1-.1.3-.2.4-.1 0-.3.1-.4.1-.1-.1-.2-.1-.3-.3 0 .2-.2.3-.4.3s-.4-.1-.4-.3c-.1.2-.3.3-.5.2-.2-.1-.3-.2-.3-.4-.1.1-.4.2-.5.1-.2-.1-.3-.3-.3-.4-.2.1-.4.1-.6 0s-.2-.4-.1-.6c-.2.1-.4.1-.6 0-.1-.2-.2-.4 0-.6-.2 0-.4-.1-.5-.2s-.1-.2-.2-.3c-.2-.6-.4-1.2-.4-1.8-.2-2.4 1.7-4.4 4.2-4.4zm-2.5 8.1zm-1.2-1.2zm.6.6c0 .1 0 .1 0 0 0 .1 0 .1 0 0z" fill="#9e0100" stroke-width="none" opacity="1"></path><path id="SvgjsPath22481" d="M116.6 89.4c.1 0 .2-.1.4-.2.1-.1.3-.1.4-.2v-.1c-.1.1-.3.1-.4.2s-.3.1-.4.3c-.1-.1 0 0 0 0zm-1.1-1.4c.1 0 .2 0 .4-.1.1 0 .3-.1.4-.1v-.1c-.1 0-.3 0-.4.1s-.3.1-.4.2zm.5-2.1c.3.1.7.2 1 .3 0 0 .1 0 0 0-.3-.2-.7-.3-1-.3-.1-.1-.1 0 0 0zm.1-.7c.2.1.4.3.6.4 0 0 .1 0 0-.1l-.6-.3zm3.3 5.8c.1-.3.2-.6.2-.9 0 0-.1-.1-.1 0-.1.2-.1.6-.1.9-.1 0 0 0 0 0zm3-3.5c.3.1.6.1.9.1-.2-.1-.6-.1-.9-.1zm.2-.6h.8v-.1c-.2 0-.5 0-.8.1 0-.1 0 0 0 0zm.2-2.4c-.3.2-.6.4-.8.7.2-.2.5-.4.8-.7zm-2.5-1.1c-.1.2-.1.5-.1.7h.1v-.7zm-2.5.2.3.6h.1c-.2-.2-.3-.4-.4-.6z" fill="#9e0100" stroke-width="none" opacity="1"></path></g></g></g><g id="svga-group-eyesfront-right"><path id="SvgjsPath22426" d="M119.8 73.7c-7.8 0-14.1 6.1-14.1 13.6s6.3 13.6 14.1 13.6 14.1-6.1 14.1-13.6-6.3-13.6-14.1-13.6zm5.3 19.5c-4.4 1.8-15 .1-15 .1.1-1.9 1.3-5.8 4.7-8.7 3.4-2.9 17.2-3.8 16.6-.7-.7 3.1-1.9 7.6-6.3 9.3z" fill="#875732" stroke-width="none" opacity="1" stroke="none"></path><path id="SvgjsPath22429" d="M131.6 84.1s0-1.3-.9-1.7c-.6-.2-4.4-1-9.1-.7-2.6.2-4.6 1.1-6.1 2.1-.3.2-.6.3-.8.5-.9.8-1.7 1.6-2.4 2.6-1.3 1.9-2.3 4.1-2.3 6.4 0 .3.1.8.1.8s.1-.3.2-.7c2.2.4 4.3.7 6.6.8 1.2.1 2.3.1 3.4.1 1.2 0 2.3-.2 3.4-.4s2.2-.8 3.2-1.4c.9-.7 1.7-1.6 2.4-2.5.6-1 1.1-2 1.5-3.1.2-.5.3-1.1.5-1.7l.2-.8c0-.1 0-.1.1-.2v-.1zm-.4.1-.2.8c-.1.6-.3 1.1-.4 1.7-.4 1.1-.8 2.1-1.4 3.1-1.2 1.9-3.3 3.2-5.5 3.6-.6.1-1.1.2-1.7.3-.6 0-1.1.1-1.7.1-1.1.1-2.3.1-3.4 0-2.2-.1-4.4-.2-6.6-.4.4-1.5 1.5-4.6 2.4-5.7 1.2-1.5 4.2-4.5 8.5-4.9 3.6-.3 8.6.8 10 1.2v.2z" fill="#2a150e" stroke-width="none" opacity="1" stroke="none"></path></g></g></g><g id="svga-group-facehighlight-single"></g><g id="svga-group-eyebrows-left-move" transform="matrix(1,0,0,1,0,0)"><g id="svga-group-eyebrows-left-rotate" transform="matrix(1,0,0,1,0,0)"><g id="svga-group-eyebrows-left" transform="matrix(1,0,0,1,0,0)"><path id="SvgjsPath22341" d="M72.69 75.04s10.95-1.73 14.62-2.03c3.67-.3 4.62-1.25 2.6-3.55s-6.71-5.01-14.11-3.15c-7.4 1.85-9.33 7.71-8.63 8.61.71.89 3.81.33 5.52.12z" fill="#b7513b" stroke-width="none" opacity="1"></path><path id="SvgjsPath22342" d="M66.94 74.8c.02.06.07.14.12.2.06.05.12.11.18.16.27.18.6.25.91.29.31.04.62.04.93.03 1.23-.05 2.42-.26 3.62-.42 2.39-.38 4.8-.66 7.2-.95 2.41-.27 4.81-.61 7.2-.87.6-.06 1.22-.13 1.82-.26.6-.13 1.22-.3 1.71-.67.22-.2.42-.44.45-.71.02-.07.01-.13.01-.2s0-.13-.01-.2c-.04-.12-.05-.26-.11-.37-.2-.48-.52-.91-.87-1.3-1.4-1.61-3.44-2.86-5.77-3.5-1.17-.32-2.4-.5-3.64-.53-1.24-.04-2.48.1-3.69.31-.6.13-1.2.23-1.79.4-.3.08-.58.18-.87.26-.28.11-.57.2-.85.32-1.11.45-2.14 1.04-3.04 1.73-1.77 1.39-3.12 3.17-3.52 5.15-.04.25-.07.5-.06.76.01.11.02.24.07.37zm.32-.07c-.03-.1-.04-.21-.03-.33.01-.23.05-.46.11-.69.27-.92.77-1.79 1.37-2.61.62-.81 1.35-1.56 2.21-2.21 1.71-1.31 3.88-2.2 6.21-2.64.29-.06.58-.1.88-.15l.44-.07c.15-.02.3-.03.44-.05.3-.03.59-.06.89-.08l.89-.03c1.19.01 2.39.12 3.54.39 2.29.54 4.37 1.73 5.71 3.33.34.4.63.82.79 1.27.05.11.05.23.08.34.01.06 0 .11 0 .17 0 .06 0 .11-.02.16-.03.22-.2.4-.39.55-.42.29-.99.43-1.57.53-.29.05-.58.08-.88.12l-.9.07c-4.87.41-9.57 1.47-14.35 2.2-1.2.15-2.4.34-3.61.33-.3-.01-.6-.02-.89-.08-.28-.05-.56-.13-.75-.28l-.12-.12a.334.334 0 0 1-.05-.12z" fill="#a83c25" stroke-width="none" opacity="1"></path></g></g></g><g id="svga-group-eyebrows-right-move" transform="matrix(1,0,0,1,0,0)"><g id="svga-group-eyebrows-right-rotate" transform="matrix(1,0,0,1,0,0)"><g id="svga-group-eyebrows-right" transform="matrix(1,0,0,1,0,0)"><path id="SvgjsPath22343" d="M127.51 74.22s-11.15-.41-14.84-.2c-3.68.2-4.81-.82-3.27-3.99 1.53-3.17 5.63-7.27 13.3-6.14 7.67 1.13 10.74 8.08 10.23 9.31-.51 1.22-3.68 1.02-5.42 1.02z" fill="#b7513b" stroke-width="none" opacity="1"></path><path id="SvgjsPath22344" d="M133.14 72.52c-.04-.32-.11-.63-.2-.93-.79-2.39-2.47-4.38-4.5-5.82-1.03-.71-2.15-1.28-3.34-1.66-.29-.1-.6-.17-.9-.26-.3-.06-.61-.14-.91-.19-.61-.12-1.23-.15-1.85-.22-1.24-.06-2.48-.04-3.7.21-1.22.23-2.4.65-3.49 1.23a11.798 11.798 0 0 0-5.01 5.26c-.27.55-.5 1.13-.6 1.75-.04.15-.02.32-.04.48 0 .08.02.16.03.24.01.08.02.17.05.24.08.33.32.61.58.81.56.38 1.21.5 1.82.56.62.07 1.25.05 1.85.04 2.41-.05 4.85-.01 7.28-.06 2.43-.03 4.87-.06 7.3.04 1.22.01 2.43.08 3.66-.05.31-.04.61-.09.91-.19.3-.1.6-.23.84-.5.05-.07.1-.15.14-.22.04-.08.07-.18.08-.26.03-.17.02-.34 0-.5zm-.36.64-.09.17c-.16.21-.42.35-.68.46-.27.11-.56.18-.86.23-1.19.21-2.42.16-3.63.17-4.86-.15-9.71-.71-14.61-.45l-.9.05c-.3 0-.6.02-.89-.01-.58-.03-1.18-.12-1.65-.41-.21-.16-.41-.35-.49-.62-.03-.06-.04-.13-.05-.2-.01-.07-.03-.14-.03-.21.01-.14-.02-.29.01-.43.07-.58.27-1.16.53-1.7 1.01-2.19 2.82-4 4.98-5.03 1.08-.52 2.24-.85 3.41-1.04l.89-.11c.3-.02.6-.03.89-.04.15 0 .3-.02.45-.01l.45.02c.3.02.6.01.89.04 2.39.18 4.71.93 6.65 2.29.98.66 1.85 1.48 2.62 2.39.76.91 1.43 1.92 1.87 3.01.1.27.2.56.25.84.02.14.04.28.03.41-.01.07-.02.12-.04.18z" fill="#a83c25" stroke-width="none" opacity="1"></path></g></g></g><g id="svga-group-beardwrap" transform="matrix(1,0,0,1,0,0)"><g id="svga-group-beard-single-move" transform="matrix(1,0,0,1,0,0)"><g id="svga-group-beard-single" transform="matrix(1,0,0,1,0,0)"></g></g></g><g id="svga-group-mustache-single-move" transform="matrix(1,0,0,1,0,0)"><g id="svga-group-mustache-single" transform="matrix(1,0,0,1,0,0)"></g></g><g id="svga-group-nose-single-move" transform="matrix(1,0,0,1,0,0)"><g id="svga-group-nose-single" transform="matrix(1,0,0,1,0,0)"><path id="SvgjsPath22529" d="M103.78 79.27s-5.31-.41-8.3.62-2.96 2.84-2.86 4.28.2 4.84.82 5.76-.1 2.58-.41 3.2.25 6.61.66 8.26c.41 1.65.99 3.71.37 4.13s-3.1 1.24-3.2 2.17 2.79 7.95 3.41 8.47 11.05.41 11.98.52 4.44-7.12 4.03-8.36-3.72-1.45-4.03-2.37 1.4-13.03 1.19-13.65-.26-2.75.36-4.2.33-6.27.27-6.7c-.27-1.7-3.67-1.92-4.29-2.13z" fill="#7f4e29" stroke-width="none" opacity="1"></path><path id="SvgjsPath22530" d="M103.77 79.32c-2.16-.13-4.39-.07-6.51.36-1.05.22-2.1.54-2.95 1.11-.42.29-.78.64-1 1.07-.22.42-.31.9-.32 1.41-.01.5.07 1.05.1 1.6l.12 1.63c.05.54.11 1.08.18 1.6.08.52.17 1.06.35 1.46l.2.36c.07.17.12.34.15.51.05.34.03.65-.02.96-.1.6-.3 1.15-.55 1.67-.05.12-.15.3-.14.29-.02.08-.04.21-.04.34-.02.26-.02.52-.02.79 0 .54.02 1.08.05 1.62.06 1.09.14 2.18.25 3.26.06.54.12 1.08.21 1.61.09.52.24 1.06.35 1.6.12.54.23 1.08.29 1.64.02.28.04.57-.01.86-.03.15-.07.31-.18.45-.13.16-.27.21-.39.28-.5.25-1 .46-1.48.71-.47.25-.97.52-1.27.9-.07.1-.12.2-.13.3-.01.09.02.23.04.35.06.26.13.52.22.78.16.52.35 1.03.54 1.54.38 1.02.81 2.03 1.26 3.02.23.5.46.99.71 1.47.12.24.25.48.39.71.07.11.14.23.21.31.03.05.07.07.05.06.02.01.08.03.14.04.49.09 1.05.11 1.59.14.54.02 1.09.03 1.63.04 2.18.02 4.37.02 6.56.02.55 0 1.09 0 1.66.02l.22.01c.02 0 .06.01.05 0-.02-.01-.05 0-.06 0l-.03.01c.02-.01.11-.08.18-.16.16-.17.31-.38.46-.59.58-.87 1.08-1.84 1.54-2.81.45-.97.87-1.98 1.18-2.98.07-.25.14-.5.18-.74.04-.23.05-.48.02-.49-.08-.22-.55-.49-1.02-.67-.48-.2-.99-.36-1.53-.56-.27-.11-.54-.21-.84-.39-.15-.09-.3-.2-.45-.39-.07-.1-.15-.22-.19-.35-.02-.06-.03-.13-.04-.19l-.01-.13c-.02-.64.03-1.16.08-1.72l.16-1.65c.23-2.19.52-4.36.81-6.53.14-1.08.31-2.18.39-3.23 0-.07.01-.13.01-.18V92.41l-.02-.06c-.04-.16-.06-.31-.07-.45-.03-.29-.03-.57-.03-.86.01-.56.08-1.12.19-1.68.06-.28.13-.55.22-.82.09-.27.22-.54.3-.76.16-.5.22-1.04.28-1.58.11-1.08.11-2.18.09-3.27-.03-.54-.02-1.1-.11-1.62-.13-.52-.59-.88-1.06-1.12-.97-.51-2.07-.63-3.14-.87zm.02-.1c1.06.23 2.18.35 3.18.85.49.24.98.62 1.13 1.19.1.56.1 1.1.13 1.65.06 1.1.08 2.19.04 3.3-.03.55-.06 1.1-.2 1.66-.08.3-.19.53-.25.78-.07.25-.12.51-.16.78-.08.53-.1 1.06-.08 1.59.01.26.03.53.07.78.02.12.05.25.08.35l.01.04.02.09c.01.07.01.11.02.15.01.08.01.16.01.23-.02 1.13-.12 2.21-.21 3.31-.19 2.19-.42 4.36-.63 6.53l-.14 1.63c-.04.53-.08 1.1-.06 1.56.02.15-.01.04.01.09.02.03.09.09.18.14.17.11.41.21.65.3.49.19 1.02.35 1.56.57.27.11.54.24.82.41.27.18.57.41.76.81.02.05.04.1.06.16.02.07.03.13.04.19.02.11.02.21.01.3-.01.18-.03.33-.06.49-.06.3-.14.58-.22.85-.35 1.09-.8 2.1-1.28 3.1-.49 1-1.01 1.98-1.66 2.92-.17.24-.34.47-.56.7-.12.11-.23.23-.45.35-.06.03-.13.06-.23.07-.04.01-.11.01-.16.01h-.05l-.19-.01-1.63-.05c-2.19-.06-4.38-.09-6.58-.21-.55-.03-1.1-.07-1.65-.11-.55-.05-1.09-.09-1.68-.22-.08-.02-.15-.04-.25-.09-.02-.01-.06-.03-.09-.06-.03-.02-.04-.04-.06-.06a.73.73 0 0 1-.09-.11c-.1-.13-.16-.25-.24-.38-.14-.25-.26-.5-.38-.75a49.4 49.4 0 0 1-.66-1.51c-.42-1.02-.82-2.04-1.2-3.07-.19-.52-.37-1.04-.53-1.57-.08-.27-.16-.53-.21-.81-.02-.14-.06-.28-.04-.46.02-.18.11-.32.2-.45.39-.47.9-.72 1.38-.99.49-.26 1-.48 1.47-.72.12-.06.24-.13.28-.19a.87.87 0 0 0 .11-.31c.03-.24.01-.51-.02-.77-.07-.53-.19-1.06-.33-1.59-.13-.53-.3-1.04-.42-1.6-.12-.55-.21-1.09-.29-1.63-.16-1.09-.3-2.18-.4-3.28-.05-.55-.1-1.1-.12-1.66-.01-.28-.02-.56-.01-.85.01-.15.01-.29.04-.48.07-.28.13-.33.18-.46.21-.47.38-.97.44-1.45.03-.24.04-.47 0-.68-.02-.1-.05-.19-.09-.28l-.2-.36c-.26-.6-.34-1.16-.43-1.72-.08-.56-.13-1.11-.17-1.66l-.09-1.65c-.01-.54-.07-1.08-.04-1.68.02-.58.16-1.21.49-1.74.31-.54.79-.94 1.29-1.24 1.01-.6 2.13-.84 3.23-.98 1.1-.15 2.2-.15 3.3-.17 1.1.03 2.19.05 3.3.13z" fill="#592a06" stroke-width="none" opacity="1"></path><path id="SvgjsPath22531" d="M97.96 113.62c-.07-.26-.22-.5-.35-.73-.14-.24-.28-.51-.53-.64-.3-.16-.79.03-.75.43.03.29.17.48.3.73.11.21.18.44.29.65.31.56 1.21.18 1.04-.44z" fill="#592a06" stroke-width="none" opacity="1"></path><path id="SvgjsPath22532" d="M103.46 112.66c-.02-.42-.52-.52-.75-.2-.35.49-.77 1.13-.79 1.74-.02.69.92.89 1.25.34.32-.52.31-1.29.29-1.88z" fill="#592a06" stroke-width="none" opacity="1"></path></g></g><g id="svga-group-hair-front" transform="matrix(1,0,0,1,0,0)"><path id="SvgjsPath22617" d="M62.6 77.5s-2.3-1.4-3.2-4.8c0 0-2.2-4.3-2.4-7-.2-2.7.2-6.5.2-6.5s-.6-2.6 0-4.7.8-4.7 2.7-5.8c0 0 1-5.2 3-7.9 0 0 1.9-4.2 6.4-5 0 0-.1-1.8 5.2-4.4 0 0 .9-2.1 5.5-2.1 0 0 2.5-2.3 6.3-2.2 0 0 2.8-1.7 5.6-.5 0 0 .5-1.5 4.9-.8 0 0 2.9-2 7.2.7 0 0 2.1-1.6 4.7-.1 0 0 2.2-.7 5.6.6 0 0 3.4-.3 6.1 2.2 0 0 3.9-.2 5.9 2.6 0 0 2.9.3 5.1 3.8 0 0 3.9.9 6.3 5.2 0 0 1.9 4.1 3 8 0 0 3.5 4 2.5 11 0 0 1.4 4.7-2.2 12.8 0 0-.6 3.3-3.1 4.8 0 0-1.4-5.6.5-11.4 0 0-1.3-4.3-.6-7.8 0 0-.6.6-1.2.1s-2.9-6-2.9-6-2.7-1-3.4-5.1c0 0-3.1-.1-6-3.1 0 0-2.7-.7-4.6-3.3 0 0-2.7.2-4.8-.6 0 0-1.9 1.4-5.2-.2 0 0-1.9 1.3-5.4.6 0 0-4.3 1-6.4-.9 0 0-3.9 1.8-6.1.6 0 0-4 1.2-5.7.3 0 0-3 .4-5.2.7 0 0-1.2 2.2-4.3 2.8 0 0-1.5 2.2-5.6 3.1 0 0-.8 3.9-3.6 5.2 0 0-2.2 5.4-3.2 5.8-1 .4-1.4-.1-1.4-.1s1 3.5-.1 7.2c-.5 0 1.3 7-.1 12.2z" fill="#b7513b" stroke-width="none" opacity="1"></path><path id="SvgjsPath22618" d="M80.2 41c-.3 0-.4.1-.7.4-.3.3-.6.7-.9 1-.6.6-1.4.9-2.1 1.4-2.4-3.7-2.7-7.2-1.5-11.5.1-.3-.3-.5-.5-.2-2 3.9-1.1 9.1 1.7 12.4.2.2.4.1.5-.1.9-.2 1.6-.6 2.3-1.2.5-.4 1.7-1.2 1.4-2 0-.1-.1-.2-.2-.2zm-4.6 3.2c-.8.5-1.4 1.2-2.2 1.6-.9.5-1.8.7-2.8 1-.4-1.7-.9-3.4-1.1-5.2-.2-2 .1-4 .2-6 1.1-1.5 2.3-2.6 4.2-3.2.2-.1.2-.5-.1-.5-2.2.1-4.3 1.6-5.1 3.7v.1h-.1c-2.6.3-4.8 2.5-6.1 4.7-.2.4.4.8.6.4 1.4-2.3 3.4-3.4 5.6-4.6-.7 3.6-.3 7.5 1.1 11 0 .1.1.1.1.1-.4 1.2-.7 2.2-1.5 3.2-.4.5-.8.9-1.3 1.3-.2.1-.3.2-.4.3-1.3-3.7-1.9-7.4-2.8-11.2-.1-.2-.4-.2-.4.1-.3 3.9 1.1 8.1 2.9 11.5l-.1.1c-1.1 1.7-2 3.5-2.9 5.3v.3c-.2-.1-.5-.3-.7-.5 0-.2-.1-.3-.2-.5s-.3-.2-.5-.1c-3.7-3.8-1.5-11.9 1-15.6.3-.4-.4-.8-.7-.4-1.5 2.2-2.5 4.7-2.8 7.3-.1 0-.2 0-.3.1-2.1 3-3.3 6.9-2.6 10.5.1.4.7.3.7-.1 0-3.5.4-6.5 2-9.5 0 .9 0 1.8.1 2.7.2 2.1.8 4.5 2.5 5.8.1 1.1.3 2.3.3 3.4 0 1.2-.2 2.4-.4 3.6h-.1c-.8-.8-1.6-1.5-2.2-2.3-.8-1-1.3-2.2-1.9-3.3-.1-.2-.4-.1-.5.1-.1 0-.2.1-.2.2-1 3.9-.4 9.9 2.3 13 .2.2.5 0 .4-.2-.5-2-1.5-3.8-1.9-5.8-.4-2-.3-3.9-.3-5.9.7 2.1 2.4 4.3 4.1 5.3 1.1 3.5 1.2 7.2.9 10.9-.5-.5-1-1-1.4-1.6-.5-.7-1-1.5-1.3-2.3-.1-.3-.6-.1-.5.2.6 1.8 1.6 3.8 3.2 4.9.4.3.8-.3.5-.6l-.1-.1c.9-4.1.5-8-.5-12 .6-2.1 1-4.6.5-6.8.1.1.3.1.4.2.2 0 .3-.1.3-.2.2.1.4.1.6-.2 1-1.8 2-3.6 2.7-5.5.9-.2 1.8-1.4 2.3-2.1.6-.9 1.2-2 1.4-3.1h.1c1.9-.2 4.2-1.3 5.3-3 .2-.3-.1-.7-.3-.5zm20-4.7c-.4-.5-.7-1.1-.9-1.7-.3-.6-.4-1.2-.7-1.8-.1-.2-.4-.1-.4.1.1 1.3.9 2.6 1.7 3.6.1.2.5 0 .3-.2zm-8.8-4.7c0 1.3.6 2.3 1.4 3.3.2.2.5-.1.4-.3-.5-1-.9-2-1.3-3-.1-.3-.5-.3-.5 0zM82.2 36c-.2-.3-.6 0-.4.3.5 1.1 1.2 2.6 2.4 3.2.2.1.5-.1.4-.4-.3-.5-.8-1-1.2-1.5-.5-.5-.8-1-1.2-1.6zm-7.4 3.3c.2 1.2.7 2.5 1.7 3.4.2.1.4 0 .3-.2-.6-1.1-1.3-2-1.7-3.2-.1-.3-.4-.2-.3 0zm-4.7.1c.1 1.9.3 4.2 1.5 5.7.2.3.6.1.6-.2-.5-1.9-1.3-3.5-1.5-5.5-.1-.3-.6-.4-.6 0zm32.9.9c-.5 0-1.1 0-1.6.1.1-.1.1-.2 0-.3-.2-.2-.3-.5-.4-.7.1.1.3.2.4 0 .3-.6.6-1.2.8-1.9 0-.2-.2-.3-.3-.2-.4.5-.7 1.2-.9 1.8v.2c-.1-.2-.2-.4-.3-.7-.2-.5-.4-1-.7-1.5-.1-.2-.5-.1-.5.1 0 1.2.8 2.3 1.5 3.1-.3 0-.5 0-.8-.1-.9-.2-1.8-.6-2.6-1.1 1.8-4.5 1.5-9.6-.7-13.9-.1-.3-.4-.2-.6-.1-.8 0-1.6.1-2.3.2-.6.1-1.1.1-1.6.3-.2-.1-.4-.1-.5.1-1.8 4.3-2.5 9.1-1.1 13.6-.7.2-1.4.6-2.2.7h-.3c-1.1-2.2-1.7-4.5-2.4-6.8-.1-.2-.4-.2-.4 0-.1 2.5.9 4.8 2.3 6.9-.6 0-1.2 0-1.8-.2-.2-2.1-.7-4.1-.6-6.2.1-2.3.6-4.4 1.1-6.6.1 0 .2-.1.2-.1h.2c1.5-.6 2.8-.8 4.4-.6.3 0 .3-.5.1-.5-1.5-.6-3.4-.4-4.8.5 0 0-.1 0-.1.1-.1 0-.2 0-.3.1-2.2-.3-4.5.7-6 2.2-.1 0-.1.1-.1.2-1.9-.4-4.5.7-5.8 2-.3.3.1.8.4.6.9-.6 1.7-1.1 2.8-1.5.7-.2 1.5-.3 2.2-.4-.4 3.6-.2 7.3.9 10.7l.1.1c-.2.2-.2.6.2.7 1.4.5 3.4.2 4.6-.9l.1.1c0 .1 0 .1.1.2 1.6.7 4 .8 5.4-.5 0 .1.1.2.1.3.1.2.3.1.3-.1l.1.1c1 .3 2.1.4 3.1.3.8-.1 1.8-.2 2.4-.7.1 0 .1 0 .2-.1l.1-.1c.1-.1.1-.1.1-.2v-.1c1.3 1.3 4.1 2.4 5.8 1.2 0-.1-.1-.4-.3-.4zm-22 .1h-.1c-.2-1-.4-2-.5-3.1.2.4.5.8.8 1.2.5.6 1.3 1.4 2.1 1.8-.8.3-1.5.2-2.3.1zm3.1-.2c-.7-.7-1.6-1.2-2.3-2-.7-.7-1.2-1.6-1.6-2.5-.2-2-.2-3.9 0-5.9v-.2c.1 0 .2 0 .4-.1 1.6-1.3 3.2-1.8 5.1-2-1.5 3.7-1.8 8.5-.6 12.3-.3.1-.6.2-1 .4zm10-.1s0-.1-.1-.1c-1.7-2-2.4-4.2-2.7-6.8 0-.2-.4-.3-.4-.1-.5 2.5.5 5.2 2.3 7-.6 0-1.1-.1-1.6-.1-.2 0-.3.1-.3.2-1-4.8-1-9.3 1.2-13.9.6.1 1.2 0 1.7 0 .6-.1 1.3-.1 1.9-.2 1.9 4.5 2 8.9.6 13.6-.6.1-1.3.4-1.9.5-.2-.1-.5-.1-.7-.1zm3.4-14.2c1-.1 1.9-.4 2.9-.3.9.1 1.7.5 2.5.9.4.1.6-.4.4-.6-1.4-1.4-4.4-1.6-6-.3-.2.1 0 .3.2.3zm2.3 8.3c-.1.9.4 1.8 1 2.4.3.3.7-.1.4-.4-.5-.6-.6-1.4-1-2 0-.2-.4-.2-.4 0zM66.3 46.5c-.1-.2-.5-.1-.4.2.4 1.2 1.9 2.6 3.3 2 .1 0 .1-.2 0-.2l-1.5-.6c-.6-.4-1.1-.9-1.4-1.4zm.4-2.8c-.3-.5-.6-.9-.8-1.5-.1-.3-.7-.2-.6.2.3 1 .9 2.6 2 3 .3.1.5-.2.3-.5-.1-.4-.6-.7-.9-1.2zm-4.3 8c-.2-.3-.6 0-.5.3.4.8 1.4 1.8 2.4 1.7.2 0 .3-.3.1-.4-.4-.2-.8-.3-1.1-.5-.4-.3-.7-.7-.9-1.1zM60 59.2c-.1 0-.1.1 0 .1s.1-.1 0-.1zm59.6-18.6c1.2-3.5 1.4-7.2 1-10.8.8.1 1.5.2 2.2.4 1 .3 1.9.9 2.8 1.5.3.2.7-.3.4-.6-1.3-1.3-3.9-2.4-5.8-2 0 0-.1-.1-.1-.2-1.5-1.5-3.8-2.4-6-2.2-.1-.1-.2-.1-.3-.1 0 0-.1 0-.1-.1-1.3-.9-3.2-1.1-4.7-.6h-.1c-2.1-.7-5.2-1.1-6 1.6-.4 1.5 0 3.5.1 4.9.2 2.5.3 4.9.6 7.4 0 .2.4.2.4 0-.1-2.5-.2-4.9-.4-7.4-.1-1-.3-2.2-.2-3.2.3-3.2 2.2-3.3 4.6-2.7 0 .1-.1.2 0 .3.7 4.2 1.1 8.2 1 12.5-.9.2-1.6.8-2.5.9-1 .2-2 .1-2.9-.2-.3-.1-.6.4-.2.6 1.6.8 4.3.9 5.8-.4 1.4 1.2 3.8 1.1 5.4.4.1 0 .1-.1.1-.2 0 0 .1 0 .1-.1 1.2 1.1 3.1 1.4 4.6.9.3 0 .4-.4.2-.6zm-7.2-.3c1.3-2 2.3-4.4 2.3-6.9 0-.2-.3-.3-.4 0-.7 2.3-1.3 4.6-2.4 6.8h-.3c-.7-.1-1.3-.5-2-.7.5-4.2.3-8.7-.7-12.8.1 0 .2-.1.3-.1 1.5-.1 2.8 0 4.2.6h.2c.1.1.1.1.2.1.5 2.2 1 4.3 1.1 6.6.1 2.1-.4 4.1-.6 6.2-.7.2-1.3.3-1.9.2zm2-12.8c1.9.2 3.5.7 5.1 2 .1.1.2.1.4.1 0 0-.1.1 0 .2.2 2 .2 4 0 5.9-.4.9-1 1.8-1.6 2.5-.7.8-1.6 1.3-2.3 2-.3-.1-.7-.3-1-.5 1.2-3.8.9-8.5-.6-12.2zm2.5 12.9c.8-.4 1.5-1.2 2.1-1.8.3-.4.6-.8.8-1.2-.1 1-.3 2-.5 3.1h-.1c-.8 0-1.6.1-2.3-.1zm8.7-8.4c-.1-.3-.6-.1-.5.2 1.2 4.3.8 7.8-1.5 11.5-.7-.5-1.4-.8-2.1-1.4-.3-.3-.6-.5-.8-.8-.3-.3-.3-.5-.8-.5-.1 0-.2.1-.3.2-.2.8.9 1.6 1.4 2 .7.5 1.5 1 2.3 1.2.1.2.4.3.5.1 2.9-3.4 3.8-8.6 1.8-12.5zm16.7 34.7c-.4 2-1.4 3.8-1.9 5.8-.1.2.2.4.4.2 2.7-3.2 3.4-9.1 2.3-13 0-.1-.1-.2-.2-.2 0-.2-.3-.3-.4-.1-.6 1.1-1.1 2.2-1.9 3.3-.7.9-1.5 1.6-2.2 2.3h-.1c-.2-1.2-.4-2.4-.4-3.6 0-1.2.2-2.3.3-3.4 1.7-1.3 2.3-3.7 2.5-5.8.1-.9.1-1.8.1-2.7 1.6 3 2.1 6 2.1 9.5 0 .4.6.5.7.1.7-3.6-.5-7.6-2.6-10.5-.1-.1-.2-.1-.3-.1-.4-2.6-1.3-5.1-2.8-7.3-.3-.4-1 0-.7.4 2.5 3.7 4.7 11.8 1 15.6-.1-.1-.4-.1-.4.1-.1.2-.1.3-.2.5-.2.2-.4.3-.7.5V58c-.9-1.8-1.8-3.7-2.9-5.3 0-.1-.1-.1-.1-.1 1.8-3.4 3.2-7.6 2.9-11.5 0-.2-.4-.3-.4-.1-.9 3.8-1.5 7.5-2.8 11.2-.1 0-.1-.1-.2-.1-.6-.4-1.1-.9-1.5-1.4-.8-1-1.1-2-1.5-3.2l.1-.1c1.3-3.4 1.8-7.3 1.1-11 2.3 1.2 4.3 2.3 5.6 4.6.2.4.9 0 .6-.4-1.3-2.2-3.4-4.4-6.1-4.7h-.1v-.1c-.8-2.1-2.9-3.5-5.1-3.7-.3 0-.3.4-.1.5 1.9.6 3.1 1.6 4.2 3.2.1 2 .4 4 .2 6-.2 1.8-.7 3.4-1.1 5.2-1-.2-1.9-.5-2.8-1-.8-.5-1.5-1.1-2.2-1.6-.2-.2-.6.2-.4.4 1 1.7 3.4 2.8 5.3 3h.1c.1 1.1.7 2.2 1.4 3.1.5.7 1.4 1.9 2.3 2.1.7 1.9 1.7 3.8 2.7 5.5.1.2.4.3.6.2 0 .2.1.3.3.2.1 0 .3-.1.4-.2-.5 2.2-.1 4.6.5 6.8-1 4-1.4 7.9-.5 12l-.1.1c-.3.3.1.9.5.6 1.6-1.1 2.7-3.1 3.2-4.9.1-.3-.4-.5-.5-.2-.4.8-.8 1.6-1.3 2.3-.4.6-.9 1.1-1.4 1.6-.3-3.7-.2-7.4.9-10.9 1.8-1 3.4-3.2 4.1-5.3-.1 1.9-.1 3.8-.5 5.9zm-29.5-31.9c-.4 1-.8 2.1-1.3 3-.1.2.2.5.4.3.8-1 1.3-2 1.4-3.3 0-.3-.4-.3-.5 0zm3.2 4.7c1.2-.6 1.9-2.1 2.4-3.2.1-.3-.3-.6-.4-.3-.3.6-.7 1.1-1.1 1.7-.4.5-.9.9-1.2 1.5-.2.1 0 .4.3.3zm7.7 3.1c1-.8 1.5-2.1 1.7-3.4 0-.2-.2-.3-.3-.1-.4 1.2-1.1 2.2-1.7 3.2-.2.3.1.5.3.3zm4.9 2.5c1.1-1.6 1.4-3.8 1.5-5.7 0-.3-.5-.3-.5 0-.2 2-1 3.6-1.5 5.5-.2.3.3.5.5.2zm5.3 1.4c-.3.5-.8 1-1.3 1.3-.5.3-1 .4-1.5.6-.1 0-.1.2 0 .2 1.4.6 2.9-.8 3.3-2 0-.2-.4-.3-.5-.1zm.3-4.2c-.2.5-.5 1-.8 1.5-.3.4-.8.8-1 1.2-.1.2.1.6.4.5 1.1-.4 1.7-2 2-3 .1-.5-.4-.6-.6-.2zm1.6 11.4c1 .1 1.9-.9 2.4-1.7.2-.3-.3-.5-.4-.3-.2.4-.5.8-.9 1-.4.2-.8.3-1.1.5-.3.2-.2.5 0 .5zm-30.1-14c1.2-1.1 2.3-3 1.8-4.6-.1-.2-.5-.3-.5 0-.1.7-.1 1.4-.3 2.1-.2.8-.7 1.6-1.2 2.2-.3.2 0 .5.2.3zm-.6-7.1c.2.6.3 1.5.8 2 .1.1.3.1.3-.1.1-.7-.4-1.5-.6-2.1-.1-.2-.5-.1-.5.2zM139 57.7c-.2 1.4-.4 2.6-1 3.8-.1.3.3.5.4.2.7-1.2 1.2-2.7.9-4.1 0-.1-.2-.1-.3.1zm1.6 1.9c.1-.7.4-1.5.3-2.2 0-.2-.3-.4-.4-.1-.2.6-.3 1.2-.4 1.9-.1 0-.1.1 0 .1v.2c-.1.3.5.5.5.1z" fill="#a83c25" stroke-width="none" opacity="1"></path></g><g id="svga-group-glasses-single-move" transform="matrix(1,0,0,1,0,0)"><g id="svga-group-glasses-single" transform="matrix(1,0,0,1,0,0)"><path id="SvgjsPath22562" d="M67 81.67c-1.63 3.03-1.35 9.4 2.14 14.91 3.45 5.46 12.82 5.8 18.41 3.12 5.61-2.69 7.83-8.11 8.08-12.16.26-4.08-3.21-6.41-5.12-7.12-1.92-.72-12.68-2.15-17.58-1.44-4.89.72-5.93 2.69-5.93 2.69z" fill="url(#SvgjsLinearGradient22563)" opacity="1"></path><path id="SvgjsPath22566" d="M133.34 81.67c1.63 3.03 1.35 9.4-2.14 14.91-3.45 5.46-12.82 5.8-18.41 3.12-5.61-2.69-7.83-8.11-8.08-12.16-.26-4.08 3.21-6.41 5.12-7.12 1.92-.72 12.68-2.15 17.58-1.44 4.89.72 5.93 2.69 5.93 2.69z" fill="url(#SvgjsLinearGradient22567)" opacity="1"></path><path id="SvgjsPath22570" d="M120.31 102.38c-4.52 0-8.75-1.41-11.63-3.88-4.48-3.83-5.32-8.51-5.72-10.78-.1-.53-.17-.96-.27-1.22-.53-1.47-1.17-2.21-1.89-2.21h-1.26c-.72 0-1.36.75-1.89 2.21-.09.26-.17.68-.27 1.22-.4 2.26-1.24 6.94-5.72 10.78-2.88 2.47-7.12 3.88-11.63 3.88-2.94 0-5.77-.63-7.78-1.72-5.35-2.91-6.9-9.22-7.32-11.81-.54-3.3-1.89-3.93-2.3-4.04l-.19-5.72c.37-.01 1.49-.05 2.47-.3.06-.01 6.18-1.49 12.16-1.49.99 0 1.92.04 2.77.12 5.64.55 10.17 1.6 13.48 2.37l.73.17c2.3.53 3.91.61 4.67.61.41 0 .63-.02.63-.02h1.64s.21.02.61.02c.76 0 2.38-.08 4.67-.61l.73-.17c3.31-.77 7.85-1.83 13.48-2.37.85-.08 1.78-.12 2.77-.12 5.98 0 12.1 1.48 12.16 1.49.99.25 2.1.29 2.47.3l-.19 5.72c-.41.12-1.76.75-2.3 4.04-.42 2.59-1.97 8.9-7.32 11.81-1.98 1.1-4.82 1.72-7.76 1.72zm2.83-22.83c-.8 0-1.59.02-2.34.05-1.39.06-7.17.47-10.13 1.47-2.96 1-4.95 2.95-5.18 5.08-.27 2.45.53 5.53 2.14 8.21 1.71 2.85 3.96 4.64 6.88 5.49 1.8.52 3.5.76 5.35.76 1.53 0 3.16-.17 4.98-.51 3.23-.62 5.67-2.92 7.25-6.85 1.4-3.49 1.77-8.77-.09-11.21-1.27-1.67-4.17-2.49-8.86-2.49zm-45.94 0c-4.69 0-7.59.81-8.87 2.48-1.86 2.43-1.49 7.72-.09 11.21 1.58 3.94 4.02 6.24 7.25 6.85 1.82.35 3.44.51 4.98.51 1.85 0 3.55-.24 5.35-.76 2.93-.85 5.18-2.64 6.88-5.49 1.61-2.69 2.41-5.76 2.14-8.21-.24-2.13-2.22-4.08-5.18-5.08-2.96-1-8.74-1.41-10.13-1.47-.74-.01-1.53-.04-2.33-.04z" fill="#da6972" stroke-width="none" opacity="1"></path><path id="SvgjsPath22571" d="M123.27 77.43c5.96 0 12.06 1.48 12.12 1.49.91.23 1.91.28 2.38.3l-.18 5.5c-.52.19-1.79.98-2.3 4.12-.42 2.58-1.96 8.83-7.25 11.72-1.99 1.08-4.8 1.7-7.71 1.7-4.49 0-8.69-1.4-11.55-3.85-4.45-3.81-5.28-8.46-5.68-10.71-.1-.56-.17-.97-.27-1.24-.56-1.55-1.22-2.3-2.02-2.3h-1.26c-.8 0-1.46.75-2.02 2.3-.1.27-.17.68-.27 1.24-.4 2.25-1.23 6.9-5.68 10.71-2.86 2.45-7.07 3.85-11.55 3.85-2.92 0-5.73-.62-7.71-1.7-5.3-2.89-6.83-9.15-7.25-11.72-.51-3.14-1.78-3.92-2.3-4.12l-.18-5.5c.46-.01 1.47-.07 2.38-.3.06-.01 6.16-1.49 12.12-1.49.98 0 1.91.04 2.76.12 5.63.55 10.16 1.6 13.46 2.37l.73.17c2.31.53 3.94.61 4.7.61.4 0 .61-.02.62-.02h1.63s.22.02.64.02c.77 0 2.39-.08 4.7-.61l.73-.17c3.3-.77 7.83-1.83 13.46-2.37.84-.08 1.76-.12 2.75-.12m-3.4 23.31c1.54 0 3.18-.17 5-.52 3.28-.62 5.75-2.95 7.35-6.93 1.41-3.52 1.78-8.86-.1-11.33-1.3-1.7-4.24-2.53-8.97-2.53-.71 0-1.48.02-2.35.05-1.39.06-7.19.48-10.17 1.48-3.01 1.01-5.03 3-5.27 5.18-.27 2.48.54 5.58 2.16 8.29 1.72 2.88 4 4.69 6.96 5.54 1.81.52 3.52.77 5.39.77m-39.39 0c1.86 0 3.57-.24 5.39-.77 2.96-.85 5.23-2.66 6.96-5.54 1.62-2.71 2.43-5.81 2.16-8.29-.24-2.18-2.26-4.17-5.27-5.18-2.97-1-8.77-1.42-10.17-1.48-.87-.04-1.64-.05-2.35-.05-4.73 0-7.67.83-8.97 2.53-1.89 2.47-1.52 7.81-.1 11.33 1.6 3.98 4.07 6.31 7.35 6.93 1.82.35 3.45.52 5 .52m42.79-23.57c-.95 0-1.88.04-2.78.13-6.07.59-10.85 1.77-14.23 2.55-2.25.52-3.84.61-4.64.61-.4 0-.61-.02-.61-.02h-1.66s-.21.02-.61.02c-.81 0-2.39-.09-4.65-.61-3.38-.78-8.16-1.96-14.23-2.55-.9-.09-1.84-.12-2.78-.13-5.44 0-11.18 1.25-12.19 1.5-1.18.29-2.57.29-2.57.29l.2 5.94s1.69.19 2.3 3.96c.61 3.74 2.54 9.26 7.39 11.9 2.04 1.11 4.85 1.74 7.84 1.74 4.1 0 8.53-1.18 11.72-3.91 5.55-4.75 5.53-10.69 6.02-12.05.49-1.35 1.08-2.13 1.77-2.13h1.26c.69 0 1.28.78 1.77 2.13.49 1.35.47 7.3 6.02 12.05 3.19 2.73 7.62 3.91 11.72 3.91 2.99 0 5.8-.62 7.84-1.74 4.85-2.64 6.78-8.16 7.39-11.9.61-3.77 2.3-3.96 2.3-3.96l.2-5.94s-1.39 0-2.57-.29c-1.04-.25-6.78-1.5-12.22-1.5zm-3.4 23.32c-1.99 0-3.69-.29-5.31-.76-2.83-.82-5.06-2.51-6.81-5.43-1.76-2.93-2.37-5.93-2.13-8.14.24-2.21 2.36-4.05 5.09-4.97 2.74-.92 8.21-1.38 10.09-1.46.75-.03 1.54-.05 2.33-.05 3.52 0 7.23.43 8.77 2.44 1.88 2.45 1.41 7.77.07 11.09-1.33 3.3-3.47 6.07-7.16 6.78-1.85.34-3.47.5-4.94.5zm-39.4 0c-1.47 0-3.09-.16-4.95-.51-3.69-.7-5.83-3.48-7.16-6.78-1.33-3.32-1.8-8.64.07-11.09 1.54-2 5.25-2.43 8.77-2.44.8 0 1.58.02 2.33.05 1.88.08 7.35.54 10.09 1.46 2.74.92 4.85 2.76 5.09 4.97.24 2.2-.37 5.2-2.13 8.14-1.75 2.92-3.98 4.61-6.81 5.43-1.61.48-3.31.77-5.3.77z" fill="#bb3540" stroke-width="none" opacity="1"></path></g></g></g></g></g><rect id="svga-credit-rect" width="200" height="15" x="0" y="185" fill="#ecf0f1" opacity="0.5" style="display: none;"></rect><text id="svga-credit-text" font-family="Avenir Next, Roboto, Helvetica, Arial, sans-serif" font-size="10px" text-anchor="start" font-weight="400" size="10px" anchor="start" weight="400" fill="#333333" x="33.43669891357422" y="182.60824704170227" style="display: none;"><tspan id="SvgjsTspan21882" dy="13" x="33.43669891357422">Created on AvatarMaker.com</tspan></text></g></svg>