<svg xmlns="http://www.w3.org/2000/svg" version="1.1" width="600px" height="600px" viewBox="0 0 200 200" style="overflow:hidden!important;"><defs id="SvgjsDefs32621"><linearGradient id="SvgjsLinearGradient33304" x1="99.7642" y1="100.53" x2="99.7642" y2="113.2523" gradientUnits="userSpaceOnUse" class="svga-on-canvas-nose-gradient-single-0-null"><stop id="SvgjsStop33305" stop-opacity="0" stop-color="#f4baa3" offset="0" ></stop><stop id="SvgjsStop33306" stop-opacity="1" stop-color="#ecac92" offset="1" ></stop></linearGradient><linearGradient id="SvgjsLinearGradient33335" x1="80.041" y1="122.3577" x2="80.041" y2="100.9465" gradientTransform="matrix(1 0 0 -1 0 202)" gradientUnits="userSpaceOnUse" class="svga-on-canvas-glasses-gradient-single-0-null"><stop id="SvgjsStop33336" stop-opacity="1" stop-color="#97a1ad" offset="0" ></stop><stop id="SvgjsStop33337" stop-opacity="0.6667" stop-color="#889ab3" offset="0.3333" ></stop><stop id="SvgjsStop33338" stop-opacity="3.130000e-02" stop-color="#6287c3" offset="0.9687" ></stop><stop id="SvgjsStop33339" stop-opacity="0" stop-color="#6086c4" offset="1" ></stop></linearGradient><linearGradient id="SvgjsLinearGradient33341" x1="-1738.9479" y1="122.1526" x2="-1738.9479" y2="100.9332" gradientTransform="matrix(-1 0 0 -1 -1618 202)" gradientUnits="userSpaceOnUse" class="svga-on-canvas-glasses-gradient-single-1-null"><stop id="SvgjsStop33342" stop-opacity="1" stop-color="#97a1ad" offset="0" ></stop><stop id="SvgjsStop33343" stop-opacity="0.6667" stop-color="#889ab3" offset="0.3333" ></stop><stop id="SvgjsStop33344" stop-opacity="3.130000e-02" stop-color="#6287c3" offset="0.9687" ></stop><stop id="SvgjsStop33345" stop-opacity="0" stop-color="#6086c4" offset="1" ></stop></linearGradient></defs><g id="svga-group-wrapper"><g id="svga-group-backs-single"><path id="SvgjsPath33293" d="M0 0h200v200H0V0z" fill="#aee239" stroke-width="none" opacity="1"></path><path id="SvgjsPath33294" d="M0 0h18.2v200H0V0zm36.4 0h18.2v200H36.4V0zm36.3 0h18.2v200H72.7V0zm36.4 0h18.2v200h-18.2V0zm36.3 0h18.2v200h-18.2V0zm36.4 0H200v200h-18.2V0z" fill="#9cd320" stroke-width="none" opacity="1"></path></g><g id="svga-group-humanwrap-move" transform="matrix(1,0,0,1,0,0)"><g id="svga-group-humanwrap" transform="matrix(1,0,0,1,0,0)"><g id="svga-group-hair-back-move" transform="matrix(1,0,0,1,0,0)"><g id="svga-group-hair-back" transform="matrix(1,0,0,1,0,0)"></g></g><g id="svga-group-humanbody-back"><path id="SvgjsPath33020" d="M180.8 184.9c-2.3-3.4-38.9-17.8-38.9-17.8l-13.4-5.2-5.6-68.8H76.8L71.3 162l-13.4 5.2S21.4 181.6 19 185c-2.3 3.4-3.3 14.9-3.3 14.9V219h168.5v-19.2c-.1.1-1-11.5-3.4-14.9z" fill="#f4baa3" stroke-width="none" opacity="1" stroke="none"></path></g><g id="svga-group-chinshadow-single"><path id="SvgjsPath33245" d="M80.4 152.5c5 8 14 6.5 14 6.5s9 1.4 14-6.6c0 0 2.7 0 12.7-1.3 2.4-.3 4.5-1.1 6.4-2.2L123 93.1H76.8l-4.7 58.7c6.5.7 8.3.7 8.3.7z" fill="#d58464" stroke-width="none" opacity="1" stroke="none"></path></g><g id="svga-group-humanbody-front"><path id="SvgjsPath33021" d="M184.5 219c-.1-6.4-.1-12.8-.1-19.2l-.3-.1s.1-.1.2 0c.1 0 .1.1.1.1v-.4l-.1-.5-.1-.9-.2-1.9c-.2-1.3-.4-2.5-.6-3.8-.2-1.3-.5-2.5-.9-3.8-.4-1.2-.8-2.5-1.5-3.6-.8-.9-1.9-1.5-2.9-2.1-1-.6-2.1-1.1-3.2-1.7-2.1-1.1-4.3-2.1-6.5-3.1-4.4-2-8.7-3.9-13.1-5.7-4.4-1.9-8.8-3.7-13.2-5.5l-13-5.2-1.2-16.9c-.4-5.7-.9-11.5-1.3-17.2l-1.3-17.2-1.5-17.3-.1-.8h-.8c-7.7 0-15.4.1-23.1.1l-23.1.2h-.5v.5L75 110.2l-1.3 17.2c-.8 11.4-1.8 22.8-2.8 34.2-5.6 2.1-11.2 4.2-16.7 6.4-5.6 2.2-11.2 4.5-16.8 6.9-2.8 1.2-5.6 2.4-8.3 3.6-2.8 1.3-5.5 2.5-8.2 4.1-.7.4-1.3.8-2 1.4-.2.1-.4.4-.5.6l-.3.6c-.2.4-.4.7-.5 1.1-.6 1.5-1 3-1.3 4.5-.6 3-1.1 6-1.4 9.1l-.1 19.1v.9h.9l42.1.1H100c14 0 28.1-.1 42.1-.2l42.1-.5h.3v-.3zm-84.5-1-42.1-.1-41.2.1-.1-18.1c.3-3 .6-5.9 1.2-8.9.3-1.4.6-2.9 1.1-4.2.1-.3.3-.7.4-.9l.2-.4.3-.3c.5-.4 1.1-.8 1.8-1.2 2.5-1.5 5.3-2.8 8-4.1 2.7-1.3 5.5-2.5 8.2-3.7 5.5-2.4 11.1-4.8 16.7-7.1s11.2-4.5 16.9-6.7l.2-.1v-.2c.9-11.5 1.7-23 2.7-34.4l1.4-17.2 1.5-16.7 22.6.2c7.4.1 14.8.1 22.3.1l1.3 16.4 1.5 17.2c.5 5.7 1 11.5 1.5 17.2l1.6 17.2v.3l.3.1 13.4 5c4.4 1.7 8.9 3.4 13.3 5.2 4.4 1.8 8.8 3.7 13.2 5.6 2.2 1 4.3 2 6.5 3 1.1.5 2.1 1.1 3.2 1.6 1 .6 2.1 1.2 2.9 2 .7 1.1 1.1 2.3 1.4 3.5.3 1.2.6 2.5.8 3.7.2 1.3.4 2.5.6 3.8l.2 1.9.1.9.1.5v.4c0 6.3 0 12.6-.1 18.9l-41.8-.5c-14 .1-28.1 0-42.1 0z" fill="#c66c49" stroke-width="none" opacity="1" stroke="none"></path><path id="SvgjsPath33022" d="M125.1 142.4s-1.8 23-9.1 32.9c0 0 7.9-25 9.1-32.9zm-34.5 16s5 7.9 11.5 10.1c0 0-9.5 2.2-11.5-10.1zM73.4 140c6.7 25.6 6.7 25.6 8.5 30.7 0 0 .4-12.6-8.5-30.7z" fill="#d58464" stroke-width="none" opacity="1" stroke="none"></path></g><g id="svga-group-clothes-single"><path id="SvgjsPath33147" d="M53.2 168.3s-14.6 5.6-17.9 7.1c0 0 6.1 11.9 6.1 43.9h115.3s-.3-24 7.4-43.6c0 0-13.9-6.2-16.9-6.9 0 0-6.3 18.4-10.4 25.3-4.2 6.9-44.7 4.9-60.6 4.1-12.2-.5-18.4-15.7-23-29.9z" fill="#9d69bc" stroke-width="none" opacity="1"></path><path id="SvgjsPath33148" d="M164.5 174.9c-2.8-1.2-5.6-2.5-8.4-3.7l-4.2-1.8c-1.4-.6-2.8-1.1-4.4-1.6l-.9-.2-.3.9c-1.8 5-3.6 10-5.7 14.9-1 2.4-2.1 4.9-3.2 7.3l-.9 1.8c-.3.5-.6 1.2-.9 1.5-.7.7-1.9 1.3-3.1 1.7-2.4.8-5.1 1.2-7.7 1.6-2.7.3-5.3.5-8 .7-5.4.3-10.8.3-16.2.3-5.4 0-10.8-.2-16.2-.3l-8.1-.3c-2.6-.1-5.1-.9-7.3-2.3s-4-3.3-5.6-5.4c-1.6-2.1-2.9-4.4-4.2-6.8-1.2-2.4-2.3-4.8-3.3-7.3s-1.9-5-2.8-7.6c-.3.1-.4.1-.7.2l-.6.2-1.1.4-2.3.8-4.5 1.7-4.5 1.7c-1.5.6-3 1.1-4.5 1.8l-.4.2.2.5c1.4 3.3 2.3 7 3 10.6.7 3.6 1.2 7.3 1.6 11 .4 3.7.6 7.4.8 11.1l.2 5.6V220.5h.8c9.6.1 19.2 0 28.8 0l28.8-.3c4.8-.1 9.6-.1 14.4-.1l14.4-.1c9.6 0 19.2.1 28.8.2h.5v-.5c0-3.7.3-7.4.6-11 .4-3.7.8-7.3 1.5-11 .6-3.6 1.4-7.2 2.3-10.8.9-3.6 2.1-7 3.4-10.5l.3-.8-.4-.7zm-4.5 11.2c-.9 3.6-1.6 7.3-2.1 11s-.9 7.4-1.2 11.1c-.2 3.6-.4 7.1-.4 10.7-9.4.1-18.9.1-28.3.2l-14.4-.1c-4.8 0-9.6-.1-14.4-.1l-28.8-.3c-9.3 0-18.7-.1-28 0l-.1-4.8-.2-5.6c-.2-3.7-.5-7.4-1-11.2-.5-3.7-1.1-7.4-1.9-11.1-.8-3.5-1.7-7-3.2-10.3 2.8-1.3 5.6-2.4 8.4-3.6l4.4-1.8 2.2-.9 1.1-.5.6-.2c.2-.1.4-.1.5-.2.7 2.5 1.5 5 2.4 7.6.9 2.5 1.9 5 3 7.5 1.2 2.4 2.4 4.8 4 7s3.5 4.3 5.8 5.8c2.3 1.6 5.1 2.6 7.9 2.7l8.1.4c5.4.3 10.8.5 16.2.6 5.4.1 10.8.1 16.3-.1 2.7-.1 5.4-.3 8.2-.6 2.7-.4 5.4-.7 8.1-1.6 1.3-.5 2.7-1 3.9-2.2.6-.7.9-1.3 1.2-1.9l.9-1.8c1.2-2.4 2.3-4.9 3.3-7.4 1.9-4.7 3.6-9.4 5.3-14.2l3.3 1.2c1.4.6 2.8 1.1 4.2 1.7 2.6 1.1 5.1 2.2 7.6 3.3-1.1 3.1-2.1 6.4-2.9 9.7z" fill="#78389d" stroke-width="none" opacity="1"></path></g><g id="svga-group-head" transform="matrix(1,0,0,1,0,0)"><g id="svga-group-ears-left-move" transform="matrix(1,0,0,1,0,0)"><g id="svga-group-ears-left" transform="matrix(1,0,0,1,0,0)"><path id="SvgjsPath33157" d="M69.12 87.77s-3.29-8.06-6.27-11.95c0 0-1.72-1.36-3.37-2.59a2.608 2.608 0 0 0-3.59.45c-1.89 2.35-5.15 6.65-7.88 11.59-.45.82-.63 1.77-.48 2.7.34 2.01 1.03 5.64 1.87 7.11 1.19 2.09 6.12 7.32 9.56 9.11 0 0 3.88.6 6.87-2.09s3.29-14.33 3.29-14.33z" fill="#f4baa3" stroke-width="none" opacity="1" stroke="none"></path><path id="SvgjsPath33158" d="M67.06 88.73c-.08-.25-6.48-8.56-8.98-10.14-2.49-1.58-7.73 6.57-7.98 9.31s2.49 7.9 4.82 9.39c2.33 1.5 7.56 2.08 10.47-2.16 2.91-4.24 1.67-6.4 1.67-6.4z" fill="#e59e82" stroke-width="none" opacity="1" stroke="none"></path><path id="SvgjsPath33159" d="M47.63 85.77c-.18.46-.28.95-.31 1.44-.03.5.07.99.14 1.45.15.94.32 1.89.51 2.83.2.94.42 1.88.74 2.8.31.95.92 1.78 1.5 2.53 1.19 1.52 2.52 2.91 3.92 4.23 1.41 1.31 2.88 2.57 4.63 3.51l.07.04.06.01c1.97.21 3.93-.17 5.65-1.11.84-.48 1.63-1.08 2.2-1.94.55-.83.84-1.75 1.13-2.65.53-1.82.79-3.68.99-5.54.2-1.86.27-3.72.28-5.6-.39-1.08-.81-2.11-1.25-3.16-.43-1.04-.91-2.07-1.39-3.09-.5-1.02-.99-2.04-1.56-3.02-.57-.98-1.16-1.95-1.85-2.88l-.02-.03-.03-.03-2.24-1.76-1.15-.87c-.44-.31-.96-.5-1.5-.54a2.91 2.91 0 0 0-1.56.32c-.47.23-.88.68-1.14 1.05-.58.76-1.15 1.53-1.71 2.31-2.19 3.13-4.31 6.28-6.11 9.7zm.02 1.45c0-.46.09-.92.25-1.35.81-1.68 1.83-3.33 2.87-4.91 1.05-1.59 2.17-3.13 3.35-4.62.59-.75 1.18-1.49 1.79-2.22.54-.75 1.34-1.14 2.19-1.07.42.03.82.19 1.15.43l1.12.87 2.24 1.7c1.33 1.75 2.42 3.72 3.48 5.68.53.99 1.02 2 1.53 3.01.5 1 .99 2.03 1.46 3.04-.12 1.84-.35 3.7-.62 5.53-.28 1.83-.64 3.66-1.19 5.4-.31.85-.62 1.73-1.12 2.44-.47.69-1.22 1.23-1.99 1.66-1.52.84-3.37 1.17-5.08.99-1.58-.89-3.04-2.07-4.42-3.32-1.4-1.27-2.72-2.64-3.92-4.08-.6-.74-1.16-1.45-1.47-2.32-.34-.86-.6-1.78-.83-2.7-.23-.92-.43-1.85-.62-2.78-.07-.48-.18-.93-.17-1.38z" fill="#e59e82" stroke-width="none" opacity="1" stroke="none"></path><path id="SvgjsPath33160" d="M52.04 87.76c.28-.91.7-1.72 1.16-2.52.45-.79.97-1.54 1.51-2.27s1.12-1.43 1.79-2.06c.17-.16.35-.31.57-.42.11-.05.25-.11.43-.05.16.08.19.19.28.28.25.39.47.78.67 1.19.82 1.61 1.6 3.24 2.26 4.93.33.84.62 1.7.85 2.59.12.44.22.89.3 1.34.06.45.15.96.03 1.45-.21.97-.78 1.74-1.34 2.45-.58.7-1.24 1.33-1.96 1.89l-.05-.06c.61-.66 1.18-1.35 1.68-2.08.5-.72.93-1.52 1.08-2.32.12-.77-.17-1.66-.41-2.5-.26-.85-.52-1.7-.8-2.55-.55-1.7-1.12-3.41-1.88-5.03-.19-.4-.4-.8-.64-1.16-.06-.06-.14-.18-.19-.19-.04-.02-.13 0-.21.05-.17.09-.34.24-.5.39-.63.61-1.13 1.37-1.62 2.11-.93 1.51-1.82 3.1-2.31 4.74-.05.2-.1.41-.11.6-.01.1-.01.18 0 .26.01.09.03.21.05.31.08.42.19.84.33 1.25.28.82.64 1.62 1.07 2.37.11.19.22.37.34.55.06.09.12.17.18.26.06.08.15.17.12.14-.03.01.11.01.27-.06.16-.09.34-.18.5-.31.67-.51 1.29-1.17 1.81-1.85.06-.09.13-.17.18-.26l.08-.13.03-.09c.04-.15.03-.36 0-.56-.06-.42-.18-.84-.32-1.26-.28-.84-.62-1.68-.99-2.5l.07-.04c.48.77.92 1.56 1.29 2.39.18.42.35.85.46 1.31.05.23.09.48.05.78-.02.08-.04.16-.07.24-.03.06-.06.11-.09.16-.06.11-.13.2-.19.3-.53.77-1.12 1.47-1.85 2.09-.18.15-.39.3-.62.43-.24.1-.58.27-1.02.05-.23-.15-.27-.24-.36-.33-.07-.1-.15-.19-.22-.29-.14-.19-.26-.39-.39-.59-.47-.81-.86-1.65-1.13-2.54-.13-.45-.24-.9-.31-1.37-.01-.12-.03-.23-.04-.36-.01-.14-.01-.28.01-.41.04-.27.1-.51.17-.74z" fill="#c66c49" stroke-width="none" opacity="1" stroke="none"></path></g></g><g id="svga-group-ears-right-move" transform="matrix(1,0,0,1,0,0)"><g id="svga-group-ears-right" transform="matrix(1,0,0,1,0,0)"><path id="SvgjsPath33161" d="M130.88 87.77s3.29-8.06 6.27-11.95c0 0 1.72-1.36 3.37-2.59 1.12-.84 2.71-.64 3.59.45 1.89 2.35 5.15 6.65 7.88 11.59.45.82.63 1.77.48 2.7-.34 2.01-1.03 5.64-1.87 7.11-1.19 2.09-6.12 7.32-9.56 9.11 0 0-3.88.6-6.87-2.09-2.99-2.68-3.29-14.33-3.29-14.33z" fill="#f4baa3" stroke-width="none" opacity="1" stroke="none"></path><path id="SvgjsPath33162" d="M132.94 88.73c.08-.25 6.48-8.56 8.98-10.14 2.49-1.58 7.73 6.57 7.98 9.31s-2.49 7.9-4.82 9.39c-2.33 1.5-7.56 2.08-10.47-2.16-2.91-4.24-1.67-6.4-1.67-6.4z" fill="#e59e82" stroke-width="none" opacity="1" stroke="none"></path><path id="SvgjsPath33163" d="M146.25 76.06c-.56-.78-1.12-1.55-1.71-2.31-.26-.37-.66-.82-1.14-1.05a2.91 2.91 0 0 0-1.56-.32c-.54.04-1.06.23-1.5.54l-1.15.87-2.26 1.77-.03.03-.02.03c-.69.92-1.28 1.89-1.85 2.88-.57.98-1.06 2-1.56 3.02-.49 1.02-.96 2.05-1.39 3.09-.43 1.05-.86 2.08-1.25 3.16.01 1.88.08 3.73.28 5.6.2 1.86.46 3.72.99 5.54.3.9.58 1.82 1.13 2.65.57.86 1.36 1.46 2.2 1.94 1.72.95 3.68 1.32 5.65 1.11l.06-.01.07-.04c1.75-.94 3.22-2.2 4.63-3.51 1.4-1.32 2.73-2.71 3.92-4.23.58-.75 1.19-1.58 1.5-2.53.33-.92.54-1.86.74-2.8.2-.94.36-1.88.51-2.83.07-.46.17-.95.14-1.45-.02-.5-.13-.98-.31-1.44-1.77-3.42-3.89-6.57-6.09-9.71zm5.91 12.54c-.18.93-.38 1.86-.62 2.78-.23.92-.49 1.83-.83 2.7-.31.87-.87 1.58-1.47 2.32a41.929 41.929 0 0 1-3.92 4.08c-1.38 1.25-2.84 2.43-4.42 3.32-1.71.18-3.55-.15-5.08-.99-.77-.43-1.52-.96-1.99-1.66-.5-.71-.81-1.59-1.12-2.44-.55-1.74-.91-3.57-1.19-5.4-.26-1.83-.49-3.69-.62-5.53.47-1 .96-2.03 1.46-3.04.51-1 1-2.02 1.53-3.01 1.06-1.96 2.15-3.92 3.48-5.68l2.24-1.7 1.12-.87c.33-.25.73-.4 1.15-.43.85-.07 1.65.32 2.19 1.07.61.73 1.21 1.47 1.79 2.22 1.18 1.49 2.3 3.03 3.35 4.62 1.04 1.58 2.06 3.23 2.87 4.91.16.43.25.89.25 1.35.03.45-.08.9-.17 1.38z" fill="#e59e82" stroke-width="none" opacity="1" stroke="none"></path><path id="SvgjsPath33164" d="M147.96 87.76c-.28-.91-.7-1.72-1.16-2.52-.45-.79-.97-1.54-1.51-2.27s-1.12-1.43-1.79-2.06c-.17-.16-.35-.31-.57-.42-.11-.05-.25-.11-.43-.05-.16.08-.19.19-.28.28-.25.39-.47.78-.67 1.19-.82 1.61-1.6 3.24-2.26 4.93-.33.84-.62 1.7-.85 2.59-.12.44-.22.89-.3 1.34-.06.45-.15.96-.03 1.45.21.97.78 1.74 1.34 2.45.58.7 1.24 1.33 1.96 1.89l.05-.06c-.61-.66-1.18-1.35-1.68-2.08-.5-.72-.93-1.52-1.08-2.32-.12-.77.17-1.66.41-2.5.26-.85.52-1.7.8-2.55.55-1.7 1.12-3.41 1.88-5.03.19-.4.4-.8.64-1.16.06-.06.14-.18.19-.19.04-.02.13 0 .21.05.17.09.34.24.5.39.63.61 1.13 1.37 1.62 2.11.93 1.51 1.82 3.1 2.31 4.74.05.2.1.41.11.6.01.1.01.18 0 .26-.01.09-.03.21-.05.31-.08.42-.19.84-.33 1.25-.28.82-.64 1.62-1.07 2.37-.11.19-.22.37-.34.55-.06.09-.12.17-.18.26-.06.08-.15.17-.12.14.03.01-.11.01-.27-.06-.16-.09-.34-.18-.5-.31-.67-.51-1.29-1.17-1.81-1.85-.06-.09-.13-.17-.18-.26l-.08-.13-.03-.09c-.04-.15-.03-.36 0-.56.06-.42.18-.84.32-1.26.28-.84.62-1.68.99-2.5l-.07-.04c-.48.77-.92 1.56-1.29 2.39-.18.42-.35.85-.46 1.31-.05.23-.09.48-.05.78.02.08.04.16.07.24.03.06.06.11.09.16.06.11.13.2.19.3.53.77 1.12 1.47 1.85 2.09.18.15.39.3.62.43.24.1.58.27 1.02.05.23-.15.27-.24.36-.33.07-.1.15-.19.22-.29.14-.19.26-.39.39-.59.47-.81.86-1.65 1.13-2.54.13-.45.24-.9.31-1.37.01-.12.03-.23.04-.36.01-.14.01-.28-.01-.41-.04-.27-.1-.51-.17-.74z" fill="#c66c49" stroke-width="none" opacity="1" stroke="none"></path></g></g><g id="svga-group-faceshape-wrap" transform="matrix(1,0,0,1,0,0)"><g id="svga-group-faceshape-single"><path id="SvgjsPath33233" d="M143.2 113.8c-.6-7.1-3.8-21.3-4-26.7s.5-17.6.5-17.6l.3-3.2s.8-7.3-.1-11.5c-2.2-10-6.1-15.8-15-20.6-9.3-5-25-4.9-25-4.9s-15.8-.2-25.1 4.8C66.1 39 62 44.7 59.8 54.7c-.9 4 .1 13.8.1 13.8s1.2 13.7 1 19.1-1.6 19.2-2.2 26.4c-.6 7.1 1.3 24.2 15 26 10.1 1.3 12.6 1.4 12.6 1.4 5 8 13.7 6.4 13.7 6.4s8.8 1.4 13.8-6.6c0 0 2.9.3 12.9-1 13.9-1.8 17.2-19.3 16.5-26.4z" fill="#f4baa3" stroke-width="none" opacity="1" stroke="none"></path><path id="SvgjsPath33234" d="M143.2 113.8c-.5-5.6-1.6-11.1-2.5-16.6-.5-2.8-.9-5.5-1.2-8.3-.2-2.8-.1-5.6 0-8.4.1-2.8.3-5.6.5-8.4.1-2.8.5-5.5.7-8.4.2-2.8.3-5.6-.2-8.5-.6-2.8-1.3-5.5-2.5-8.2-1.1-2.7-2.7-5.1-4.7-7.2-2-2.1-4.3-3.8-6.8-5.2-1.2-.7-2.5-1.4-3.8-1.9-1.3-.5-2.7-1-4-1.4-2.7-.8-5.5-1.3-8.3-1.6-5.6-.7-11.2-.9-16.8-.4-5.6.5-11.2 1.4-16.4 3.5-1.3.5-2.6 1.2-3.8 1.9-1.2.7-2.4 1.5-3.5 2.4-2.2 1.7-4.3 3.7-5.8 6.1-1.6 2.3-2.7 5-3.6 7.6-.4 1.3-.8 2.7-1.1 4.1-.3 1.4-.3 2.8-.4 4.2-.1 5.7.6 11.2.9 16.8.2 2.8.3 5.6.4 8.4.1 2.8-.1 5.5-.4 8.3l-1.6 16.7-.4 4.2c-.1 1.4-.2 2.9-.1 4.3.1 2.8.5 5.7 1.2 8.5.8 2.8 1.9 5.5 3.5 7.9 1.7 2.4 4 4.4 6.8 5.5 1.4.6 2.8.9 4.2 1.1l4.2.5 8 .9c.7 1 1.5 2.1 2.5 2.9 1 1 2.2 1.7 3.5 2.3 1.3.6 2.6 1 4 1.2 1.4.2 2.7.2 4.1 0 1.4.1 2.8.1 4.1-.1 1.4-.2 2.8-.6 4-1.3 1.3-.6 2.5-1.4 3.5-2.4 1-.9 1.8-1.9 2.5-3 1.9 0 3.8-.2 5.6-.3 2-.2 3.9-.4 5.9-.7 1.9-.2 3.9-.8 5.8-1.6.5-.2.9-.5 1.3-.7.4-.3.9-.5 1.3-.8.8-.6 1.6-1.2 2.2-2 2.8-2.9 4.6-6.5 5.7-10.3.6-1.9 1-3.8 1.2-5.8.4-1.8.5-3.8.3-5.8zm-.3 5.9c-.2 1.9-.7 3.9-1.3 5.7-.6 1.9-1.4 3.7-2.3 5.4-1 1.7-2.1 3.3-3.5 4.6-.6.7-1.4 1.3-2.2 1.9-.4.3-.8.5-1.2.8-.4.2-.8.5-1.3.7-1.8.8-3.6 1.2-5.6 1.4-1.9.2-3.9.4-5.8.6-1.9.1-3.9.3-5.8.2h-.3l-.2.3c-.8 1.1-1.5 2.1-2.5 2.9-.9.9-2.1 1.6-3.2 2.1-1.2.5-2.4.9-3.7 1.1-1.3.2-2.6.2-3.8.1h-.2c-1.2.2-2.5.1-3.8-.1-1.2-.2-2.5-.6-3.6-1.1s-2.2-1.2-3.1-2.1c-.9-.8-1.7-1.9-2.4-2.9l-.2-.3-.4-.1-8.3-1-4.2-.5c-1.3-.2-2.6-.5-3.8-1-2.4-1-4.5-2.8-6.1-5-1.6-2.2-2.6-4.7-3.4-7.3-.7-2.6-1.1-5.4-1.2-8.1 0-1.4 0-2.7.1-4.1l.4-4.2c.5-5.6 1-11.2 1.4-16.8 1.1-11.3-1.3-22.5-1.4-33.6 0-1.4 0-2.8.3-4.1.3-1.3.6-2.7 1-4 .8-2.7 1.9-5.2 3.5-7.5 1.5-2.3 3.5-4.3 5.7-6 2.2-1.7 4.6-3.2 7.2-4.2 2.6-1 5.3-1.7 8-2.2 2.7-.5 5.5-.9 8.3-1 5.6-.4 11.2-.1 16.7.7 5.5.8 11 2.2 15.7 5 2.4 1.4 4.6 3.1 6.4 5.1 1.9 2 3.3 4.3 4.4 6.8 1.1 2.5 1.9 5.2 2.5 7.9.5 2.7.4 5.5.3 8.2-.1 2.7-.4 5.6-.5 8.4-.1 2.8-.2 5.6-.2 8.4 0 2.8-.1 5.6.2 8.4.3 2.8.9 5.5 1.3 8.3.9 5.5 2.1 11 2.7 16.6-.2 1.7-.4 3.7-.6 5.6z" fill="#c66c49" stroke-width="none" opacity="1" stroke="none"></path><path id="SvgjsPath33235" d="M98.2 142.9s.8-3.7 4.1-4.6c3.3-1-4.1 4.6-4.1 4.6z" fill="#d58464" stroke-width="none" opacity="1" stroke="none"></path></g></g><g id="svga-group-mouth-single-move" transform="matrix(1,0,0,1,0,0)"><g id="svga-group-mouth-single" transform="matrix(1,0,0,1,0,0)"><path id="SvgjsPath33324" d="M88.53 129.83s4.06 4.15 10.11 4.69 12.45-4.15 12.45-4.15-12.81 5.96-22.56-.54z" fill="#d58464" stroke-width="none" opacity="1" stroke="none"></path><path id="SvgjsPath33325" d="M83.99 123.04s1.47.84 3.56 1.38c2.32.6 5.38.95 7.57 1.65 2.99.95 3.52 2.68 4.69 2.49 1.17-.18 2.37-2.32 4.63-2.77 2.26-.45 8.66 0 11.37-1.49 0 0-10.89-1.46-16.48-1.65-7.61-.26-15.34.39-15.34.39z" fill="#A06B59" stroke-width="none" opacity="1" stroke="none"></path></g></g><g id="svga-group-eyes-left-move" transform="matrix(1,0,0,1,0,0)"><g id="svga-group-eyes-left" transform="matrix(1,0,0,1,0,0)"><g id="svga-group-eyesback-left"><path id="SvgjsPath33195" d="M80.2 74.2c7.5 0 13.5 5.8 13.5 13s-6 13-13.5 13-13.5-5.8-13.5-13 6-13 13.5-13z" fill="#ffffff" stroke-width="none" opacity="1"></path></g><g id="svga-group-eyesiriswrapper-left" transform="matrix(1,0,0,1,0,0)"><g id="svga-group-eyesiriscontrol-left" transform="matrix(1,0,0,1,0,0)"><g id="svga-group-eyesiris-left" transform="matrix(1,0,0,1,0,0)"><path id="SvgjsPath33249" d="M80.2 81.9c2.9 0 5.3 2.4 5.3 5.3s-2.4 5.3-5.3 5.3-5.3-2.4-5.3-5.3 2.4-5.3 5.3-5.3z" fill="#ddb332" stroke-width="none" opacity="1"></path><path id="SvgjsPath33250" d="M84.7 84.3c.4.6.7 1.2.8 1.9s.2 1.4.1 2.2-.4 1.4-.8 2.1c-.4.6-1 1.1-1.6 1.5s-1.3.6-2.1.7c-.7.1-1.4.1-2.2-.1-1.4-.3-2.7-1.1-3.5-2.3-.4-.6-.7-1.3-.9-2-.2-.7-.2-1.5 0-2.2.1-.7.4-1.4.8-2.1.4-.6 1-1.2 1.6-1.6s1.3-.7 2.1-.8c.7-.1 1.5-.1 2.2.1 1.6.5 2.7 1.4 3.5 2.6zm0 0-.3-.4c-.1-.1-.2-.3-.3-.4-.1-.1-.3-.2-.4-.3-.1-.1-.3-.2-.4-.3-.6-.4-1.2-.6-1.9-.7-1.3-.2-2.7.1-3.8.8-1.1.7-1.9 1.8-2.2 3.1-.3 1.3-.1 2.7.6 3.8.3.6.8 1.1 1.4 1.5s1.2.7 1.9.8c.7.1 1.4.1 2-.1.7-.2 1.3-.4 1.8-.8s1-.8 1.4-1.4.7-1.1.9-1.8c.2-.6.2-1.3.2-2-.3-.5-.6-1.2-.9-1.8z" fill="#be9105" stroke-width="none" opacity="1"></path><path id="SvgjsPath33251" d="M80.2 85.3c1 0 1.9.9 1.9 1.9s-.9 1.9-1.9 1.9-1.9-.9-1.9-1.9.9-1.9 1.9-1.9z" fill="#000000" stroke-width="none" opacity="1"></path><path id="SvgjsPath33252" d="M80.2 89.3c-1.2 0-2.1-.9-2.1-2.1s.9-2.1 2.1-2.1 2.1.9 2.1 2.1-1 2.1-2.1 2.1zm0-3.8c-.9 0-1.7.8-1.7 1.7 0 .9.8 1.7 1.7 1.7.9 0 1.7-.8 1.7-1.7s-.7-1.7-1.7-1.7z" fill="#be9105" stroke-width="none" opacity="1"></path><path id="SvgjsPath33253" d="M77.7 83.2c.4-.2 1.2.3 1.7 1.1.5.9.6 1.8.1 2s-1.2-.3-1.7-1.1c-.4-.8-.5-1.7-.1-2zm3.7 5c.4 0 .6.3.6.6s-.3.6-.6.6-.6-.3-.6-.6.3-.6.6-.6z" fill="#ffffff" stroke-width="none" opacity="1"></path></g></g></g><g id="svga-group-eyesfront-left"><path id="SvgjsPath33203" d="M80.2 73.7c-7.8 0-14.1 6.1-14.1 13.6s6.3 13.6 14.1 13.6 14.1-6.1 14.1-13.6S88 73.7 80.2 73.7zm3.3 22c-4.4-.2-18.8-8.9-15.5-11.3s9.4-2 12.2-1.1c2.8.9 9.5 11.1 9.5 11.1.2.4-1.7 1.4-6.2 1.3z" fill="#f4baa3" stroke-width="none" opacity="1" stroke="none"></path><path id="SvgjsPath33204" d="M90.2 94.4s-6.6-8.9-7.4-10.2c-.8-1.2-.6-1.4-.6-1.4s2.2 0 2.5-.1c.3-.2-4.1-1.8-5.4-2s-12.3 0-12.4 4.2c0 0 .2-.1.6-.2-.1.1-.1.2-.1.3-.1.3 0 .7.1.9.2.6.6 1.1.9 1.5.8.9 1.6 1.6 2.5 2.3 1.8 1.4 3.8 2.6 5.8 3.7 1 .5 2.1 1 3.1 1.4 1.1.4 2.2.8 3.4.9 1.2 0 2.3 0 3.4-.2.6-.1 1.1-.2 1.7-.4.3-.1.5-.2.8-.3.1-.1.2-.1.4-.2.1-.1.2-.2.2-.4-.2-.4-.5-.7-.7-1.1.4.6.8 1.1 1.2 1.3zm-.5-.1c0 .1-.1.2-.2.3-.1.1-.2.2-.4.2-.2.1-.5.2-.8.3-.5.2-1.1.3-1.7.3-1.1.1-2.3.1-3.4 0-1.1-.2-2.2-.6-3.2-1s-2-.8-3-1.4c-2-1.1-3.9-2.2-5.7-3.6-.9-.7-1.8-1.4-2.5-2.2-.4-.4-.7-.8-.9-1.3-.1-.2-.2-.5-.1-.7 0-.2.1-.4.3-.5 2.1-.5 6.7-1.7 7.9-1.6h2.2l1.5.3c.3.1.6.2.8.2.2.1.5.3.7.4.9.7 1.6 1.5 2.4 2.3.5.5.9 1.1 1.4 1.6 1.2 1.6 2.5 3.3 3.6 4.6.2.6.6 1.2 1.1 1.8z" fill="#587d90" stroke-width="none" opacity="1" stroke="none"></path></g></g></g><g id="svga-group-eyes-right-move" transform="matrix(1,0,0,1,0,0)"><g id="svga-group-eyes-right" transform="matrix(1,0,0,1,0,0)"><g id="svga-group-eyesback-right"><path id="SvgjsPath33196" d="M119.8 74.2c7.5 0 13.5 5.8 13.5 13s-6 13-13.5 13-13.5-5.8-13.5-13 6-13 13.5-13z" fill="#ffffff" stroke-width="none" opacity="1"></path></g><g id="svga-group-eyesiriswrapper-right" transform="matrix(1,0,0,1,0,0)"><g id="svga-group-eyesiriscontrol-right" transform="matrix(1,0,0,1,0,0)"><g id="svga-group-eyesiris-right" transform="matrix(1,0,0,1,0,0)"><path id="SvgjsPath33254" d="M119.8 82.5c2.6 0 4.7 2.1 4.7 4.7s-2.1 4.7-4.7 4.7-4.7-2.1-4.7-4.7 2.1-4.7 4.7-4.7z" fill="#ddb332" stroke-width="none" opacity="1"></path><path id="SvgjsPath33255" d="M123.8 84.7c.3.5.6 1.1.7 1.7s.2 1.2.1 1.9c-.1.6-.3 1.2-.7 1.8s-.8 1-1.4 1.3-1.2.5-1.8.6-1.3.1-1.9-.1c-1.2-.3-2.3-1-3.1-2-.4-.5-.6-1.1-.8-1.7s-.1-1.3 0-1.9.4-1.2.7-1.8.8-1 1.4-1.4c.6-.3 1.2-.6 1.8-.7.6-.1 1.3-.1 1.9.1 1.4.3 2.4 1.1 3.1 2.2zm-.1 0-.3-.4-.3-.3-.3-.3c-.1-.1-.2-.2-.4-.3-.5-.3-1.1-.5-1.7-.6-1.2-.2-2.3.1-3.3.7-.9.6-1.7 1.6-1.9 2.7-.3 1.1-.1 2.3.5 3.4.3.5.7 1 1.2 1.3s1.1.6 1.6.7c.6.1 1.2.1 1.8-.1.6-.1 1.1-.4 1.6-.7s.9-.7 1.2-1.2.6-1 .8-1.6c.2-.6.2-1.2.1-1.8-.1-.4-.3-1-.6-1.5z" fill="#be9105" stroke-width="none" opacity="1"></path><path id="SvgjsPath33256" d="M119.8 85.5c.9 0 1.7.8 1.7 1.7s-.8 1.7-1.7 1.7-1.7-.8-1.7-1.7.8-1.7 1.7-1.7z" fill="#000000" stroke-width="none" opacity="1"></path><path id="SvgjsPath33257" d="M119.8 89.1c-1 0-1.8-.8-1.8-1.8s.8-1.8 1.8-1.8 1.8.8 1.8 1.8-.8 1.8-1.8 1.8zm0-3.4c-.8 0-1.5.7-1.5 1.5s.7 1.5 1.5 1.5 1.5-.7 1.5-1.5-.7-1.5-1.5-1.5z" fill="#be9105" stroke-width="none" opacity="1"></path><path id="SvgjsPath33258" d="M117.6 83.7c.4-.2 1 .2 1.5 1 .4.8.5 1.5.1 1.8-.4.2-1-.2-1.5-1-.4-.8-.4-1.6-.1-1.8zm3.3 4.4c.3 0 .6.3.6.6s-.3.6-.6.6-.6-.3-.6-.6.3-.6.6-.6z" fill="#ffffff" stroke-width="none" opacity="1"></path></g></g></g><g id="svga-group-eyesfront-right"><path id="SvgjsPath33205" d="M119.8 73.7c-7.8 0-14.1 6.1-14.1 13.6s6.3 13.6 14.1 13.6 14.1-6.1 14.1-13.6-6.3-13.6-14.1-13.6zm-3.7 21.6c-4.4.4-5.9.1-5.8-.3 0 0 6-10.6 8.7-11.7s8.2-1.1 11.6 1.1c3.4 2.2-10.1 10.4-14.5 10.9z" fill="#f4baa3" stroke-width="none" opacity="1" stroke="none"></path><path id="SvgjsPath33208" d="M131 84.5c-.2-.2-.5-.3-.7-.5-.9-.5-1.9-.8-2.8-1.1 1.8.2 3.4.4 3.4.4-1.5-1.6-10.1-1.5-11.4-1.2s-5.3.7-5 .8c.3.2 2.5 0 2.5 0s.2.1-.5 1.4-6.7 10.7-6.7 10.7c.3-.3.7-.7 1.1-1.2-.2.4-.4.8-.6 1.1 0 .1 0 .2.1.2.1.1.1.1.2.1.1.1.3.1.4.1.3.1.5.1.8.1h1.6c.5 0 1.1 0 1.6-.1.6 0 1.1 0 1.7-.1 2.2-.4 4.2-1.4 6.1-2.4 1.9-1 3.8-2.2 5.5-3.6.9-.7 1.7-1.4 2.4-2.4.3-.5.6-1 .7-1.6 0-.2-.2-.5-.4-.7zm-.7 2.2c-.7.8-1.5 1.5-2.3 2.2-1.7 1.3-3.6 2.5-5.4 3.5-.9.5-1.9 1-2.9 1.5-1 .4-2 .9-3 1.1-1 .2-2.2.3-3.2.4-.5 0-1.1.1-1.6 0-.3 0-.5 0-.8-.1-.1 0-.3-.1-.4-.1-.1 0-.2-.1-.2-.2.4-.6.8-1.2 1.1-1.9 1-1.4 2.2-3.2 3.3-4.9 1-1.3 2-2.7 3.1-3.8.4-.4.8-.7 1.2-.9.5-.2 1-.3 1.5-.5.4-.1.9-.2 1.3-.2.5 0 .9 0 1.3-.1h.8c1 0 2 .1 3 .4 1.1.2 2.1.6 3 1.2.2.1.5.3.6.4.1.2.2.4.2.6 0 .5-.3 1-.6 1.4z" fill="#587d90" stroke-width="none" opacity="1" stroke="none"></path></g></g></g><g id="svga-group-facehighlight-single"></g><g id="svga-group-eyebrows-left-move" transform="matrix(1,0,0,1,0,0)"><g id="svga-group-eyebrows-left-rotate" transform="matrix(1,0,0,1,0,0)"><g id="svga-group-eyebrows-left" transform="matrix(1,0,0,1,0,0)"><path id="SvgjsPath33133" d="M70.3 74.6c.2-.48.48-.93.78-1.34.3-.41.62-.79.98-1.13.7-.69 1.48-1.24 2.3-1.69.42-.2.83-.43 1.26-.58.22-.08.42-.18.64-.24l.66-.2c.22-.08.44-.12.66-.17l.67-.15c.22-.04.44-.07.66-.09.22-.01.44-.04.66-.03.88 0 1.75.18 2.58.52.83.32 1.64.74 2.44 1.23 1.6.98 3.1 2.3 4.57 3.79l.11-.1c-.43-1.08-1.03-2.03-1.71-2.91-.68-.88-1.45-1.65-2.31-2.3-.43-.32-.88-.6-1.34-.84a8.7 8.7 0 0 0-1.44-.55c-.98-.27-2-.32-2.98-.24-.25.01-.49.06-.73.1-.24.05-.48.1-.72.17l-.69.21c-.23.07-.46.14-.69.24l-.68.28c-.23.09-.44.22-.66.32-.44.21-.86.49-1.28.75-.82.57-1.59 1.26-2.26 2.06-.34.4-.64.84-.92 1.3-.27.47-.51.96-.68 1.51l.12.08z" fill="#4e4341" stroke-width="none" opacity="1"></path></g></g></g><g id="svga-group-eyebrows-right-move" transform="matrix(1,0,0,1,0,0)"><g id="svga-group-eyebrows-right-rotate" transform="matrix(1,0,0,1,0,0)"><g id="svga-group-eyebrows-right" transform="matrix(1,0,0,1,0,0)"><path id="SvgjsPath33134" d="M130.69 74.97c-.24-.38-.56-.73-.89-1.04-.33-.31-.69-.6-1.07-.86-.75-.51-1.58-.91-2.43-1.22-.43-.14-.86-.29-1.3-.39-.22-.05-.44-.12-.66-.15l-.67-.12c-.22-.05-.45-.07-.67-.09l-.68-.08c-.22-.02-.44-.02-.66-.03-.22.01-.44 0-.66.02-.87.06-1.73.26-2.53.59-.81.32-1.58.71-2.33 1.16-1.51.9-2.9 2.07-4.24 3.39l-.12-.07c.34-.9.86-1.72 1.47-2.48.6-.76 1.31-1.44 2.11-2.02.4-.29.83-.55 1.27-.77.45-.21.91-.41 1.39-.54.96-.28 1.96-.39 2.95-.4.25 0 .49.02.74.03.24.03.49.05.73.09l.71.13c.24.04.47.08.7.15l.7.18c.23.06.46.15.69.22.46.14.9.34 1.34.52.87.41 1.69.92 2.42 1.53.37.3.71.64 1.02 1 .31.36.59.75.8 1.18l-.13.07z" fill="#4e4341" stroke-width="none" opacity="1"></path></g></g></g><g id="svga-group-beardwrap" transform="matrix(1,0,0,1,0,0)"><g id="svga-group-beard-single-move" transform="matrix(1,0,0,1,0,0)"><g id="svga-group-beard-single" transform="matrix(1,0,0,1,0,0)"></g></g></g><g id="svga-group-mustache-single-move" transform="matrix(1,0,0,1,0,0)"><g id="svga-group-mustache-single" transform="matrix(1,0,0,1,0,0)"></g></g><g id="svga-group-nose-single-move" transform="matrix(1,0,0,1,0,0)"><g id="svga-group-nose-single" transform="matrix(1,0,0,1,0,0)"><path id="SvgjsPath33303" d="M94.01 101.77c-.25.14-5.57 3.17-5.76 7.01-.19 3.84 2.21 5.19 4.23 3.55 2.02-1.63 2.69-1.25 3.94-.19s4.8 1.63 6.24.48c1.44-1.15 2.11-1.63 3.74 0 1.63 1.63 6.05-.77 4.61-5.95-1.44-5.19-11.62-7.88-17-4.9z" fill="url(#SvgjsLinearGradient33304)" opacity="1"></path><path id="SvgjsPath33307" d="M94.01 101.77c-1.1.65-2.14 1.42-3.07 2.3-.93.88-1.75 1.9-2.23 3.08-.14.29-.19.6-.28.91-.03.16-.04.31-.06.47-.02.16-.04.31-.03.47-.02.63.07 1.27.25 1.86.18.59.49 1.15.96 1.53.46.39 1.08.49 1.64.36.14-.03.28-.1.42-.14.13-.07.26-.14.39-.22l.36-.27c.13-.1.25-.21.38-.31.53-.38 1.09-.81 1.87-.87.39-.02.77.1 1.08.28.31.17.57.38.83.59.45.38 1.01.59 1.6.76 1.16.32 2.47.42 3.56.08.28-.08.5-.21.72-.36.25-.2.51-.41.79-.6s.6-.39 1-.49c.41-.1.87-.03 1.21.14.35.17.64.38.89.61.13.11.25.23.37.35.11.1.18.16.29.23.42.24.99.24 1.52.05 1.07-.37 1.91-1.36 2.24-2.49.36-1.13.27-2.42-.08-3.59-.37-1.15-1.18-2.16-2.16-2.94-.98-.79-2.11-1.4-3.29-1.87-1.19-.46-2.43-.79-3.69-.97-1.27-.17-2.56-.22-3.83-.06-1.26.15-2.52.5-3.65 1.11zm0 0c1.13-.62 2.38-.98 3.66-1.14 1.27-.17 2.57-.17 3.85-.03 2.55.29 5.11 1.06 7.23 2.61 1.05.77 1.98 1.8 2.45 3.09.23.64.36 1.29.42 1.96.05.67.01 1.36-.19 2.03-.37 1.32-1.3 2.56-2.68 3.06-.67.24-1.5.3-2.21-.1-.09-.05-.17-.11-.25-.17-.07-.06-.16-.14-.22-.19-.11-.1-.22-.22-.33-.31-.22-.2-.46-.36-.69-.47a.97.97 0 0 0-.66-.09c-.22.05-.47.19-.71.35-.25.17-.49.36-.74.56-.31.22-.65.41-.99.5-.69.21-1.38.24-2.05.2a8.96 8.96 0 0 1-1.98-.36c-.63-.2-1.29-.49-1.81-.96-.47-.41-.95-.8-1.46-.79-.52.01-1.08.34-1.59.69-.13.09-.25.19-.38.28l-.42.29c-.15.08-.31.16-.46.23-.17.05-.33.12-.5.15-.68.14-1.45-.03-1.96-.51-.52-.46-.83-1.09-.99-1.72a6.39 6.39 0 0 1-.18-1.94c0-.16.02-.32.05-.49.03-.16.04-.32.08-.48.11-.31.17-.63.32-.92.24-.6.62-1.13 1-1.65.41-.5.84-.97 1.32-1.4.91-.88 1.96-1.64 3.07-2.28z" fill="#c66c49" stroke-width="none" opacity="1" stroke="none"></path></g></g><g id="svga-group-hair-front" transform="matrix(1,0,0,1,0,0)"></g><g id="svga-group-glasses-single-move" transform="matrix(1,0,0,1,0,0)"><g id="svga-group-glasses-single" transform="matrix(1,0,0,1,0,0)"><path id="SvgjsPath33334" d="M71.8 80.6s-7.2 2.5-7.5 8.5c-.3 5.8 6.9 10.6 11.9 11.5 5 .9 10.7.6 14.6-1.7 3.9-2.3 5.8-5.7 4.7-9.7-1.1-4.1-5.9-7.8-12.6-9.1-6.7-1.3-11.1.5-11.1.5z" fill="url(#SvgjsLinearGradient33335)" opacity="1"></path><path id="SvgjsPath33340" d="M129.5 80.9s6.9 2.5 6.9 8.4c0 5.7-7.2 10.4-12.1 11.3-4.9.9-10.6.6-14.3-1.7-3.8-2.3-5.5-5.7-4.2-9.7 1.3-4.1 6.2-7.8 12.9-9 6.7-1.2 10.8.7 10.8.7z" fill="url(#SvgjsLinearGradient33341)" opacity="1"></path><path id="SvgjsPath33346" d="M126.3 77.2c-11 0-15.6 4-19.4 6-3.8 1.9-8.5 1.9-12.2-.1-3.8-2-8.2-6-19.3-6.2-11.2-.1-17.4.8-17 4.1.4 3.3 1.1 4.9 3.5 6.3 1.1.6 1.6 1.2 1.9 1.7v.1c-.1 3 1.5 6 4.5 8.4 2.9 2.3 6.8 3.8 11.1 4.2.8.1 1.5.1 2.3.1 7.7 0 14.1-3.9 14.7-9.4.5-3.7 3.4-3.9 3.4-3.9h1.9s2.9.2 3.2 3.9c.4 5.5 6.5 9.4 14.2 9.4.7 0 1.5 0 2.2-.1 4.2-.4 8.1-1.9 11-4.1 3-2.3 4.7-5.3 4.8-8.3v-.1c.3-.5.9-1.1 1.9-1.7 2.4-1.3 3.1-2.9 3.7-6.1.5-3.3-5.5-4.3-16.4-4.2zm-31 15c-.6 5.5-7.7 9.2-15.9 8.4-4-.4-7.8-1.8-10.5-4s-4.2-4.8-4.1-7.5c.2-5.2 6.2-9 13.9-9 .8 0 1.5 0 2.3.1 8.6 1 15 6.4 14.3 12zm36.4 4.5c-2.8 2.2-6.5 3.5-10.5 3.9-8.1.8-15-2.9-15.3-8.4-.4-5.6 6.2-11 14.8-11.8.8-.1 1.5-.1 2.2-.1 7.4 0 13.1 3.8 13.1 9 0 2.7-1.6 5.3-4.3 7.4z" fill="#2e0914" stroke-width="none" opacity="1"></path><path id="SvgjsPath33347" d="M126.3 77.2c-3.4 0-6.8.4-10.1 1.5-1.6.5-3.2 1.2-4.8 2-1.5.8-3 1.8-4.5 2.6-3.1 1.6-6.7 1.9-10 .9-1.7-.5-3.1-1.4-4.6-2.3-1.5-.9-3-1.7-4.5-2.4-3.2-1.4-6.6-2.1-10-2.3-1.7-.1-3.5-.1-5.2-.1-1.7 0-3.5 0-5.2.2s-3.5.3-5.1.7c-.8.2-1.6.5-2.4.9-.7.4-1.3 1-1.3 1.9.1 1.7.4 3.5 1.4 4.9.5.7 1.2 1.2 2 1.6.8.4 1.5 1 2 1.8-.1 2 .6 4.1 1.9 5.7 1.2 1.7 2.9 3 4.6 4 3.5 2 7.6 2.9 11.6 2.8 2-.1 4-.3 5.9-1 1.9-.6 3.7-1.5 5.2-2.8.7-.7 1.4-1.4 1.9-2.2.3-.4.5-.9.7-1.3.1-.5.3-.9.4-1.4.2-.9.3-2.1 1-3 .6-.9 1.6-1.6 2.7-1.7h1.9c1.1.2 2.1.8 2.7 1.7.6.9.7 2 .8 3 0 .5.2.9.3 1.4.2.4.3.9.6 1.3.5.8 1.1 1.6 1.8 2.2 1.4 1.3 3.2 2.2 5 2.8 1.8.6 3.8.9 5.7.9 3.9.1 7.9-.8 11.5-2.8 1.8-1 3.4-2.3 4.7-3.9 1.3-1.6 2.1-3.6 2.1-5.6v-.1c.3-.6.8-1 1.4-1.3.5-.3 1.1-.6 1.6-.9 1-.7 1.7-1.7 2.1-2.8.2-.6.4-1.1.5-1.7.1-.6.3-1.2.2-1.7 0-.3-.2-.5-.3-.7-.2-.2-.3-.4-.6-.6-.2-.2-.4-.3-.7-.4-.2-.1-.5-.2-.8-.3-2.1-.8-4.5-1-6.8-1.2-2.6-.3-5-.3-7.3-.3zm0-.1c2.4 0 4.7 0 7.1.2 2.3.2 4.7.3 6.9 1.1.3.1.5.2.8.3.3.1.5.3.7.4.2.1.4.4.6.6.1.3.3.5.4.8.1.6 0 1.2-.1 1.8-.1.6-.3 1.2-.5 1.8-.4 1.2-1.2 2.3-2.2 3-.5.4-1.1.6-1.5.9-.5.3-.9.7-1.2 1.2v-.1c0 2.1-.8 4.2-2.1 5.8-1.3 1.7-3 3-4.8 4.1-3.6 2.1-7.7 3-11.7 2.9-2 0-4-.3-5.9-.9-1.9-.6-3.7-1.6-5.2-2.9-.7-.7-1.4-1.4-1.9-2.3-.3-.4-.4-.9-.7-1.4-.1-.5-.3-1-.3-1.5-.1-.5-.1-1-.2-1.5s-.3-.9-.5-1.3c-.5-.8-1.4-1.4-2.3-1.5h-1.9c-.9.1-1.8.7-2.4 1.5-.6.8-.7 1.8-.9 2.8-.1.5-.3 1-.4 1.5-.2.5-.4.9-.7 1.4-.5.9-1.2 1.6-2 2.3-1.6 1.3-3.4 2.3-5.3 2.8-1.9.6-3.9.9-6 .9-4 .1-8.2-.9-11.7-2.9-1.8-1.1-3.4-2.4-4.7-4.1-1.2-1.7-2-3.8-1.9-5.8v.1c-.9-1.5-2.9-1.8-4-3.3-.6-.7-.9-1.6-1.1-2.4-.2-.9-.4-1.7-.4-2.6 0-.9.7-1.7 1.5-2.1.8-.4 1.6-.7 2.4-.9 1.7-.4 3.4-.6 5.2-.7 1.7-.1 3.5-.2 5.2-.2 1.7 0 3.5 0 5.2.1 3.5.2 7 .9 10.2 2.3 1.6.7 3.1 1.6 4.6 2.5 1.5.9 2.9 1.8 4.5 2.3 3.2 1 6.8.8 9.8-.8 1.5-.8 3-1.7 4.5-2.5s3.2-1.5 4.8-2c3.2-1.3 6.7-1.7 10.1-1.7zM95.4 92.2c-.2 1.7-1 3.2-2.1 4.4-1.1 1.2-2.5 2.2-4.1 2.8-3 1.3-6.5 1.7-9.8 1.4-3.3-.4-6.6-1.4-9.5-3.3-1.4-1-2.7-2.1-3.7-3.5s-1.6-3.1-1.6-4.8c.1-1.7.8-3.4 1.9-4.7 1.1-1.3 2.6-2.3 4.1-3C73.9 80 77.5 79.6 81 80c3.5.4 6.9 1.6 9.8 3.6 1.4 1 2.6 2.3 3.5 3.8.8 1.4 1.3 3.1 1.1 4.8zm-.1 0c.2-1.7-.3-3.3-1.2-4.8-.9-1.4-2.2-2.6-3.6-3.6-2.8-1.9-6.2-2.9-9.6-3.3-3.4-.3-6.9 0-10 1.4-1.5.7-2.9 1.6-4.1 2.8-1.1 1.2-1.8 2.8-1.9 4.4-.1 1.7.5 3.3 1.4 4.7.9 1.4 2.2 2.6 3.6 3.5 2.8 1.8 6.1 2.8 9.4 3.1 3.3.3 6.6-.1 9.6-1.3 1.5-.6 2.9-1.5 4.1-2.6 1.3-1.1 2.1-2.7 2.3-4.3zm36.4 4.6c-2.7 2.1-5.9 3.3-9.2 3.9-3.3.5-6.6.4-9.7-.7-1.5-.5-3-1.3-4.2-2.4-1.2-1.1-2.2-2.5-2.6-4.1-.4-1.6-.2-3.4.5-4.9.7-1.6 1.9-2.9 3.2-4.1 2.7-2.2 6.1-3.6 9.5-4.2l1.3-.2 1.3-.1c.9-.1 1.7-.1 2.6 0 1.7.1 3.4.5 5 1.1 1.6.6 3.1 1.4 4.2 2.6.6.6 1.1 1.2 1.5 1.9.4.7.7 1.5.8 2.3.3 1.7-.1 3.4-.9 4.9-.8 1.6-2 2.9-3.3 4zm-.1-.1c1.3-1.1 2.5-2.3 3.3-3.8.8-1.5 1.1-3.2.7-4.8-.1-.8-.5-1.5-.9-2.2-.4-.7-.9-1.3-1.5-1.8-1.2-1.1-2.6-1.9-4.1-2.4-3.1-1.1-6.5-1.3-9.9-.8-3.3.5-6.7 1.7-9.4 3.9-1.3 1.1-2.5 2.4-3.2 3.9-.7 1.5-1 3.2-.5 4.8.4 1.6 1.4 2.9 2.6 3.9 1.2 1 2.7 1.7 4.2 2.2 3 1 6.3 1.2 9.5.8 3.3-.5 6.5-1.6 9.2-3.7z" fill="#0f0005" stroke-width="none" opacity="1"></path></g></g></g></g></g><rect id="svga-credit-rect" width="200" height="15" x="0" y="185" fill="#ecf0f1" opacity="0.5" style="display: none;"></rect><text id="svga-credit-text" font-family="Avenir Next, Roboto, Helvetica, Arial, sans-serif" font-size="10px" text-anchor="start" font-weight="400" size="10px" anchor="start" weight="400" fill="#333333" x="33.43669891357422" y="182.60824704170227" style="display: none;"><tspan id="SvgjsTspan32674" dy="13" x="33.43669891357422">Created on AvatarMaker.com</tspan></text></g></svg>